M48
; DRILL file {KiCad 5.1.5-1.fc31} date Thu 30 Apr 2020 10:40:42 CEST
; FORMAT={-:-/ absolute / metric / decimal}
; #@! TF.CreationDate,2020-04-30T10:40:42+02:00
; #@! TF.GenerationSoftware,Kicad,Pcbnew,5.1.5-1.fc31
FMAT,2
METRIC
T1C0.800
T2C0.900
T3C1.000
T4C1.100
T5C3.000
%
G90
G05
T1
X23.0Y8.75
X29.75Y4.0
X34.0Y5.0
X36.5Y5.0
X11.38Y11.0
X19.0Y11.0
X31.0Y15.0
X31.0Y7.38
X11.38Y13.5
X19.0Y13.5
X34.75Y12.25
X37.25Y12.25
X12.17Y5.75
X14.71Y5.75
X17.25Y5.75
T2
X24.0Y13.0
X26.54Y13.0
T3
X24.21Y2.5
X26.75Y2.5
X3.96Y4.0
X6.5Y4.0
X3.96Y13.83
X3.96Y11.29
X3.96Y8.75
X6.5Y13.83
X6.5Y11.29
X6.5Y8.75
T4
X41.92Y14.0
X44.46Y14.0
X47.0Y14.0
T5
X4.0Y22.0
X14.0Y22.0
X25.5Y22.0
X37.0Y22.0
X47.0Y22.0
T0
M30
