<?xml version="1.0" standalone="no"?>
 <!DOCTYPE svg PUBLIC "-//W3C//DTD SVG 1.1//EN" 
 "http://www.w3.org/Graphics/SVG/1.1/DTD/svg11.dtd"> 
<svg xmlns="http://www.w3.org/2000/svg" version="1.1" 
    width="29.7002cm" height="21.0007cm" viewBox="0 0 116930 82680 ">
<title>SVG Picture created as catbit-F_SilkS.svg date 2020/04/27 16:05:51 </title>
  <desc>Picture generated by PCBNEW </desc>
<g style="fill:#000000; fill-opacity:1;stroke:#000000; stroke-opacity:1;
stroke-linecap:round; stroke-linejoin:round; "
 transform="translate(0 0) scale(1 1)">
</g>
<g style="fill:#000000; fill-opacity:0.0; 
stroke:#000000; stroke-width:-0.000393701; stroke-opacity:1; 
stroke-linecap:round; stroke-linejoin:round;">
</g>
<g style="fill:#000000; fill-opacity:0.0; 
stroke:#000000; stroke-width:78.7402; stroke-opacity:1; 
stroke-linecap:round; stroke-linejoin:round;">
<text x="60157.5" y="58129.9"
textLength="731.159" font-size="787.402" lengthAdjust="spacingAndGlyphs"
text-anchor="middle" opacity="0">-</text>
<path d="M59932 57876
L60382 57876
" />
<text x="67834.6" y="59645.7"
textLength="1339.71" font-size="524.934" lengthAdjust="spacingAndGlyphs"
text-anchor="middle" opacity="0">v1.0</text>
<path d="M67272 59308
L67365 59623
L67459 59308
" />
<path d="M67815 59623
L67590 59623
" />
<path d="M67703 59623
L67703 59150
L67665 59218
L67628 59263
L67590 59285
" />
<path d="M67984 59578
L68003 59600
L67984 59623
L67965 59600
L67984 59578
L67984 59623
" />
<path d="M68247 59150
L68284 59150
L68322 59173
L68340 59195
L68359 59240
L68378 59330
L68378 59443
L68359 59533
L68340 59578
L68322 59600
L68284 59623
L68247 59623
L68209 59600
L68190 59578
L68172 59533
L68153 59443
L68153 59330
L68172 59240
L68190 59195
L68209 59173
L68247 59150
" />
</g>
<g style="fill:#000000; fill-opacity:0.0; 
stroke:#000000; stroke-width:118.11; stroke-opacity:1; 
stroke-linecap:round; stroke-linejoin:round;">
<text x="67047.2" y="58818.9"
textLength="3083.24" font-size="1574.8" lengthAdjust="spacingAndGlyphs"
text-anchor="middle" opacity="0">:Bit</text>
<path d="M65838 58650
L65894 58706
L65838 58762
L65781 58706
L65838 58650
L65838 58762
" />
<path d="M65838 58031
L65894 58087
L65838 58143
L65781 58087
L65838 58031
L65838 58143
" />
<path d="M66794 58143
L66962 58200
L67019 58256
L67075 58368
L67075 58537
L67019 58650
L66962 58706
L66850 58762
L66400 58762
L66400 57581
L66794 57581
L66906 57637
L66962 57694
L67019 57806
L67019 57919
L66962 58031
L66906 58087
L66794 58143
L66400 58143
" />
<path d="M67581 58762
L67581 57975
" />
<path d="M67581 57581
L67525 57637
L67581 57694
L67637 57637
L67581 57581
L67581 57694
" />
<path d="M67975 57975
L68425 57975
" />
<path d="M68143 57581
L68143 58593
L68200 58706
L68312 58762
L68425 58762
" />
<text x="67047.2" y="57244.1"
textLength="3078.18" font-size="1574.8" lengthAdjust="spacingAndGlyphs"
text-anchor="middle" opacity="0">Cat</text>
<path d="M66541 57075
L66484 57131
L66316 57187
L66203 57187
L66034 57131
L65922 57019
L65866 56906
L65809 56681
L65809 56512
L65866 56287
L65922 56175
L66034 56062
L66203 56006
L66316 56006
L66484 56062
L66541 56119
" />
<path d="M67553 57187
L67553 56569
L67497 56456
L67384 56400
L67159 56400
L67047 56456
" />
<path d="M67553 57131
L67440 57187
L67159 57187
L67047 57131
L66991 57019
L66991 56906
L67047 56794
L67159 56737
L67440 56737
L67553 56681
" />
<path d="M67947 56400
L68397 56400
" />
<path d="M68115 56006
L68115 57019
L68172 57131
L68284 57187
L68397 57187
" />
</g>
<g style="fill:#000000; fill-opacity:0.0; 
stroke:#000000; stroke-width:59.0551; stroke-opacity:1; 
stroke-linecap:round; stroke-linejoin:round;">
<text x="59960.6" y="53307.1"
textLength="4203.04" font-size="524.934" lengthAdjust="spacingAndGlyphs"
text-anchor="middle" opacity="0">BBC Micro:Bit</text>
<path d="M58160 53082
L58217 53100
L58235 53119
L58254 53157
L58254 53213
L58235 53250
L58217 53269
L58179 53288
L58029 53288
L58029 52894
L58160 52894
L58198 52913
L58217 52932
L58235 52969
L58235 53007
L58217 53044
L58198 53063
L58160 53082
L58029 53082
" />
<path d="M58554 53082
L58610 53100
L58629 53119
L58648 53157
L58648 53213
L58629 53250
L58610 53269
L58573 53288
L58423 53288
L58423 52894
L58554 52894
L58592 52913
L58610 52932
L58629 52969
L58629 53007
L58610 53044
L58592 53063
L58554 53082
L58423 53082
" />
<path d="M59041 53250
L59023 53269
L58967 53288
L58929 53288
L58873 53269
L58835 53232
L58817 53194
L58798 53119
L58798 53063
L58817 52988
L58835 52950
L58873 52913
L58929 52894
L58967 52894
L59023 52913
L59041 52932
" />
<path d="M59510 53288
L59510 52894
L59641 53175
L59773 52894
L59773 53288
" />
<path d="M59960 53288
L59960 53025
" />
<path d="M59960 52894
L59941 52913
L59960 52932
L59979 52913
L59960 52894
L59960 52932
" />
<path d="M60316 53269
L60279 53288
L60204 53288
L60166 53269
L60148 53250
L60129 53213
L60129 53100
L60148 53063
L60166 53044
L60204 53025
L60279 53025
L60316 53044
" />
<path d="M60485 53288
L60485 53025
" />
<path d="M60485 53100
L60504 53063
L60523 53044
L60560 53025
L60598 53025
" />
<path d="M60785 53288
L60748 53269
L60729 53250
L60710 53213
L60710 53100
L60729 53063
L60748 53044
L60785 53025
L60841 53025
L60879 53044
L60898 53063
L60916 53100
L60916 53213
L60898 53250
L60879 53269
L60841 53288
L60785 53288
" />
<path d="M61085 53250
L61104 53269
L61085 53288
L61066 53269
L61085 53250
L61085 53288
" />
<path d="M61085 53044
L61104 53063
L61085 53082
L61066 53063
L61085 53044
L61085 53082
" />
<path d="M61404 53082
L61460 53100
L61479 53119
L61497 53157
L61497 53213
L61479 53250
L61460 53269
L61422 53288
L61272 53288
L61272 52894
L61404 52894
L61441 52913
L61460 52932
L61479 52969
L61479 53007
L61460 53044
L61441 53063
L61404 53082
L61272 53082
" />
<path d="M61666 53288
L61666 53025
" />
<path d="M61666 52894
L61647 52913
L61666 52932
L61685 52913
L61666 52894
L61666 52932
" />
<path d="M61797 53025
L61947 53025
" />
<path d="M61854 52894
L61854 53232
L61872 53269
L61910 53288
L61947 53288
" />
</g>
<g style="fill:#000000; fill-opacity:0.0; 
stroke:#000000; stroke-width:78.7402; stroke-opacity:1; 
stroke-linecap:round; stroke-linejoin:round;">
<text x="57795.3" y="58435"
textLength="1145.39" font-size="787.402" lengthAdjust="spacingAndGlyphs"
text-anchor="middle" opacity="0">5V</text>
<path d="M57682 57816
L57401 57816
L57373 58097
L57401 58069
L57457 58041
L57598 58041
L57654 58069
L57682 58097
L57710 58153
L57710 58294
L57682 58350
L57654 58378
L57598 58406
L57457 58406
L57401 58378
L57373 58350
" />
<path d="M57879 57816
L58076 58406
L58273 57816
" />
<text x="57795.3" y="59399.6"
textLength="1283.46" font-size="787.402" lengthAdjust="spacingAndGlyphs"
text-anchor="middle" opacity="0">DC</text>
<path d="M57345 59371
L57345 58780
L57485 58780
L57570 58809
L57626 58865
L57654 58921
L57682 59034
L57682 59118
L57654 59230
L57626 59287
L57570 59343
L57485 59371
L57345 59371
" />
<path d="M58273 59315
L58245 59343
L58160 59371
L58104 59371
L58020 59343
L57964 59287
L57935 59230
L57907 59118
L57907 59034
L57935 58921
L57964 58865
L58020 58809
L58104 58780
L58160 58780
L58245 58809
L58273 58837
" />
</g>
<g style="fill:#000000; fill-opacity:0.0; 
stroke:#000000; stroke-width:59.0551; stroke-opacity:1; 
stroke-linecap:round; stroke-linejoin:round;">
<text x="51496.1" y="57903.5"
textLength="1677.17" font-size="524.934" lengthAdjust="spacingAndGlyphs"
text-anchor="middle" opacity="0">Laser</text>
<path d="M50989 57884
L50802 57884
L50802 57491
" />
<path d="M51289 57884
L51289 57678
L51271 57641
L51233 57622
L51158 57622
L51121 57641
" />
<path d="M51289 57866
L51252 57884
L51158 57884
L51121 57866
L51102 57828
L51102 57791
L51121 57753
L51158 57734
L51252 57734
L51289 57716
" />
<path d="M51458 57866
L51496 57884
L51571 57884
L51608 57866
L51627 57828
L51627 57809
L51608 57772
L51571 57753
L51514 57753
L51477 57734
L51458 57697
L51458 57678
L51477 57641
L51514 57622
L51571 57622
L51608 57641
" />
<path d="M51946 57866
L51908 57884
L51833 57884
L51796 57866
L51777 57828
L51777 57678
L51796 57641
L51833 57622
L51908 57622
L51946 57641
L51964 57678
L51964 57716
L51777 57753
" />
<path d="M52133 57884
L52133 57622
" />
<path d="M52133 57697
L52152 57659
L52170 57641
L52208 57622
L52245 57622
" />
<text x="51496.1" y="58553.1"
textLength="1707.82" font-size="524.934" lengthAdjust="spacingAndGlyphs"
text-anchor="middle" opacity="0">Diode</text>
<path d="M50774 58534
L50774 58140
L50868 58140
L50924 58159
L50961 58196
L50980 58234
L50999 58309
L50999 58365
L50980 58440
L50961 58478
L50924 58515
L50868 58534
L50774 58534
" />
<path d="M51167 58534
L51167 58271
" />
<path d="M51167 58140
L51149 58159
L51167 58178
L51186 58159
L51167 58140
L51167 58178
" />
<path d="M51411 58534
L51374 58515
L51355 58496
L51336 58459
L51336 58346
L51355 58309
L51374 58290
L51411 58271
L51467 58271
L51505 58290
L51524 58309
L51542 58346
L51542 58459
L51524 58496
L51505 58515
L51467 58534
L51411 58534
" />
<path d="M51880 58534
L51880 58140
" />
<path d="M51880 58515
L51842 58534
L51767 58534
L51730 58515
L51711 58496
L51692 58459
L51692 58346
L51711 58309
L51730 58290
L51767 58271
L51842 58271
L51880 58290
" />
<path d="M52217 58515
L52180 58534
L52105 58534
L52067 58515
L52049 58478
L52049 58328
L52067 58290
L52105 58271
L52180 58271
L52217 58290
L52236 58328
L52236 58365
L52049 58403
" />
<g transform="rotate(-90 52480.3 54685)">
<text x="52480.3" y="54881.9"
textLength="2026.53" font-size="524.934" lengthAdjust="spacingAndGlyphs"
text-anchor="middle" opacity="0">ServoY</text>
</g>
<path d="M52639 55584
L52658 55528
L52658 55434
L52639 55397
L52620 55378
L52583 55359
L52545 55359
L52508 55378
L52489 55397
L52470 55434
L52452 55509
L52433 55547
L52414 55566
L52377 55584
L52339 55584
L52302 55566
L52283 55547
L52264 55509
L52264 55416
L52283 55359
" />
<path d="M52639 55041
L52658 55078
L52658 55153
L52639 55191
L52602 55209
L52452 55209
L52414 55191
L52395 55153
L52395 55078
L52414 55041
L52452 55022
L52489 55022
L52527 55209
" />
<path d="M52658 54853
L52395 54853
" />
<path d="M52470 54853
L52433 54835
L52414 54816
L52395 54778
L52395 54741
" />
<path d="M52395 54647
L52658 54553
L52395 54460
" />
<path d="M52658 54253
L52639 54291
L52620 54310
L52583 54328
L52470 54328
L52433 54310
L52414 54291
L52395 54253
L52395 54197
L52414 54160
L52433 54141
L52470 54122
L52583 54122
L52620 54141
L52639 54160
L52658 54197
L52658 54253
" />
<path d="M52470 53878
L52658 53878
" />
<path d="M52264 54010
L52470 53878
L52264 53747
" />
<g transform="rotate(-90 50315 54685)">
<text x="50315" y="54881.9"
textLength="2064.02" font-size="524.934" lengthAdjust="spacingAndGlyphs"
text-anchor="middle" opacity="0">ServoX</text>
</g>
<path d="M50474 55603
L50493 55547
L50493 55453
L50474 55416
L50455 55397
L50418 55378
L50380 55378
L50343 55397
L50324 55416
L50305 55453
L50286 55528
L50268 55566
L50249 55584
L50211 55603
L50174 55603
L50136 55584
L50118 55566
L50099 55528
L50099 55434
L50118 55378
" />
<path d="M50474 55059
L50493 55097
L50493 55172
L50474 55209
L50436 55228
L50286 55228
L50249 55209
L50230 55172
L50230 55097
L50249 55059
L50286 55041
L50324 55041
L50361 55228
" />
<path d="M50493 54872
L50230 54872
" />
<path d="M50305 54872
L50268 54853
L50249 54835
L50230 54797
L50230 54760
" />
<path d="M50230 54666
L50493 54572
L50230 54478
" />
<path d="M50493 54272
L50474 54310
L50455 54328
L50418 54347
L50305 54347
L50268 54328
L50249 54310
L50230 54272
L50230 54216
L50249 54178
L50268 54160
L50305 54141
L50418 54141
L50455 54160
L50474 54178
L50493 54216
L50493 54272
" />
<path d="M50099 54010
L50493 53747
" />
<path d="M50099 53747
L50493 54010
" />
</g>
<g style="fill:#000000; fill-opacity:0.0; 
stroke:#000000; stroke-width:78.7402; stroke-opacity:1; 
stroke-linecap:round; stroke-linejoin:round;">
<text x="59173.2" y="58129.9"
textLength="807.93" font-size="787.402" lengthAdjust="spacingAndGlyphs"
text-anchor="middle" opacity="0">+</text>
<path d="M58948 57876
L59398 57876
" />
<path d="M59173 58101
L59173 57651
" />
<text x="52677.2" y="56752"
textLength="833.521" font-size="787.402" lengthAdjust="spacingAndGlyphs"
text-anchor="middle" opacity="0">+</text>
<path d="M52452 56498
L52902 56498
" />
<path d="M52677 56723
L52677 56273
" />
<text x="52086.6" y="59507.9"
textLength="833.521" font-size="787.402" lengthAdjust="spacingAndGlyphs"
text-anchor="middle" opacity="0">+</text>
<path d="M51861 59254
L52311 59254
" />
<path d="M52086 59479
L52086 59029
" />
<text x="50511.8" y="56752"
textLength="833.521" font-size="787.402" lengthAdjust="spacingAndGlyphs"
text-anchor="middle" opacity="0">+</text>
<path d="M50286 56498
L50736 56498
" />
<path d="M50511 56723
L50511 56273
" />
</g>
<g style="fill:#000000; fill-opacity:0.0; 
stroke:#000000; stroke-width:59.0551; stroke-opacity:1; 
stroke-linecap:round; stroke-linejoin:round;">
<path d="M70196 52716
L49724 52716
" />
<path d="M70196 48385
L70196 52716
" />
<path d="M49724 48385
L70196 48385
" />
<path d="M49724 52716
L49724 48385
" />
</g>
<g style="fill:#000000; fill-opacity:0.0; 
stroke:#000000; stroke-width:47.2441; stroke-opacity:1; 
stroke-linecap:round; stroke-linejoin:round;">
<path d="M67287 55578
L67287 54984
" />
<path d="M68744 55578
L68744 54984
" />
<path d="M70031 54984
L66000 54984
" />
<path d="M66000 55578
L66000 53751
" />
<path d="M70031 55578
L70031 53751
" />
<path d="M70031 53751
L66000 53751
" />
<path d="M70031 55578
L66000 55578
" />
<path d="M64856 58682
L64856 58434
" />
<path d="M64980 58558
L64732 58558
" />
<path d="M62326 57992
L62326 57676
" />
<path d="M62342 58083
L62342 57585
" />
<path d="M62357 58150
L62357 57518
" />
<path d="M62373 58204
L62373 57464
" />
<path d="M62389 58251
L62389 57417
" />
<path d="M62405 58293
L62405 57375
" />
<path d="M62420 58331
L62420 57337
" />
<path d="M62436 58366
L62436 57303
" />
<path d="M62452 58398
L62452 57270
" />
<path d="M62468 58428
L62468 57240
" />
<path d="M62483 58457
L62483 57212
" />
<path d="M62499 58484
L62499 57185
" />
<path d="M62515 58509
L62515 57159
" />
<path d="M62531 58533
L62531 57135
" />
<path d="M62546 58556
L62546 57112
" />
<path d="M62562 58578
L62562 57090
" />
<path d="M62578 58600
L62578 57069
" />
<path d="M62594 58620
L62594 57049
" />
<path d="M62609 58639
L62609 57029
" />
<path d="M62625 58658
L62625 57011
" />
<path d="M62641 58675
L62641 56993
" />
<path d="M62657 58693
L62657 56975
" />
<path d="M62672 58710
L62672 56959
" />
<path d="M62688 58726
L62688 56942
" />
<path d="M62704 57425
L62704 56927
" />
<path d="M62704 58742
L62704 58244
" />
<path d="M62720 57425
L62720 56912
" />
<path d="M62720 58757
L62720 58244
" />
<path d="M62735 57425
L62735 56897
" />
<path d="M62735 58771
L62735 58244
" />
<path d="M62751 57425
L62751 56883
" />
<path d="M62751 58785
L62751 58244
" />
<path d="M62767 57425
L62767 56870
" />
<path d="M62767 58799
L62767 58244
" />
<path d="M62783 57425
L62783 56856
" />
<path d="M62783 58812
L62783 58244
" />
<path d="M62798 57425
L62798 56844
" />
<path d="M62798 58825
L62798 58244
" />
<path d="M62814 57425
L62814 56831
" />
<path d="M62814 58837
L62814 58244
" />
<path d="M62830 57425
L62830 56819
" />
<path d="M62830 58849
L62830 58244
" />
<path d="M62846 57425
L62846 56808
" />
<path d="M62846 58861
L62846 58244
" />
<path d="M62861 57425
L62861 56796
" />
<path d="M62861 58872
L62861 58244
" />
<path d="M62877 57425
L62877 56785
" />
<path d="M62877 58883
L62877 58244
" />
<path d="M62893 57425
L62893 56775
" />
<path d="M62893 58893
L62893 58244
" />
<path d="M62909 57425
L62909 56765
" />
<path d="M62909 58903
L62909 58244
" />
<path d="M62924 57425
L62924 56755
" />
<path d="M62924 58914
L62924 58244
" />
<path d="M62940 57425
L62940 56745
" />
<path d="M62940 58923
L62940 58244
" />
<path d="M62956 57425
L62956 56736
" />
<path d="M62956 58933
L62956 58244
" />
<path d="M62972 57425
L62972 56727
" />
<path d="M62972 58941
L62972 58244
" />
<path d="M62987 57425
L62987 56718
" />
<path d="M62987 58950
L62987 58244
" />
<path d="M63003 57425
L63003 56710
" />
<path d="M63003 58959
L63003 58244
" />
<path d="M63019 57425
L63019 56702
" />
<path d="M63019 58966
L63019 58244
" />
<path d="M63035 57425
L63035 56694
" />
<path d="M63035 58974
L63035 58244
" />
<path d="M63050 57425
L63050 56686
" />
<path d="M63050 58982
L63050 58244
" />
<path d="M63066 57425
L63066 56679
" />
<path d="M63066 58989
L63066 58244
" />
<path d="M63082 57425
L63082 56672
" />
<path d="M63082 58996
L63082 58244
" />
<path d="M63098 57425
L63098 56665
" />
<path d="M63098 59003
L63098 58244
" />
<path d="M63113 57425
L63113 56659
" />
<path d="M63113 59010
L63113 58244
" />
<path d="M63129 57425
L63129 56652
" />
<path d="M63129 59016
L63129 58244
" />
<path d="M63145 57425
L63145 56646
" />
<path d="M63145 59022
L63145 58244
" />
<path d="M63161 57425
L63161 56640
" />
<path d="M63161 59028
L63161 58244
" />
<path d="M63176 57425
L63176 56635
" />
<path d="M63176 59034
L63176 58244
" />
<path d="M63192 57425
L63192 56629
" />
<path d="M63192 59039
L63192 58244
" />
<path d="M63208 57425
L63208 56624
" />
<path d="M63208 59044
L63208 58244
" />
<path d="M63224 57425
L63224 56619
" />
<path d="M63224 59049
L63224 58244
" />
<path d="M63239 57425
L63239 56614
" />
<path d="M63239 59054
L63239 58244
" />
<path d="M63255 57425
L63255 56610
" />
<path d="M63255 59059
L63255 58244
" />
<path d="M63271 57425
L63271 56605
" />
<path d="M63271 59063
L63271 58244
" />
<path d="M63287 57425
L63287 56601
" />
<path d="M63287 59067
L63287 58244
" />
<path d="M63302 57425
L63302 56598
" />
<path d="M63302 59071
L63302 58244
" />
<path d="M63318 57425
L63318 56594
" />
<path d="M63318 59074
L63318 58244
" />
<path d="M63334 57425
L63334 56590
" />
<path d="M63334 59078
L63334 58244
" />
<path d="M63350 57425
L63350 56587
" />
<path d="M63350 59081
L63350 58244
" />
<path d="M63366 57425
L63366 56584
" />
<path d="M63366 59084
L63366 58244
" />
<path d="M63381 57425
L63381 56581
" />
<path d="M63381 59087
L63381 58244
" />
<path d="M63397 57425
L63397 56579
" />
<path d="M63397 59090
L63397 58244
" />
<path d="M63413 57425
L63413 56576
" />
<path d="M63413 59092
L63413 58244
" />
<path d="M63429 57425
L63429 56574
" />
<path d="M63429 59094
L63429 58244
" />
<path d="M63444 57425
L63444 56572
" />
<path d="M63444 59096
L63444 58244
" />
<path d="M63460 57425
L63460 56570
" />
<path d="M63460 59098
L63460 58244
" />
<path d="M63476 57425
L63476 56568
" />
<path d="M63476 59100
L63476 58244
" />
<path d="M63492 57425
L63492 56567
" />
<path d="M63492 59101
L63492 58244
" />
<path d="M63507 57425
L63507 56566
" />
<path d="M63507 59103
L63507 58244
" />
<path d="M63523 59103
L63523 56565
" />
<path d="M63539 59105
L63539 56564
" />
<path d="M63555 59105
L63555 56563
" />
<path d="M63570 59106
L63570 56562
" />
<path d="M63586 59106
L63586 56562
" />
<path d="M63602 59106
L63602 56562
" />
<circle cx="63602.4" cy="57834.6" r="1287.4" /> 
<path d="M59822.8 56590.6 A1016.21 1016.21 0.0 0 0 60109.1 56796.9 " />
<path d="M60983.8 56809.6 A1023.62 1023.62 0.0 0 0 61574.8 55881.9 " />
<path d="M61574.8 55881.9 A1023.62 1023.62 0.0 0 0 60983.8 54954.2 " />
<path d="M60109.1 54966.9 A1016.21 1016.21 0.0 0 0 59822.8 55173.2 " />
<path d="M59822 55173
L59822 56590
" />
<path d="M58370 56996
L58370 56866
" />
<path d="M55795 56996
L58370 56996
" />
<path d="M55795 56866
L55795 56996
" />
<path d="M58370 55917
L58370 56047
" />
<path d="M55795 55917
L58370 55917
" />
<path d="M55795 56047
L55795 55917
" />
<path d="M55795 53948
L55795 54078
" />
<path d="M58370 53948
L55795 53948
" />
<path d="M58370 54078
L58370 53948
" />
<path d="M55795 55027
L55795 54897
" />
<path d="M58370 55027
L55795 55027
" />
<path d="M58370 54897
L58370 55027
" />
<path d="M60681 58295
L60681 58818
" />
<path d="M60157 58295
L60681 58295
" />
<path d="M59657 58295
L59657 59342
" />
<path d="M59657 59342
L58633 59342
" />
<path d="M59657 58295
L58633 58295
" />
<path d="M58633 58295
L58633 59342
" />
<path d="M53988 56980
L53464 56980
" />
<path d="M53988 56456
L53988 56980
" />
<path d="M53988 55956
L52940 55956
" />
<path d="M52940 55956
L52940 53933
" />
<path d="M53988 55956
L53988 53933
" />
<path d="M53988 53933
L52940 53933
" />
<path d="M51822 56980
L51299 56980
" />
<path d="M51822 56456
L51822 56980
" />
<path d="M51822 55956
L50775 55956
" />
<path d="M50775 55956
L50775 53933
" />
<path d="M51822 55956
L51822 53933
" />
<path d="M51822 53933
L50775 53933
" />
<path d="M52547 57704
L53070 57704
" />
<path d="M52547 58228
L52547 57704
" />
<path d="M52547 58728
L53594 58728
" />
<path d="M53594 58728
L53594 59751
" />
<path d="M52547 58728
L52547 59751
" />
<path d="M52547 59751
L53594 59751
" />
<path d="M64608 55954
L64608 55757
" />
<path d="M64706 55856
L64509 55856
" />
<path d="M62578 55387
L62578 55163
" />
<path d="M62594 55479
L62594 55071
" />
<path d="M62609 55542
L62609 55009
" />
<path d="M62625 55592
L62625 54958
" />
<path d="M62641 55635
L62641 54915
" />
<path d="M62657 55673
L62657 54877
" />
<path d="M62672 55707
L62672 54843
" />
<path d="M62688 55739
L62688 54811
" />
<path d="M62704 54866
L62704 54783
" />
<path d="M62704 55768
L62704 55685
" />
<path d="M62720 54866
L62720 54756
" />
<path d="M62720 55794
L62720 55685
" />
<path d="M62735 54866
L62735 54731
" />
<path d="M62735 55820
L62735 55685
" />
<path d="M62751 54866
L62751 54707
" />
<path d="M62751 55843
L62751 55685
" />
<path d="M62767 54866
L62767 54685
" />
<path d="M62767 55866
L62767 55685
" />
<path d="M62783 54866
L62783 54663
" />
<path d="M62783 55887
L62783 55685
" />
<path d="M62798 54866
L62798 54643
" />
<path d="M62798 55907
L62798 55685
" />
<path d="M62814 54866
L62814 54624
" />
<path d="M62814 55926
L62814 55685
" />
<path d="M62830 54866
L62830 54606
" />
<path d="M62830 55944
L62830 55685
" />
<path d="M62846 54866
L62846 54589
" />
<path d="M62846 55961
L62846 55685
" />
<path d="M62861 54866
L62861 54572
" />
<path d="M62861 55978
L62861 55685
" />
<path d="M62877 54866
L62877 54556
" />
<path d="M62877 55994
L62877 55685
" />
<path d="M62893 54866
L62893 54541
" />
<path d="M62893 56009
L62893 55685
" />
<path d="M62909 54866
L62909 54527
" />
<path d="M62909 56024
L62909 55685
" />
<path d="M62924 54866
L62924 54512
" />
<path d="M62924 56038
L62924 55685
" />
<path d="M62940 54866
L62940 54499
" />
<path d="M62940 56051
L62940 55685
" />
<path d="M62956 54866
L62956 54486
" />
<path d="M62956 56064
L62956 55685
" />
<path d="M62972 54866
L62972 54474
" />
<path d="M62972 56076
L62972 55685
" />
<path d="M62987 54866
L62987 54462
" />
<path d="M62987 56088
L62987 55685
" />
<path d="M63003 54866
L63003 54450
" />
<path d="M63003 56100
L63003 55685
" />
<path d="M63019 54866
L63019 54440
" />
<path d="M63019 56111
L63019 55685
" />
<path d="M63035 54866
L63035 54429
" />
<path d="M63035 56121
L63035 55685
" />
<path d="M63050 54866
L63050 54419
" />
<path d="M63050 56131
L63050 55685
" />
<path d="M63066 54866
L63066 54409
" />
<path d="M63066 56141
L63066 55685
" />
<path d="M63082 54866
L63082 54400
" />
<path d="M63082 56151
L63082 55685
" />
<path d="M63098 54866
L63098 54390
" />
<path d="M63098 56160
L63098 55685
" />
<path d="M63113 54866
L63113 54382
" />
<path d="M63113 56168
L63113 55685
" />
<path d="M63129 54866
L63129 54374
" />
<path d="M63129 56177
L63129 55685
" />
<path d="M63145 54866
L63145 54366
" />
<path d="M63145 56185
L63145 55685
" />
<path d="M63161 54866
L63161 54358
" />
<path d="M63161 56192
L63161 55685
" />
<path d="M63176 54866
L63176 54351
" />
<path d="M63176 56200
L63176 55685
" />
<path d="M63192 54866
L63192 54344
" />
<path d="M63192 56206
L63192 55685
" />
<path d="M63208 54866
L63208 54337
" />
<path d="M63208 56213
L63208 55685
" />
<path d="M63224 54866
L63224 54331
" />
<path d="M63224 56219
L63224 55685
" />
<path d="M63239 54866
L63239 54325
" />
<path d="M63239 56225
L63239 55685
" />
<path d="M63255 54866
L63255 54319
" />
<path d="M63255 56231
L63255 55685
" />
<path d="M63271 54866
L63271 54314
" />
<path d="M63271 56237
L63271 55685
" />
<path d="M63287 54866
L63287 54309
" />
<path d="M63287 56242
L63287 55685
" />
<path d="M63302 54866
L63302 54303
" />
<path d="M63302 56247
L63302 55685
" />
<path d="M63318 54866
L63318 54299
" />
<path d="M63318 56251
L63318 55685
" />
<path d="M63334 54866
L63334 54294
" />
<path d="M63334 56256
L63334 55685
" />
<path d="M63350 54866
L63350 54290
" />
<path d="M63350 56260
L63350 55685
" />
<path d="M63366 54866
L63366 54287
" />
<path d="M63366 56264
L63366 55685
" />
<path d="M63381 54866
L63381 54283
" />
<path d="M63381 56267
L63381 55685
" />
<path d="M63397 54866
L63397 54280
" />
<path d="M63397 56270
L63397 55685
" />
<path d="M63413 54866
L63413 54277
" />
<path d="M63413 56274
L63413 55685
" />
<path d="M63429 54866
L63429 54274
" />
<path d="M63429 56276
L63429 55685
" />
<path d="M63444 54866
L63444 54271
" />
<path d="M63444 56279
L63444 55685
" />
<path d="M63460 54866
L63460 54269
" />
<path d="M63460 56281
L63460 55685
" />
<path d="M63476 54866
L63476 54267
" />
<path d="M63476 56283
L63476 55685
" />
<path d="M63492 54866
L63492 54265
" />
<path d="M63492 56285
L63492 55685
" />
<path d="M63507 54866
L63507 54264
" />
<path d="M63507 56287
L63507 55685
" />
<path d="M63523 56288
L63523 54262
" />
<path d="M63539 56289
L63539 54261
" />
<path d="M63555 56290
L63555 54260
" />
<path d="M63570 56290
L63570 54260
" />
<path d="M63586 56291
L63586 54259
" />
<path d="M63602 56291
L63602 54259
" />
<circle cx="63602.4" cy="55275.6" r="1031.5" /> 
</g>
<g style="fill:#000000; fill-opacity:0.0; 
stroke:#000000; stroke-width:59.0551; stroke-opacity:1; 
stroke-linecap:round; stroke-linejoin:round;">
<text x="50708.7" y="52322.8"
textLength="1358.46" font-size="524.934" lengthAdjust="spacingAndGlyphs"
text-anchor="middle" opacity="0">BIT1</text>
<path d="M50305 52097
L50361 52116
L50380 52135
L50399 52172
L50399 52229
L50380 52266
L50361 52285
L50324 52304
L50174 52304
L50174 51910
L50305 51910
L50343 51929
L50361 51947
L50380 51985
L50380 52022
L50361 52060
L50343 52079
L50305 52097
L50174 52097
" />
<path d="M50568 52304
L50568 51910
" />
<path d="M50699 51910
L50924 51910
" />
<path d="M50811 52304
L50811 51910
" />
<path d="M51261 52304
L51036 52304
" />
<path d="M51149 52304
L51149 51910
L51111 51966
L51074 52004
L51036 52022
" />
<text x="68425.2" y="49370.1"
textLength="2476.47" font-size="1049.87" lengthAdjust="spacingAndGlyphs"
text-anchor="middle" opacity="0">GND</text>
<path d="M67825 48582
L67750 48545
L67637 48545
L67525 48582
L67450 48657
L67412 48732
L67375 48882
L67375 48995
L67412 49145
L67450 49220
L67525 49295
L67637 49332
L67712 49332
L67825 49295
L67862 49257
L67862 48995
L67712 48995
" />
<path d="M68200 49332
L68200 48545
L68650 49332
L68650 48545
" />
<path d="M69025 49332
L69025 48545
L69212 48545
L69325 48582
L69400 48657
L69437 48732
L69475 48882
L69475 48995
L69437 49145
L69400 49220
L69325 49295
L69212 49332
L69025 49332
" />
<text x="64488.2" y="49370.1"
textLength="1501.59" font-size="1049.87" lengthAdjust="spacingAndGlyphs"
text-anchor="middle" opacity="0">3V</text>
<path d="M63888 48545
L64375 48545
L64113 48845
L64225 48845
L64300 48882
L64338 48920
L64375 48995
L64375 49182
L64338 49257
L64300 49295
L64225 49332
L64000 49332
L63925 49295
L63888 49257
" />
<path d="M64600 48545
L64863 49332
L65125 48545
" />
<text x="59960.6" y="49370.1"
textLength="2701.44" font-size="1049.87" lengthAdjust="spacingAndGlyphs"
text-anchor="middle" opacity="0">Pin2</text>
<path d="M58835 49332
L58835 48545
L59135 48545
L59210 48582
L59248 48620
L59285 48695
L59285 48807
L59248 48882
L59210 48920
L59135 48957
L58835 48957
" />
<path d="M59623 49332
L59623 48807
" />
<path d="M59623 48545
L59585 48582
L59623 48620
L59660 48582
L59623 48545
L59623 48620
" />
<path d="M59998 48807
L59998 49332
" />
<path d="M59998 48882
L60035 48845
L60110 48807
L60223 48807
L60298 48845
L60335 48920
L60335 49332
" />
<path d="M60673 48620
L60710 48582
L60785 48545
L60973 48545
L61047 48582
L61085 48620
L61122 48695
L61122 48770
L61085 48882
L60635 49332
L61122 49332
" />
<text x="55236.2" y="49370.1"
textLength="2701.44" font-size="1049.87" lengthAdjust="spacingAndGlyphs"
text-anchor="middle" opacity="0">Pin1</text>
<path d="M54111 49332
L54111 48545
L54411 48545
L54486 48582
L54523 48620
L54561 48695
L54561 48807
L54523 48882
L54486 48920
L54411 48957
L54111 48957
" />
<path d="M54898 49332
L54898 48807
" />
<path d="M54898 48545
L54861 48582
L54898 48620
L54936 48582
L54898 48545
L54898 48620
" />
<path d="M55273 48807
L55273 49332
" />
<path d="M55273 48882
L55311 48845
L55386 48807
L55498 48807
L55573 48845
L55611 48920
L55611 49332
" />
<path d="M56398 49332
L55948 49332
" />
<path d="M56173 49332
L56173 48545
L56098 48657
L56023 48732
L55948 48770
" />
<text x="51496.1" y="49370.1"
textLength="2701.44" font-size="1049.87" lengthAdjust="spacingAndGlyphs"
text-anchor="middle" opacity="0">Pin0</text>
<path d="M50371 49332
L50371 48545
L50671 48545
L50746 48582
L50783 48620
L50821 48695
L50821 48807
L50783 48882
L50746 48920
L50671 48957
L50371 48957
" />
<path d="M51158 49332
L51158 48807
" />
<path d="M51158 48545
L51121 48582
L51158 48620
L51196 48582
L51158 48545
L51158 48620
" />
<path d="M51533 48807
L51533 49332
" />
<path d="M51533 48882
L51571 48845
L51646 48807
L51758 48807
L51833 48845
L51871 48920
L51871 49332
" />
<path d="M52395 48545
L52470 48545
L52545 48582
L52583 48620
L52620 48695
L52658 48845
L52658 49032
L52620 49182
L52583 49257
L52545 49295
L52470 49332
L52395 49332
L52320 49295
L52283 49257
L52245 49182
L52208 49032
L52208 48845
L52245 48695
L52283 48620
L52320 48582
L52395 48545
" />
<text x="65472.4" y="54291.3"
textLength="864.173" font-size="524.934" lengthAdjust="spacingAndGlyphs"
text-anchor="middle" opacity="0">U1</text>
<path d="M65172 53878
L65172 54197
L65191 54235
L65209 54253
L65247 54272
L65322 54272
L65359 54253
L65378 54235
L65397 54197
L65397 53878
" />
<path d="M65791 54272
L65566 54272
" />
<path d="M65678 54272
L65678 53878
L65641 53935
L65603 53972
L65566 53991
" />
<text x="61929.1" y="57244.1"
textLength="845.426" font-size="524.934" lengthAdjust="spacingAndGlyphs"
text-anchor="middle" opacity="0">C2</text>
<path d="M61863 57187
L61844 57206
L61788 57225
L61751 57225
L61694 57206
L61657 57169
L61638 57131
L61619 57056
L61619 57000
L61638 56925
L61657 56887
L61694 56850
L61751 56831
L61788 56831
L61844 56850
L61863 56869
" />
<path d="M62013 56869
L62032 56850
L62069 56831
L62163 56831
L62200 56850
L62219 56869
L62238 56906
L62238 56944
L62219 57000
L61994 57225
L62238 57225
" />
<g transform="rotate(-90 59370.1 55078.7)">
<text x="59370.1" y="55275.6"
textLength="864.173" font-size="524.934" lengthAdjust="spacingAndGlyphs"
text-anchor="middle" opacity="0">Q1</text>
</g>
<path d="M59585 55116
L59566 55153
L59529 55191
L59473 55247
L59454 55284
L59454 55322
" />
<path d="M59548 55303
L59529 55341
L59491 55378
L59416 55397
L59285 55397
L59210 55378
L59173 55341
L59154 55303
L59154 55228
L59173 55191
L59210 55153
L59285 55134
L59416 55134
L59491 55153
L59529 55191
L59548 55228
L59548 55303
" />
<path d="M59548 54760
L59548 54985
" />
<path d="M59548 54872
L59154 54872
L59210 54910
L59248 54947
L59266 54985
" />
<text x="55826.8" y="55866.1"
textLength="845.426" font-size="524.934" lengthAdjust="spacingAndGlyphs"
text-anchor="middle" opacity="0">R2</text>
<path d="M55761 55847
L55629 55659
" />
<path d="M55536 55847
L55536 55453
L55686 55453
L55723 55472
L55742 55491
L55761 55528
L55761 55584
L55742 55622
L55723 55641
L55686 55659
L55536 55659
" />
<path d="M55911 55491
L55929 55472
L55967 55453
L56061 55453
L56098 55472
L56117 55491
L56136 55528
L56136 55566
L56117 55622
L55892 55847
L56136 55847
" />
<text x="55826.8" y="53897.6"
textLength="845.426" font-size="524.934" lengthAdjust="spacingAndGlyphs"
text-anchor="middle" opacity="0">R1</text>
<path d="M55761 53878
L55629 53691
" />
<path d="M55536 53878
L55536 53485
L55686 53485
L55723 53503
L55742 53522
L55761 53560
L55761 53616
L55742 53653
L55723 53672
L55686 53691
L55536 53691
" />
<path d="M56136 53878
L55911 53878
" />
<path d="M56023 53878
L56023 53485
L55986 53541
L55948 53578
L55911 53597
" />
<text x="61141.7" y="59015.7"
textLength="751.687" font-size="524.934" lengthAdjust="spacingAndGlyphs"
text-anchor="middle" opacity="0">J4</text>
<path d="M61010 58603
L61010 58884
L60991 58940
L60954 58978
L60898 58997
L60860 58997
" />
<path d="M61366 58734
L61366 58997
" />
<path d="M61272 58584
L61179 58865
L61422 58865
" />
<text x="53858.3" y="53700.8"
textLength="751.687" font-size="524.934" lengthAdjust="spacingAndGlyphs"
text-anchor="middle" opacity="0">J3</text>
<path d="M53727 53288
L53727 53569
L53708 53625
L53670 53663
L53614 53682
L53577 53682
" />
<path d="M53877 53288
L54120 53288
L53989 53438
L54045 53438
L54083 53457
L54101 53475
L54120 53513
L54120 53607
L54101 53644
L54083 53663
L54045 53682
L53933 53682
L53895 53663
L53877 53644
" />
<text x="51496.1" y="53700.8"
textLength="751.687" font-size="524.934" lengthAdjust="spacingAndGlyphs"
text-anchor="middle" opacity="0">J2</text>
<path d="M51364 53288
L51364 53569
L51346 53625
L51308 53663
L51252 53682
L51214 53682
" />
<path d="M51533 53325
L51552 53307
L51589 53288
L51683 53288
L51721 53307
L51739 53325
L51758 53363
L51758 53400
L51739 53457
L51514 53682
L51758 53682
" />
<text x="53464.6" y="57637.8"
textLength="751.687" font-size="524.934" lengthAdjust="spacingAndGlyphs"
text-anchor="middle" opacity="0">J1</text>
<path d="M53333 57225
L53333 57506
L53314 57562
L53277 57600
L53220 57619
L53183 57619
" />
<path d="M53727 57619
L53502 57619
" />
<path d="M53614 57619
L53614 57225
L53577 57281
L53539 57319
L53502 57337
" />
<text x="62322.8" y="54488.2"
textLength="845.426" font-size="524.934" lengthAdjust="spacingAndGlyphs"
text-anchor="middle" opacity="0">C1</text>
<path d="M62257 54431
L62238 54450
L62182 54469
L62144 54469
L62088 54450
L62050 54413
L62032 54375
L62013 54300
L62013 54244
L62032 54169
L62050 54131
L62088 54094
L62144 54075
L62182 54075
L62238 54094
L62257 54113
" />
<path d="M62632 54469
L62407 54469
" />
<path d="M62519 54469
L62519 54075
L62482 54131
L62444 54169
L62407 54188
" />
<g >
</g>
</g> 
</svg>
