M48
; DRILL file {KiCad 5.1.5-1.fc31} date Wed 29 Apr 2020 23:43:46 CEST
; FORMAT={-:-/ absolute / metric / decimal}
; #@! TF.CreationDate,2020-04-29T23:43:46+02:00
; #@! TF.GenerationSoftware,Kicad,Pcbnew,5.1.5-1.fc31
FMAT,2
METRIC
T1C0.800
T2C0.900
T3C1.000
T4C1.100
T5C3.000
%
G90
G05
T1
X-2.5Y-13.25
X4.25Y-18.0
X-14.12Y-11.0
X-6.5Y-11.0
X5.5Y-7.0
X5.5Y-14.62
X8.5Y-17.0
X11.0Y-17.0
X9.25Y-9.75
X11.75Y-9.75
X-13.33Y-16.25
X-10.79Y-16.25
X-8.25Y-16.25
X-14.12Y-8.5
X-6.5Y-8.5
T2
X-1.5Y-9.0
X1.04Y-9.0
T3
X-1.29Y-19.5
X1.25Y-19.5
X-21.54Y-8.17
X-21.54Y-10.71
X-21.54Y-13.25
X-19.0Y-8.17
X-19.0Y-10.71
X-19.0Y-13.25
X-21.54Y-18.0
X-19.0Y-18.0
T4
X16.42Y-8.0
X18.96Y-8.0
X21.5Y-8.0
T5
X-21.5Y0.0
X-11.5Y0.0
X0.0Y0.0
X11.5Y0.0
X21.5Y0.0
T0
M30
