M48
; DRILL file {KiCad 5.1.5-1.fc31} date Tue 28 Apr 2020 08:45:31 CEST
; FORMAT={-:-/ absolute / metric / decimal}
; #@! TF.CreationDate,2020-04-28T08:45:31+02:00
; #@! TF.GenerationSoftware,Kicad,Pcbnew,5.1.5-1.fc31
FMAT,2
METRIC
T1C0.800
T2C1.000
T3C1.100
T4C3.000
%
G90
G05
T1
X-3.5Y-13.5
X1.5Y-9.5
X-11.12Y-8.5
X-3.5Y-8.5
X8.0Y-10.5
X10.5Y-10.5
X-11.12Y-13.5
X8.0Y-17.0
X10.5Y-17.0
X1.5Y-12.04
X1.5Y-14.58
T2
X-17.5Y-18.0
X-17.5Y-20.54
X-2.04Y-19.5
X0.5Y-19.5
X-22.0Y-8.42
X-22.0Y-10.96
X-22.0Y-13.5
X-16.5Y-8.42
X-16.5Y-10.96
X-16.5Y-13.5
T3
X17.92Y-8.0
X20.46Y-8.0
X23.0Y-8.0
T4
X-21.5Y0.0
X-11.5Y0.0
X0.0Y0.0
X11.5Y0.0
X21.5Y0.0
T0
M30
