G04 #@! TF.GenerationSoftware,KiCad,Pcbnew,5.1.5-1.fc31*
G04 #@! TF.CreationDate,2020-04-29T23:42:45+02:00*
G04 #@! TF.ProjectId,catbit,63617462-6974-42e6-9b69-6361645f7063,rev?*
G04 #@! TF.SameCoordinates,PX913e9e0PY7be1de0*
G04 #@! TF.FileFunction,Copper,L2,Bot*
G04 #@! TF.FilePolarity,Positive*
%FSLAX46Y46*%
G04 Gerber Fmt 4.6, Leading zero omitted, Abs format (unit mm)*
G04 Created by KiCad (PCBNEW 5.1.5-1.fc31) date 2020-04-29 23:42:45*
%MOMM*%
%LPD*%
G04 APERTURE LIST*
%ADD10O,1.600000X3.000000*%
%ADD11O,3.000000X1.700000*%
%ADD12R,3.000000X1.700000*%
%ADD13O,2.800000X1.800000*%
%ADD14R,2.800000X1.800000*%
%ADD15C,8.000000*%
%ADD16O,1.905000X3.000000*%
%ADD17R,1.905000X3.000000*%
%ADD18R,1.600000X3.000000*%
%ADD19R,1.500000X3.000000*%
%ADD20O,1.500000X3.000000*%
%ADD21O,3.000000X1.600000*%
%ADD22O,1.700000X3.000000*%
%ADD23R,1.700000X3.000000*%
%ADD24C,3.000000*%
%ADD25C,1.000000*%
%ADD26C,0.254000*%
G04 APERTURE END LIST*
D10*
X5500000Y-14620000D03*
X5500000Y-7000000D03*
D11*
X-22140000Y-8170000D03*
X-18400000Y-8170000D03*
X-20940000Y-10710000D03*
X-18400000Y-10710000D03*
X-20940000Y-13250000D03*
D12*
X-18400000Y-13250000D03*
D13*
X1640000Y-9000000D03*
D14*
X-2000000Y-9000000D03*
D15*
X21500000Y0D03*
X11500000Y0D03*
X-21500000Y0D03*
X-11500000Y0D03*
X0Y0D03*
D16*
X16420000Y-8000000D03*
X18960000Y-8000000D03*
D17*
X21500000Y-8000000D03*
D10*
X8500000Y-17000000D03*
D18*
X11000000Y-17000000D03*
D19*
X-8250000Y-16250000D03*
D20*
X-13330000Y-16250000D03*
X-10790000Y-16250000D03*
D21*
X-6500000Y-11000000D03*
X-14120000Y-11000000D03*
X-14120000Y-8500000D03*
X-6500000Y-8500000D03*
D22*
X-1290000Y-19500000D03*
D23*
X1250000Y-19500000D03*
D22*
X-21540000Y-18000000D03*
D23*
X-19000000Y-18000000D03*
D10*
X9250000Y-9750000D03*
D18*
X11750000Y-9750000D03*
D24*
X4250000Y-18000000D03*
X-2500000Y-13250000D03*
D25*
X-21540000Y-13250000D02*
X-19000000Y-13250000D01*
X13500000Y-8000000D02*
X11750000Y-9750000D01*
X16420000Y-8000000D02*
X13500000Y-8000000D01*
X7300000Y-14620000D02*
X5500000Y-14620000D01*
X7625598Y-14620000D02*
X7300000Y-14620000D01*
X11750000Y-10495598D02*
X7625598Y-14620000D01*
X11750000Y-9750000D02*
X11750000Y-10495598D01*
X-1290000Y-17000000D02*
X-1290000Y-19500000D01*
X1090000Y-14620000D02*
X-1290000Y-17000000D01*
X5500000Y-14620000D02*
X1090000Y-14620000D01*
X-19000000Y-10710000D02*
X-21540000Y-10710000D01*
X-23440010Y-17949990D02*
X-23390000Y-18000000D01*
X-23440010Y-12483701D02*
X-23440010Y-17949990D01*
X-21666309Y-10710000D02*
X-23440010Y-12483701D01*
X-23390000Y-18000000D02*
X-21540000Y-18000000D01*
X-21540000Y-10710000D02*
X-21666309Y-10710000D01*
X-3140000Y-19500000D02*
X-1290000Y-19500000D01*
X-4140001Y-20500001D02*
X-3140000Y-19500000D01*
X-20650001Y-20500001D02*
X-4140001Y-20500001D01*
X-21540000Y-19610002D02*
X-20650001Y-20500001D01*
X-21540000Y-18000000D02*
X-21540000Y-19610002D01*
X18960000Y-10840000D02*
X18960000Y-10500000D01*
X12800000Y-17000000D02*
X18960000Y-10840000D01*
X18960000Y-10500000D02*
X18960000Y-8000000D01*
X11000000Y-17000000D02*
X12800000Y-17000000D01*
X15499999Y-3999999D02*
X11500000Y0D01*
X15728765Y-3999999D02*
X15499999Y-3999999D01*
X18960000Y-7231234D02*
X15728765Y-3999999D01*
X18960000Y-8000000D02*
X18960000Y-7231234D01*
X-19000000Y-7500000D02*
X-19000000Y-8170000D01*
X-11500000Y0D02*
X-19000000Y-7500000D01*
X-15080000Y-18000000D02*
X-13330000Y-16250000D01*
X-19000000Y-18000000D02*
X-15080000Y-18000000D01*
X-6500000Y-8500000D02*
X-6500000Y-11000000D01*
X-10790000Y-12790000D02*
X-10790000Y-13750000D01*
X-10790000Y-13750000D02*
X-10790000Y-16250000D01*
X-9000000Y-11000000D02*
X-10790000Y-12790000D01*
X-6500000Y-11000000D02*
X-9000000Y-11000000D01*
X-21500000Y-8130000D02*
X-21540000Y-8170000D01*
X-21500000Y0D02*
X-21500000Y-8130000D01*
X-12420001Y-5000001D02*
X-9000001Y-5000001D01*
X-14120000Y-8500000D02*
X-14120000Y-6700000D01*
X-14120000Y-6700000D02*
X-12420001Y-5000001D01*
X-7999999Y-3999999D02*
X-9000001Y-5000001D01*
X-3999999Y-3999999D02*
X-7999999Y-3999999D01*
X0Y0D02*
X-3999999Y-3999999D01*
X3040000Y-7000000D02*
X1040000Y-9000000D01*
X5500000Y-7000000D02*
X3040000Y-7000000D01*
D26*
G36*
X24840001Y2812499D02*
G01*
X22027502Y0D01*
X24840001Y-2812499D01*
X24840000Y-21340000D01*
X2638284Y-21340000D01*
X2689502Y-21244180D01*
X2725812Y-21124482D01*
X2738072Y-21000000D01*
X2735000Y-20031750D01*
X2576250Y-19873000D01*
X1623000Y-19873000D01*
X1623000Y-19893000D01*
X877000Y-19893000D01*
X877000Y-19873000D01*
X857000Y-19873000D01*
X857000Y-19127000D01*
X877000Y-19127000D01*
X877000Y-17523750D01*
X1623000Y-17523750D01*
X1623000Y-19127000D01*
X2576250Y-19127000D01*
X2735000Y-18968250D01*
X2738072Y-18000000D01*
X2725812Y-17875518D01*
X2689502Y-17755820D01*
X2630537Y-17645506D01*
X2599806Y-17608060D01*
X6990154Y-17608060D01*
X7001229Y-17904383D01*
X7069901Y-18192852D01*
X7193531Y-18462380D01*
X7367367Y-18702611D01*
X7584730Y-18904312D01*
X7914825Y-19010265D01*
X8127000Y-18920527D01*
X8127000Y-17373000D01*
X7181875Y-17373000D01*
X6990154Y-17608060D01*
X2599806Y-17608060D01*
X2551185Y-17548815D01*
X2454494Y-17469463D01*
X2344180Y-17410498D01*
X2224482Y-17374188D01*
X2100000Y-17361928D01*
X1781750Y-17365000D01*
X1623000Y-17523750D01*
X877000Y-17523750D01*
X718250Y-17365000D01*
X400000Y-17361928D01*
X275518Y-17374188D01*
X155820Y-17410498D01*
X45506Y-17469463D01*
X-51185Y-17548815D01*
X-130537Y-17645506D01*
X-155000Y-17691272D01*
X-155000Y-17470131D01*
X1560132Y-15755000D01*
X4132385Y-15755000D01*
X4167818Y-15871807D01*
X4301068Y-16121100D01*
X4480392Y-16339607D01*
X4698899Y-16518932D01*
X4948192Y-16652182D01*
X5218691Y-16734236D01*
X5500000Y-16761943D01*
X5781308Y-16734236D01*
X6051807Y-16652182D01*
X6301100Y-16518932D01*
X6519607Y-16339608D01*
X6698932Y-16121101D01*
X6832182Y-15871808D01*
X6867615Y-15755000D01*
X7093821Y-15755000D01*
X7069901Y-15807148D01*
X7001229Y-16095617D01*
X6990154Y-16391940D01*
X7181875Y-16627000D01*
X8127000Y-16627000D01*
X8127000Y-16607000D01*
X8873000Y-16607000D01*
X8873000Y-16627000D01*
X8893000Y-16627000D01*
X8893000Y-17373000D01*
X8873000Y-17373000D01*
X8873000Y-18920527D01*
X9085175Y-19010265D01*
X9415270Y-18904312D01*
X9605520Y-18727770D01*
X9610498Y-18744180D01*
X9669463Y-18854494D01*
X9748815Y-18951185D01*
X9845506Y-19030537D01*
X9955820Y-19089502D01*
X10075518Y-19125812D01*
X10200000Y-19138072D01*
X11800000Y-19138072D01*
X11924482Y-19125812D01*
X12044180Y-19089502D01*
X12154494Y-19030537D01*
X12251185Y-18951185D01*
X12330537Y-18854494D01*
X12389502Y-18744180D01*
X12425812Y-18624482D01*
X12438072Y-18500000D01*
X12438072Y-18135000D01*
X12744249Y-18135000D01*
X12800000Y-18140491D01*
X12855751Y-18135000D01*
X12855752Y-18135000D01*
X13022499Y-18118577D01*
X13236447Y-18053676D01*
X13433623Y-17948284D01*
X13606449Y-17806449D01*
X13641996Y-17763135D01*
X19723146Y-11681987D01*
X19766449Y-11646449D01*
X19816736Y-11585175D01*
X19908284Y-11473623D01*
X20013676Y-11276447D01*
X20078577Y-11062499D01*
X20100491Y-10840000D01*
X20095000Y-10784248D01*
X20095000Y-9949583D01*
X20096315Y-9951185D01*
X20193006Y-10030537D01*
X20303320Y-10089502D01*
X20423018Y-10125812D01*
X20547500Y-10138072D01*
X20968250Y-10135000D01*
X21127000Y-9976250D01*
X21127000Y-8373000D01*
X21873000Y-8373000D01*
X21873000Y-9976250D01*
X22031750Y-10135000D01*
X22452500Y-10138072D01*
X22576982Y-10125812D01*
X22696680Y-10089502D01*
X22806994Y-10030537D01*
X22903685Y-9951185D01*
X22983037Y-9854494D01*
X23042002Y-9744180D01*
X23078312Y-9624482D01*
X23090572Y-9500000D01*
X23087500Y-8531750D01*
X22928750Y-8373000D01*
X21873000Y-8373000D01*
X21127000Y-8373000D01*
X21107000Y-8373000D01*
X21107000Y-7627000D01*
X21127000Y-7627000D01*
X21127000Y-6023750D01*
X21873000Y-6023750D01*
X21873000Y-7627000D01*
X22928750Y-7627000D01*
X23087500Y-7468250D01*
X23090572Y-6500000D01*
X23078312Y-6375518D01*
X23042002Y-6255820D01*
X22983037Y-6145506D01*
X22903685Y-6048815D01*
X22806994Y-5969463D01*
X22696680Y-5910498D01*
X22576982Y-5874188D01*
X22452500Y-5861928D01*
X22031750Y-5865000D01*
X21873000Y-6023750D01*
X21127000Y-6023750D01*
X20968250Y-5865000D01*
X20547500Y-5861928D01*
X20423018Y-5874188D01*
X20303320Y-5910498D01*
X20193006Y-5969463D01*
X20096315Y-6048815D01*
X20016963Y-6145506D01*
X19972095Y-6229446D01*
X19846235Y-6126155D01*
X19570449Y-5978745D01*
X19271204Y-5887970D01*
X19216478Y-5882580D01*
X16767741Y-3433843D01*
X18593659Y-3433843D01*
X19072990Y-3975079D01*
X19895124Y-4372185D01*
X20778933Y-4601270D01*
X21690451Y-4653531D01*
X22594651Y-4526960D01*
X23456784Y-4226420D01*
X23927010Y-3975079D01*
X24406341Y-3433843D01*
X21500000Y-527502D01*
X18593659Y-3433843D01*
X16767741Y-3433843D01*
X16570761Y-3236864D01*
X16535214Y-3193550D01*
X16362388Y-3051715D01*
X16165212Y-2946323D01*
X16001921Y-2896789D01*
X15484575Y-2379443D01*
X15607484Y-2195496D01*
X15956880Y-1351980D01*
X16135000Y-456508D01*
X16135000Y-190451D01*
X16846469Y-190451D01*
X16973040Y-1094651D01*
X17273580Y-1956784D01*
X17524921Y-2427010D01*
X18066157Y-2906341D01*
X20972498Y0D01*
X18066157Y2906341D01*
X17524921Y2427010D01*
X17127815Y1604876D01*
X16898730Y721067D01*
X16846469Y-190451D01*
X16135000Y-190451D01*
X16135000Y456508D01*
X15956880Y1351980D01*
X15607484Y2195496D01*
X15100240Y2954640D01*
X14621037Y3433843D01*
X18593659Y3433843D01*
X21500000Y527502D01*
X24406341Y3433843D01*
X23927010Y3975079D01*
X23104876Y4372185D01*
X22221067Y4601270D01*
X21309549Y4653531D01*
X20405349Y4526960D01*
X19543216Y4226420D01*
X19072990Y3975079D01*
X18593659Y3433843D01*
X14621037Y3433843D01*
X14454640Y3600240D01*
X13695496Y4107484D01*
X12851980Y4456880D01*
X11956508Y4635000D01*
X11043492Y4635000D01*
X10148020Y4456880D01*
X9304504Y4107484D01*
X8545360Y3600240D01*
X7899760Y2954640D01*
X7392516Y2195496D01*
X7043120Y1351980D01*
X6865000Y456508D01*
X6865000Y-456508D01*
X7043120Y-1351980D01*
X7392516Y-2195496D01*
X7899760Y-2954640D01*
X8545360Y-3600240D01*
X9304504Y-4107484D01*
X10148020Y-4456880D01*
X11043492Y-4635000D01*
X11956508Y-4635000D01*
X12851980Y-4456880D01*
X13695496Y-4107484D01*
X13879443Y-3984575D01*
X14658008Y-4763140D01*
X14693550Y-4806448D01*
X14756436Y-4858057D01*
X14866376Y-4948283D01*
X15063552Y-5053675D01*
X15226845Y-5103210D01*
X16034226Y-5910591D01*
X15809552Y-5978745D01*
X15533766Y-6126155D01*
X15292038Y-6324537D01*
X15093656Y-6566265D01*
X14946245Y-6842051D01*
X14939283Y-6865000D01*
X13555752Y-6865000D01*
X13500000Y-6859509D01*
X13277501Y-6881423D01*
X13063553Y-6946324D01*
X12866377Y-7051716D01*
X12736856Y-7158011D01*
X12736854Y-7158013D01*
X12693551Y-7193551D01*
X12658013Y-7236854D01*
X12282939Y-7611928D01*
X10950000Y-7611928D01*
X10825518Y-7624188D01*
X10705820Y-7660498D01*
X10595506Y-7719463D01*
X10498815Y-7798815D01*
X10419463Y-7895506D01*
X10360498Y-8005820D01*
X10355520Y-8022230D01*
X10165270Y-7845688D01*
X9835175Y-7739735D01*
X9623000Y-7829473D01*
X9623000Y-9377000D01*
X9643000Y-9377000D01*
X9643000Y-10123000D01*
X9623000Y-10123000D01*
X9623000Y-10143000D01*
X8877000Y-10143000D01*
X8877000Y-10123000D01*
X7931875Y-10123000D01*
X7740154Y-10358060D01*
X7751229Y-10654383D01*
X7819901Y-10942852D01*
X7943531Y-11212380D01*
X8117367Y-11452611D01*
X8334730Y-11654312D01*
X8664825Y-11760265D01*
X8876998Y-11670528D01*
X8876998Y-11763468D01*
X7155467Y-13485000D01*
X6867615Y-13485000D01*
X6832182Y-13368192D01*
X6698932Y-13118899D01*
X6519608Y-12900392D01*
X6301101Y-12721068D01*
X6051808Y-12587818D01*
X5781309Y-12505764D01*
X5500000Y-12478057D01*
X5218692Y-12505764D01*
X4948193Y-12587818D01*
X4698900Y-12721068D01*
X4480393Y-12900392D01*
X4301069Y-13118899D01*
X4167819Y-13368192D01*
X4132386Y-13485000D01*
X1145741Y-13485000D01*
X1089999Y-13479510D01*
X1034257Y-13485000D01*
X1034248Y-13485000D01*
X867501Y-13501423D01*
X653553Y-13566324D01*
X456377Y-13671716D01*
X283551Y-13813551D01*
X248011Y-13856857D01*
X-2053135Y-16158004D01*
X-2096449Y-16193551D01*
X-2238284Y-16366377D01*
X-2309706Y-16500000D01*
X-2343676Y-16563554D01*
X-2408577Y-16777502D01*
X-2430491Y-17000000D01*
X-2425000Y-17055752D01*
X-2425000Y-17892184D01*
X-2530705Y-18020986D01*
X-2668599Y-18278966D01*
X-2694697Y-18365000D01*
X-3084249Y-18365000D01*
X-3140000Y-18359509D01*
X-3195752Y-18365000D01*
X-3362499Y-18381423D01*
X-3576447Y-18446324D01*
X-3773623Y-18551716D01*
X-3946449Y-18693551D01*
X-3981992Y-18736860D01*
X-4610132Y-19365001D01*
X-17511928Y-19365001D01*
X-17511928Y-19135000D01*
X-15135751Y-19135000D01*
X-15080000Y-19140491D01*
X-15024249Y-19135000D01*
X-15024248Y-19135000D01*
X-14857501Y-19118577D01*
X-14643553Y-19053676D01*
X-14446377Y-18948284D01*
X-14273551Y-18806449D01*
X-14238005Y-18763136D01*
X-13784360Y-18309492D01*
X-13601507Y-18364960D01*
X-13330000Y-18391701D01*
X-13058494Y-18364960D01*
X-12797420Y-18285764D01*
X-12556813Y-18157157D01*
X-12345920Y-17984081D01*
X-12172843Y-17773188D01*
X-12060000Y-17562073D01*
X-11947157Y-17773187D01*
X-11774081Y-17984080D01*
X-11563188Y-18157157D01*
X-11322581Y-18285764D01*
X-11061507Y-18364960D01*
X-10790000Y-18391701D01*
X-10518494Y-18364960D01*
X-10257420Y-18285764D01*
X-10016813Y-18157157D01*
X-9805920Y-17984081D01*
X-9635473Y-17776392D01*
X-9625812Y-17874482D01*
X-9589502Y-17994180D01*
X-9530537Y-18104494D01*
X-9451185Y-18201185D01*
X-9354494Y-18280537D01*
X-9244180Y-18339502D01*
X-9124482Y-18375812D01*
X-9000000Y-18388072D01*
X-8781750Y-18385000D01*
X-8623000Y-18226250D01*
X-8623000Y-16623000D01*
X-7877000Y-16623000D01*
X-7877000Y-18226250D01*
X-7718250Y-18385000D01*
X-7500000Y-18388072D01*
X-7375518Y-18375812D01*
X-7255820Y-18339502D01*
X-7145506Y-18280537D01*
X-7048815Y-18201185D01*
X-6969463Y-18104494D01*
X-6910498Y-17994180D01*
X-6874188Y-17874482D01*
X-6861928Y-17750000D01*
X-6865000Y-16781750D01*
X-7023750Y-16623000D01*
X-7877000Y-16623000D01*
X-8623000Y-16623000D01*
X-8643000Y-16623000D01*
X-8643000Y-15877000D01*
X-8623000Y-15877000D01*
X-8623000Y-14273750D01*
X-7877000Y-14273750D01*
X-7877000Y-15877000D01*
X-7023750Y-15877000D01*
X-6865000Y-15718250D01*
X-6861928Y-14750000D01*
X-6874188Y-14625518D01*
X-6910498Y-14505820D01*
X-6969463Y-14395506D01*
X-7048815Y-14298815D01*
X-7145506Y-14219463D01*
X-7255820Y-14160498D01*
X-7375518Y-14124188D01*
X-7500000Y-14111928D01*
X-7718250Y-14115000D01*
X-7877000Y-14273750D01*
X-8623000Y-14273750D01*
X-8781750Y-14115000D01*
X-9000000Y-14111928D01*
X-9124482Y-14124188D01*
X-9244180Y-14160498D01*
X-9354494Y-14219463D01*
X-9451185Y-14298815D01*
X-9530537Y-14395506D01*
X-9589502Y-14505820D01*
X-9625812Y-14625518D01*
X-9635473Y-14723608D01*
X-9655000Y-14699814D01*
X-9655000Y-13260131D01*
X-8529868Y-12135000D01*
X-8079002Y-12135000D01*
X-8001101Y-12198932D01*
X-7751808Y-12332182D01*
X-7481309Y-12414236D01*
X-7270492Y-12435000D01*
X-5729508Y-12435000D01*
X-5518691Y-12414236D01*
X-5248192Y-12332182D01*
X-4998899Y-12198932D01*
X-4780392Y-12019608D01*
X-4601068Y-11801101D01*
X-4467818Y-11551808D01*
X-4385764Y-11281309D01*
X-4358057Y-11000000D01*
X-4385764Y-10718691D01*
X-4467818Y-10448192D01*
X-4601068Y-10198899D01*
X-4780392Y-9980392D01*
X-4878349Y-9900000D01*
X-4038072Y-9900000D01*
X-4025812Y-10024482D01*
X-3989502Y-10144180D01*
X-3930537Y-10254494D01*
X-3851185Y-10351185D01*
X-3754494Y-10430537D01*
X-3644180Y-10489502D01*
X-3524482Y-10525812D01*
X-3400000Y-10538072D01*
X-2531750Y-10535000D01*
X-2373000Y-10376250D01*
X-2373000Y-9373000D01*
X-3876250Y-9373000D01*
X-4035000Y-9531750D01*
X-4038072Y-9900000D01*
X-4878349Y-9900000D01*
X-4998899Y-9801068D01*
X-5094440Y-9750000D01*
X-4998899Y-9698932D01*
X-4780392Y-9519608D01*
X-4601068Y-9301101D01*
X-4467818Y-9051808D01*
X-4385764Y-8781309D01*
X-4358057Y-8500000D01*
X-4385764Y-8218691D01*
X-4421768Y-8100000D01*
X-4038072Y-8100000D01*
X-4035000Y-8468250D01*
X-3876250Y-8627000D01*
X-2373000Y-8627000D01*
X-2373000Y-7623750D01*
X-1627000Y-7623750D01*
X-1627000Y-8627000D01*
X-1607000Y-8627000D01*
X-1607000Y-9373000D01*
X-1627000Y-9373000D01*
X-1627000Y-10376250D01*
X-1468250Y-10535000D01*
X-600000Y-10538072D01*
X-475518Y-10525812D01*
X-355820Y-10489502D01*
X-245506Y-10430537D01*
X-148815Y-10351185D01*
X-69463Y-10254494D01*
X-10498Y-10144180D01*
X17504Y-10051870D01*
X49339Y-10090661D01*
X283073Y-10282481D01*
X549739Y-10425017D01*
X839087Y-10512790D01*
X1064592Y-10535000D01*
X2215408Y-10535000D01*
X2440913Y-10512790D01*
X2730261Y-10425017D01*
X2996927Y-10282481D01*
X3230661Y-10090661D01*
X3422481Y-9856927D01*
X3565017Y-9590261D01*
X3652790Y-9300913D01*
X3682427Y-9000000D01*
X3652790Y-8699087D01*
X3565017Y-8409739D01*
X3450200Y-8194932D01*
X3510132Y-8135000D01*
X4132385Y-8135000D01*
X4167818Y-8251807D01*
X4301068Y-8501100D01*
X4480392Y-8719607D01*
X4698899Y-8898932D01*
X4948192Y-9032182D01*
X5218691Y-9114236D01*
X5500000Y-9141943D01*
X5500030Y-9141940D01*
X7740154Y-9141940D01*
X7931875Y-9377000D01*
X8877000Y-9377000D01*
X8877000Y-7829473D01*
X8664825Y-7739735D01*
X8334730Y-7845688D01*
X8117367Y-8047389D01*
X7943531Y-8287620D01*
X7819901Y-8557148D01*
X7751229Y-8845617D01*
X7740154Y-9141940D01*
X5500030Y-9141940D01*
X5781308Y-9114236D01*
X6051807Y-9032182D01*
X6301100Y-8898932D01*
X6519607Y-8719608D01*
X6698932Y-8501101D01*
X6832182Y-8251808D01*
X6914236Y-7981309D01*
X6935000Y-7770492D01*
X6935000Y-6229508D01*
X6914236Y-6018691D01*
X6832182Y-5748192D01*
X6698932Y-5498899D01*
X6519608Y-5280392D01*
X6301101Y-5101068D01*
X6051808Y-4967818D01*
X5781309Y-4885764D01*
X5500000Y-4858057D01*
X5218692Y-4885764D01*
X4948193Y-4967818D01*
X4698900Y-5101068D01*
X4480393Y-5280392D01*
X4301069Y-5498899D01*
X4167819Y-5748192D01*
X4132386Y-5865000D01*
X3095751Y-5865000D01*
X3039999Y-5859509D01*
X2817500Y-5881423D01*
X2777521Y-5893551D01*
X2603553Y-5946324D01*
X2406377Y-6051716D01*
X2233551Y-6193551D01*
X2198009Y-6236859D01*
X959520Y-7475349D01*
X839087Y-7487210D01*
X549739Y-7574983D01*
X283073Y-7717519D01*
X49339Y-7909339D01*
X17504Y-7948130D01*
X-10498Y-7855820D01*
X-69463Y-7745506D01*
X-148815Y-7648815D01*
X-245506Y-7569463D01*
X-355820Y-7510498D01*
X-475518Y-7474188D01*
X-600000Y-7461928D01*
X-1468250Y-7465000D01*
X-1627000Y-7623750D01*
X-2373000Y-7623750D01*
X-2531750Y-7465000D01*
X-3400000Y-7461928D01*
X-3524482Y-7474188D01*
X-3644180Y-7510498D01*
X-3754494Y-7569463D01*
X-3851185Y-7648815D01*
X-3930537Y-7745506D01*
X-3989502Y-7855820D01*
X-4025812Y-7975518D01*
X-4038072Y-8100000D01*
X-4421768Y-8100000D01*
X-4467818Y-7948192D01*
X-4601068Y-7698899D01*
X-4780392Y-7480392D01*
X-4998899Y-7301068D01*
X-5248192Y-7167818D01*
X-5518691Y-7085764D01*
X-5729508Y-7065000D01*
X-7270492Y-7065000D01*
X-7481309Y-7085764D01*
X-7751808Y-7167818D01*
X-8001101Y-7301068D01*
X-8219608Y-7480392D01*
X-8398932Y-7698899D01*
X-8532182Y-7948192D01*
X-8614236Y-8218691D01*
X-8641943Y-8500000D01*
X-8614236Y-8781309D01*
X-8532182Y-9051808D01*
X-8398932Y-9301101D01*
X-8219608Y-9519608D01*
X-8001101Y-9698932D01*
X-7905560Y-9750000D01*
X-8001101Y-9801068D01*
X-8079002Y-9865000D01*
X-8944259Y-9865000D01*
X-9000001Y-9859510D01*
X-9055743Y-9865000D01*
X-9055752Y-9865000D01*
X-9222499Y-9881423D01*
X-9436447Y-9946324D01*
X-9633623Y-10051716D01*
X-9806449Y-10193551D01*
X-9841991Y-10236860D01*
X-11553135Y-11948004D01*
X-11596449Y-11983551D01*
X-11738284Y-12156377D01*
X-11843675Y-12353553D01*
X-11843676Y-12353554D01*
X-11908577Y-12567502D01*
X-11930491Y-12790000D01*
X-11925000Y-12845751D01*
X-11925000Y-14699814D01*
X-11947156Y-14726812D01*
X-12059999Y-14937928D01*
X-12172843Y-14726812D01*
X-12345919Y-14515919D01*
X-12556812Y-14342843D01*
X-12797419Y-14214236D01*
X-13058493Y-14135040D01*
X-13330000Y-14108299D01*
X-13601506Y-14135040D01*
X-13862580Y-14214236D01*
X-14103187Y-14342843D01*
X-14314080Y-14515919D01*
X-14487156Y-14726812D01*
X-14615763Y-14967419D01*
X-14694960Y-15228493D01*
X-14715000Y-15431963D01*
X-14715000Y-16029868D01*
X-15550131Y-16865000D01*
X-17511928Y-16865000D01*
X-17511928Y-16500000D01*
X-17524188Y-16375518D01*
X-17560498Y-16255820D01*
X-17619463Y-16145506D01*
X-17698815Y-16048815D01*
X-17795506Y-15969463D01*
X-17905820Y-15910498D01*
X-18025518Y-15874188D01*
X-18150000Y-15861928D01*
X-19850000Y-15861928D01*
X-19974482Y-15874188D01*
X-20094180Y-15910498D01*
X-20204494Y-15969463D01*
X-20301185Y-16048815D01*
X-20380537Y-16145506D01*
X-20439502Y-16255820D01*
X-20460393Y-16324687D01*
X-20484866Y-16294866D01*
X-20710986Y-16109294D01*
X-20968966Y-15971401D01*
X-21248889Y-15886487D01*
X-21540000Y-15857815D01*
X-21831110Y-15886487D01*
X-22111033Y-15971401D01*
X-22305010Y-16075084D01*
X-22305010Y-14610774D01*
X-22147693Y-14690216D01*
X-21856005Y-14771343D01*
X-21554094Y-14794006D01*
X-21313000Y-14610630D01*
X-21313000Y-13623000D01*
X-20567000Y-13623000D01*
X-20567000Y-14610630D01*
X-20325906Y-14794006D01*
X-20023995Y-14771343D01*
X-19903228Y-14737754D01*
X-19900000Y-14738072D01*
X-18931750Y-14735000D01*
X-18773000Y-14576250D01*
X-18773000Y-13623000D01*
X-18027000Y-13623000D01*
X-18027000Y-14576250D01*
X-17868250Y-14735000D01*
X-16900000Y-14738072D01*
X-16775518Y-14725812D01*
X-16655820Y-14689502D01*
X-16545506Y-14630537D01*
X-16448815Y-14551185D01*
X-16369463Y-14454494D01*
X-16310498Y-14344180D01*
X-16274188Y-14224482D01*
X-16261928Y-14100000D01*
X-16265000Y-13781750D01*
X-16423750Y-13623000D01*
X-18027000Y-13623000D01*
X-18773000Y-13623000D01*
X-20567000Y-13623000D01*
X-21313000Y-13623000D01*
X-21333000Y-13623000D01*
X-21333000Y-12877000D01*
X-21313000Y-12877000D01*
X-21313000Y-12857000D01*
X-20567000Y-12857000D01*
X-20567000Y-12877000D01*
X-18773000Y-12877000D01*
X-18773000Y-12857000D01*
X-18027000Y-12857000D01*
X-18027000Y-12877000D01*
X-16423750Y-12877000D01*
X-16265000Y-12718250D01*
X-16261928Y-12400000D01*
X-16274188Y-12275518D01*
X-16310498Y-12155820D01*
X-16369463Y-12045506D01*
X-16448815Y-11948815D01*
X-16545506Y-11869463D01*
X-16655820Y-11810498D01*
X-16724687Y-11789607D01*
X-16694866Y-11765134D01*
X-16547178Y-11585175D01*
X-16130265Y-11585175D01*
X-16024312Y-11915270D01*
X-15822611Y-12132633D01*
X-15582380Y-12306469D01*
X-15312852Y-12430099D01*
X-15024383Y-12498771D01*
X-14728060Y-12509846D01*
X-14493000Y-12318125D01*
X-14493000Y-11373000D01*
X-13747000Y-11373000D01*
X-13747000Y-12318125D01*
X-13511940Y-12509846D01*
X-13215617Y-12498771D01*
X-12927148Y-12430099D01*
X-12657620Y-12306469D01*
X-12417389Y-12132633D01*
X-12215688Y-11915270D01*
X-12109735Y-11585175D01*
X-12199473Y-11373000D01*
X-13747000Y-11373000D01*
X-14493000Y-11373000D01*
X-16040527Y-11373000D01*
X-16130265Y-11585175D01*
X-16547178Y-11585175D01*
X-16509294Y-11539014D01*
X-16371401Y-11281034D01*
X-16286487Y-11001111D01*
X-16257815Y-10710000D01*
X-16286487Y-10418889D01*
X-16371401Y-10138966D01*
X-16509294Y-9880986D01*
X-16694866Y-9654866D01*
X-16920986Y-9469294D01*
X-16975791Y-9440000D01*
X-16920986Y-9410706D01*
X-16694866Y-9225134D01*
X-16509294Y-8999014D01*
X-16371401Y-8741034D01*
X-16286487Y-8461111D01*
X-16257815Y-8170000D01*
X-16286487Y-7878889D01*
X-16371401Y-7598966D01*
X-16509294Y-7340986D01*
X-16694866Y-7114866D01*
X-16867806Y-6972938D01*
X-13879443Y-3984575D01*
X-13695496Y-4107484D01*
X-13297480Y-4272348D01*
X-14883140Y-5858009D01*
X-14926448Y-5893551D01*
X-15068283Y-6066377D01*
X-15093020Y-6112657D01*
X-15173676Y-6263554D01*
X-15238577Y-6477502D01*
X-15260491Y-6700000D01*
X-15255000Y-6755751D01*
X-15255000Y-7132385D01*
X-15371808Y-7167818D01*
X-15621101Y-7301068D01*
X-15839608Y-7480392D01*
X-16018932Y-7698899D01*
X-16152182Y-7948192D01*
X-16234236Y-8218691D01*
X-16261943Y-8500000D01*
X-16234236Y-8781309D01*
X-16152182Y-9051808D01*
X-16018932Y-9301101D01*
X-15839608Y-9519608D01*
X-15621101Y-9698932D01*
X-15603123Y-9708541D01*
X-15822611Y-9867367D01*
X-16024312Y-10084730D01*
X-16130265Y-10414825D01*
X-16040527Y-10627000D01*
X-14493000Y-10627000D01*
X-14493000Y-10607000D01*
X-13747000Y-10607000D01*
X-13747000Y-10627000D01*
X-12199473Y-10627000D01*
X-12109735Y-10414825D01*
X-12215688Y-10084730D01*
X-12417389Y-9867367D01*
X-12636877Y-9708541D01*
X-12618899Y-9698932D01*
X-12400392Y-9519608D01*
X-12221068Y-9301101D01*
X-12087818Y-9051808D01*
X-12005764Y-8781309D01*
X-11978057Y-8500000D01*
X-12005764Y-8218691D01*
X-12087818Y-7948192D01*
X-12221068Y-7698899D01*
X-12400392Y-7480392D01*
X-12618899Y-7301068D01*
X-12868192Y-7167818D01*
X-12956039Y-7141170D01*
X-11949868Y-6135001D01*
X-9055752Y-6135001D01*
X-9000001Y-6140492D01*
X-8944250Y-6135001D01*
X-8944249Y-6135001D01*
X-8777502Y-6118578D01*
X-8563554Y-6053677D01*
X-8366378Y-5948285D01*
X-8193552Y-5806450D01*
X-8158005Y-5763137D01*
X-7529867Y-5134999D01*
X-4055750Y-5134999D01*
X-3999999Y-5140490D01*
X-3944248Y-5134999D01*
X-3944247Y-5134999D01*
X-3777500Y-5118576D01*
X-3563552Y-5053675D01*
X-3366376Y-4948283D01*
X-3193550Y-4806448D01*
X-3158003Y-4763134D01*
X-2379443Y-3984574D01*
X-2195496Y-4107484D01*
X-1351980Y-4456880D01*
X-456508Y-4635000D01*
X456508Y-4635000D01*
X1351980Y-4456880D01*
X2195496Y-4107484D01*
X2954640Y-3600240D01*
X3600240Y-2954640D01*
X4107484Y-2195496D01*
X4456880Y-1351980D01*
X4635000Y-456508D01*
X4635000Y456508D01*
X4456880Y1351980D01*
X4107484Y2195496D01*
X3600240Y2954640D01*
X2954640Y3600240D01*
X2195496Y4107484D01*
X1351980Y4456880D01*
X456508Y4635000D01*
X-456508Y4635000D01*
X-1351980Y4456880D01*
X-2195496Y4107484D01*
X-2954640Y3600240D01*
X-3600240Y2954640D01*
X-4107484Y2195496D01*
X-4456880Y1351980D01*
X-4635000Y456508D01*
X-4635000Y-456508D01*
X-4456880Y-1351980D01*
X-4107484Y-2195496D01*
X-3984574Y-2379443D01*
X-4470130Y-2864999D01*
X-7839864Y-2864999D01*
X-7392516Y-2195496D01*
X-7043120Y-1351980D01*
X-6865000Y-456508D01*
X-6865000Y456508D01*
X-7043120Y1351980D01*
X-7392516Y2195496D01*
X-7899760Y2954640D01*
X-8545360Y3600240D01*
X-9304504Y4107484D01*
X-10148020Y4456880D01*
X-11043492Y4635000D01*
X-11956508Y4635000D01*
X-12851980Y4456880D01*
X-13695496Y4107484D01*
X-14454640Y3600240D01*
X-15100240Y2954640D01*
X-15607484Y2195496D01*
X-15956880Y1351980D01*
X-16135000Y456508D01*
X-16135000Y-456508D01*
X-15956880Y-1351980D01*
X-15607484Y-2195496D01*
X-15484575Y-2379443D01*
X-19763135Y-6658004D01*
X-19806449Y-6693551D01*
X-19948284Y-6866377D01*
X-20053675Y-7063553D01*
X-20053676Y-7063554D01*
X-20057344Y-7075646D01*
X-20105134Y-7114866D01*
X-20270000Y-7315756D01*
X-20365000Y-7199998D01*
X-20365000Y-4500040D01*
X-20148020Y-4456880D01*
X-19304504Y-4107484D01*
X-18545360Y-3600240D01*
X-17899760Y-2954640D01*
X-17392516Y-2195496D01*
X-17043120Y-1351980D01*
X-16865000Y-456508D01*
X-16865000Y456508D01*
X-17043120Y1351980D01*
X-17392516Y2195496D01*
X-17899760Y2954640D01*
X-18545360Y3600240D01*
X-19304504Y4107484D01*
X-20148020Y4456880D01*
X-21043492Y4635000D01*
X-21956508Y4635000D01*
X-22851980Y4456880D01*
X-23695496Y4107484D01*
X-24454640Y3600240D01*
X-24840000Y3214880D01*
X-24840000Y5340000D01*
X24840001Y5340000D01*
X24840001Y2812499D01*
G37*
X24840001Y2812499D02*
X22027502Y0D01*
X24840001Y-2812499D01*
X24840000Y-21340000D01*
X2638284Y-21340000D01*
X2689502Y-21244180D01*
X2725812Y-21124482D01*
X2738072Y-21000000D01*
X2735000Y-20031750D01*
X2576250Y-19873000D01*
X1623000Y-19873000D01*
X1623000Y-19893000D01*
X877000Y-19893000D01*
X877000Y-19873000D01*
X857000Y-19873000D01*
X857000Y-19127000D01*
X877000Y-19127000D01*
X877000Y-17523750D01*
X1623000Y-17523750D01*
X1623000Y-19127000D01*
X2576250Y-19127000D01*
X2735000Y-18968250D01*
X2738072Y-18000000D01*
X2725812Y-17875518D01*
X2689502Y-17755820D01*
X2630537Y-17645506D01*
X2599806Y-17608060D01*
X6990154Y-17608060D01*
X7001229Y-17904383D01*
X7069901Y-18192852D01*
X7193531Y-18462380D01*
X7367367Y-18702611D01*
X7584730Y-18904312D01*
X7914825Y-19010265D01*
X8127000Y-18920527D01*
X8127000Y-17373000D01*
X7181875Y-17373000D01*
X6990154Y-17608060D01*
X2599806Y-17608060D01*
X2551185Y-17548815D01*
X2454494Y-17469463D01*
X2344180Y-17410498D01*
X2224482Y-17374188D01*
X2100000Y-17361928D01*
X1781750Y-17365000D01*
X1623000Y-17523750D01*
X877000Y-17523750D01*
X718250Y-17365000D01*
X400000Y-17361928D01*
X275518Y-17374188D01*
X155820Y-17410498D01*
X45506Y-17469463D01*
X-51185Y-17548815D01*
X-130537Y-17645506D01*
X-155000Y-17691272D01*
X-155000Y-17470131D01*
X1560132Y-15755000D01*
X4132385Y-15755000D01*
X4167818Y-15871807D01*
X4301068Y-16121100D01*
X4480392Y-16339607D01*
X4698899Y-16518932D01*
X4948192Y-16652182D01*
X5218691Y-16734236D01*
X5500000Y-16761943D01*
X5781308Y-16734236D01*
X6051807Y-16652182D01*
X6301100Y-16518932D01*
X6519607Y-16339608D01*
X6698932Y-16121101D01*
X6832182Y-15871808D01*
X6867615Y-15755000D01*
X7093821Y-15755000D01*
X7069901Y-15807148D01*
X7001229Y-16095617D01*
X6990154Y-16391940D01*
X7181875Y-16627000D01*
X8127000Y-16627000D01*
X8127000Y-16607000D01*
X8873000Y-16607000D01*
X8873000Y-16627000D01*
X8893000Y-16627000D01*
X8893000Y-17373000D01*
X8873000Y-17373000D01*
X8873000Y-18920527D01*
X9085175Y-19010265D01*
X9415270Y-18904312D01*
X9605520Y-18727770D01*
X9610498Y-18744180D01*
X9669463Y-18854494D01*
X9748815Y-18951185D01*
X9845506Y-19030537D01*
X9955820Y-19089502D01*
X10075518Y-19125812D01*
X10200000Y-19138072D01*
X11800000Y-19138072D01*
X11924482Y-19125812D01*
X12044180Y-19089502D01*
X12154494Y-19030537D01*
X12251185Y-18951185D01*
X12330537Y-18854494D01*
X12389502Y-18744180D01*
X12425812Y-18624482D01*
X12438072Y-18500000D01*
X12438072Y-18135000D01*
X12744249Y-18135000D01*
X12800000Y-18140491D01*
X12855751Y-18135000D01*
X12855752Y-18135000D01*
X13022499Y-18118577D01*
X13236447Y-18053676D01*
X13433623Y-17948284D01*
X13606449Y-17806449D01*
X13641996Y-17763135D01*
X19723146Y-11681987D01*
X19766449Y-11646449D01*
X19816736Y-11585175D01*
X19908284Y-11473623D01*
X20013676Y-11276447D01*
X20078577Y-11062499D01*
X20100491Y-10840000D01*
X20095000Y-10784248D01*
X20095000Y-9949583D01*
X20096315Y-9951185D01*
X20193006Y-10030537D01*
X20303320Y-10089502D01*
X20423018Y-10125812D01*
X20547500Y-10138072D01*
X20968250Y-10135000D01*
X21127000Y-9976250D01*
X21127000Y-8373000D01*
X21873000Y-8373000D01*
X21873000Y-9976250D01*
X22031750Y-10135000D01*
X22452500Y-10138072D01*
X22576982Y-10125812D01*
X22696680Y-10089502D01*
X22806994Y-10030537D01*
X22903685Y-9951185D01*
X22983037Y-9854494D01*
X23042002Y-9744180D01*
X23078312Y-9624482D01*
X23090572Y-9500000D01*
X23087500Y-8531750D01*
X22928750Y-8373000D01*
X21873000Y-8373000D01*
X21127000Y-8373000D01*
X21107000Y-8373000D01*
X21107000Y-7627000D01*
X21127000Y-7627000D01*
X21127000Y-6023750D01*
X21873000Y-6023750D01*
X21873000Y-7627000D01*
X22928750Y-7627000D01*
X23087500Y-7468250D01*
X23090572Y-6500000D01*
X23078312Y-6375518D01*
X23042002Y-6255820D01*
X22983037Y-6145506D01*
X22903685Y-6048815D01*
X22806994Y-5969463D01*
X22696680Y-5910498D01*
X22576982Y-5874188D01*
X22452500Y-5861928D01*
X22031750Y-5865000D01*
X21873000Y-6023750D01*
X21127000Y-6023750D01*
X20968250Y-5865000D01*
X20547500Y-5861928D01*
X20423018Y-5874188D01*
X20303320Y-5910498D01*
X20193006Y-5969463D01*
X20096315Y-6048815D01*
X20016963Y-6145506D01*
X19972095Y-6229446D01*
X19846235Y-6126155D01*
X19570449Y-5978745D01*
X19271204Y-5887970D01*
X19216478Y-5882580D01*
X16767741Y-3433843D01*
X18593659Y-3433843D01*
X19072990Y-3975079D01*
X19895124Y-4372185D01*
X20778933Y-4601270D01*
X21690451Y-4653531D01*
X22594651Y-4526960D01*
X23456784Y-4226420D01*
X23927010Y-3975079D01*
X24406341Y-3433843D01*
X21500000Y-527502D01*
X18593659Y-3433843D01*
X16767741Y-3433843D01*
X16570761Y-3236864D01*
X16535214Y-3193550D01*
X16362388Y-3051715D01*
X16165212Y-2946323D01*
X16001921Y-2896789D01*
X15484575Y-2379443D01*
X15607484Y-2195496D01*
X15956880Y-1351980D01*
X16135000Y-456508D01*
X16135000Y-190451D01*
X16846469Y-190451D01*
X16973040Y-1094651D01*
X17273580Y-1956784D01*
X17524921Y-2427010D01*
X18066157Y-2906341D01*
X20972498Y0D01*
X18066157Y2906341D01*
X17524921Y2427010D01*
X17127815Y1604876D01*
X16898730Y721067D01*
X16846469Y-190451D01*
X16135000Y-190451D01*
X16135000Y456508D01*
X15956880Y1351980D01*
X15607484Y2195496D01*
X15100240Y2954640D01*
X14621037Y3433843D01*
X18593659Y3433843D01*
X21500000Y527502D01*
X24406341Y3433843D01*
X23927010Y3975079D01*
X23104876Y4372185D01*
X22221067Y4601270D01*
X21309549Y4653531D01*
X20405349Y4526960D01*
X19543216Y4226420D01*
X19072990Y3975079D01*
X18593659Y3433843D01*
X14621037Y3433843D01*
X14454640Y3600240D01*
X13695496Y4107484D01*
X12851980Y4456880D01*
X11956508Y4635000D01*
X11043492Y4635000D01*
X10148020Y4456880D01*
X9304504Y4107484D01*
X8545360Y3600240D01*
X7899760Y2954640D01*
X7392516Y2195496D01*
X7043120Y1351980D01*
X6865000Y456508D01*
X6865000Y-456508D01*
X7043120Y-1351980D01*
X7392516Y-2195496D01*
X7899760Y-2954640D01*
X8545360Y-3600240D01*
X9304504Y-4107484D01*
X10148020Y-4456880D01*
X11043492Y-4635000D01*
X11956508Y-4635000D01*
X12851980Y-4456880D01*
X13695496Y-4107484D01*
X13879443Y-3984575D01*
X14658008Y-4763140D01*
X14693550Y-4806448D01*
X14756436Y-4858057D01*
X14866376Y-4948283D01*
X15063552Y-5053675D01*
X15226845Y-5103210D01*
X16034226Y-5910591D01*
X15809552Y-5978745D01*
X15533766Y-6126155D01*
X15292038Y-6324537D01*
X15093656Y-6566265D01*
X14946245Y-6842051D01*
X14939283Y-6865000D01*
X13555752Y-6865000D01*
X13500000Y-6859509D01*
X13277501Y-6881423D01*
X13063553Y-6946324D01*
X12866377Y-7051716D01*
X12736856Y-7158011D01*
X12736854Y-7158013D01*
X12693551Y-7193551D01*
X12658013Y-7236854D01*
X12282939Y-7611928D01*
X10950000Y-7611928D01*
X10825518Y-7624188D01*
X10705820Y-7660498D01*
X10595506Y-7719463D01*
X10498815Y-7798815D01*
X10419463Y-7895506D01*
X10360498Y-8005820D01*
X10355520Y-8022230D01*
X10165270Y-7845688D01*
X9835175Y-7739735D01*
X9623000Y-7829473D01*
X9623000Y-9377000D01*
X9643000Y-9377000D01*
X9643000Y-10123000D01*
X9623000Y-10123000D01*
X9623000Y-10143000D01*
X8877000Y-10143000D01*
X8877000Y-10123000D01*
X7931875Y-10123000D01*
X7740154Y-10358060D01*
X7751229Y-10654383D01*
X7819901Y-10942852D01*
X7943531Y-11212380D01*
X8117367Y-11452611D01*
X8334730Y-11654312D01*
X8664825Y-11760265D01*
X8876998Y-11670528D01*
X8876998Y-11763468D01*
X7155467Y-13485000D01*
X6867615Y-13485000D01*
X6832182Y-13368192D01*
X6698932Y-13118899D01*
X6519608Y-12900392D01*
X6301101Y-12721068D01*
X6051808Y-12587818D01*
X5781309Y-12505764D01*
X5500000Y-12478057D01*
X5218692Y-12505764D01*
X4948193Y-12587818D01*
X4698900Y-12721068D01*
X4480393Y-12900392D01*
X4301069Y-13118899D01*
X4167819Y-13368192D01*
X4132386Y-13485000D01*
X1145741Y-13485000D01*
X1089999Y-13479510D01*
X1034257Y-13485000D01*
X1034248Y-13485000D01*
X867501Y-13501423D01*
X653553Y-13566324D01*
X456377Y-13671716D01*
X283551Y-13813551D01*
X248011Y-13856857D01*
X-2053135Y-16158004D01*
X-2096449Y-16193551D01*
X-2238284Y-16366377D01*
X-2309706Y-16500000D01*
X-2343676Y-16563554D01*
X-2408577Y-16777502D01*
X-2430491Y-17000000D01*
X-2425000Y-17055752D01*
X-2425000Y-17892184D01*
X-2530705Y-18020986D01*
X-2668599Y-18278966D01*
X-2694697Y-18365000D01*
X-3084249Y-18365000D01*
X-3140000Y-18359509D01*
X-3195752Y-18365000D01*
X-3362499Y-18381423D01*
X-3576447Y-18446324D01*
X-3773623Y-18551716D01*
X-3946449Y-18693551D01*
X-3981992Y-18736860D01*
X-4610132Y-19365001D01*
X-17511928Y-19365001D01*
X-17511928Y-19135000D01*
X-15135751Y-19135000D01*
X-15080000Y-19140491D01*
X-15024249Y-19135000D01*
X-15024248Y-19135000D01*
X-14857501Y-19118577D01*
X-14643553Y-19053676D01*
X-14446377Y-18948284D01*
X-14273551Y-18806449D01*
X-14238005Y-18763136D01*
X-13784360Y-18309492D01*
X-13601507Y-18364960D01*
X-13330000Y-18391701D01*
X-13058494Y-18364960D01*
X-12797420Y-18285764D01*
X-12556813Y-18157157D01*
X-12345920Y-17984081D01*
X-12172843Y-17773188D01*
X-12060000Y-17562073D01*
X-11947157Y-17773187D01*
X-11774081Y-17984080D01*
X-11563188Y-18157157D01*
X-11322581Y-18285764D01*
X-11061507Y-18364960D01*
X-10790000Y-18391701D01*
X-10518494Y-18364960D01*
X-10257420Y-18285764D01*
X-10016813Y-18157157D01*
X-9805920Y-17984081D01*
X-9635473Y-17776392D01*
X-9625812Y-17874482D01*
X-9589502Y-17994180D01*
X-9530537Y-18104494D01*
X-9451185Y-18201185D01*
X-9354494Y-18280537D01*
X-9244180Y-18339502D01*
X-9124482Y-18375812D01*
X-9000000Y-18388072D01*
X-8781750Y-18385000D01*
X-8623000Y-18226250D01*
X-8623000Y-16623000D01*
X-7877000Y-16623000D01*
X-7877000Y-18226250D01*
X-7718250Y-18385000D01*
X-7500000Y-18388072D01*
X-7375518Y-18375812D01*
X-7255820Y-18339502D01*
X-7145506Y-18280537D01*
X-7048815Y-18201185D01*
X-6969463Y-18104494D01*
X-6910498Y-17994180D01*
X-6874188Y-17874482D01*
X-6861928Y-17750000D01*
X-6865000Y-16781750D01*
X-7023750Y-16623000D01*
X-7877000Y-16623000D01*
X-8623000Y-16623000D01*
X-8643000Y-16623000D01*
X-8643000Y-15877000D01*
X-8623000Y-15877000D01*
X-8623000Y-14273750D01*
X-7877000Y-14273750D01*
X-7877000Y-15877000D01*
X-7023750Y-15877000D01*
X-6865000Y-15718250D01*
X-6861928Y-14750000D01*
X-6874188Y-14625518D01*
X-6910498Y-14505820D01*
X-6969463Y-14395506D01*
X-7048815Y-14298815D01*
X-7145506Y-14219463D01*
X-7255820Y-14160498D01*
X-7375518Y-14124188D01*
X-7500000Y-14111928D01*
X-7718250Y-14115000D01*
X-7877000Y-14273750D01*
X-8623000Y-14273750D01*
X-8781750Y-14115000D01*
X-9000000Y-14111928D01*
X-9124482Y-14124188D01*
X-9244180Y-14160498D01*
X-9354494Y-14219463D01*
X-9451185Y-14298815D01*
X-9530537Y-14395506D01*
X-9589502Y-14505820D01*
X-9625812Y-14625518D01*
X-9635473Y-14723608D01*
X-9655000Y-14699814D01*
X-9655000Y-13260131D01*
X-8529868Y-12135000D01*
X-8079002Y-12135000D01*
X-8001101Y-12198932D01*
X-7751808Y-12332182D01*
X-7481309Y-12414236D01*
X-7270492Y-12435000D01*
X-5729508Y-12435000D01*
X-5518691Y-12414236D01*
X-5248192Y-12332182D01*
X-4998899Y-12198932D01*
X-4780392Y-12019608D01*
X-4601068Y-11801101D01*
X-4467818Y-11551808D01*
X-4385764Y-11281309D01*
X-4358057Y-11000000D01*
X-4385764Y-10718691D01*
X-4467818Y-10448192D01*
X-4601068Y-10198899D01*
X-4780392Y-9980392D01*
X-4878349Y-9900000D01*
X-4038072Y-9900000D01*
X-4025812Y-10024482D01*
X-3989502Y-10144180D01*
X-3930537Y-10254494D01*
X-3851185Y-10351185D01*
X-3754494Y-10430537D01*
X-3644180Y-10489502D01*
X-3524482Y-10525812D01*
X-3400000Y-10538072D01*
X-2531750Y-10535000D01*
X-2373000Y-10376250D01*
X-2373000Y-9373000D01*
X-3876250Y-9373000D01*
X-4035000Y-9531750D01*
X-4038072Y-9900000D01*
X-4878349Y-9900000D01*
X-4998899Y-9801068D01*
X-5094440Y-9750000D01*
X-4998899Y-9698932D01*
X-4780392Y-9519608D01*
X-4601068Y-9301101D01*
X-4467818Y-9051808D01*
X-4385764Y-8781309D01*
X-4358057Y-8500000D01*
X-4385764Y-8218691D01*
X-4421768Y-8100000D01*
X-4038072Y-8100000D01*
X-4035000Y-8468250D01*
X-3876250Y-8627000D01*
X-2373000Y-8627000D01*
X-2373000Y-7623750D01*
X-1627000Y-7623750D01*
X-1627000Y-8627000D01*
X-1607000Y-8627000D01*
X-1607000Y-9373000D01*
X-1627000Y-9373000D01*
X-1627000Y-10376250D01*
X-1468250Y-10535000D01*
X-600000Y-10538072D01*
X-475518Y-10525812D01*
X-355820Y-10489502D01*
X-245506Y-10430537D01*
X-148815Y-10351185D01*
X-69463Y-10254494D01*
X-10498Y-10144180D01*
X17504Y-10051870D01*
X49339Y-10090661D01*
X283073Y-10282481D01*
X549739Y-10425017D01*
X839087Y-10512790D01*
X1064592Y-10535000D01*
X2215408Y-10535000D01*
X2440913Y-10512790D01*
X2730261Y-10425017D01*
X2996927Y-10282481D01*
X3230661Y-10090661D01*
X3422481Y-9856927D01*
X3565017Y-9590261D01*
X3652790Y-9300913D01*
X3682427Y-9000000D01*
X3652790Y-8699087D01*
X3565017Y-8409739D01*
X3450200Y-8194932D01*
X3510132Y-8135000D01*
X4132385Y-8135000D01*
X4167818Y-8251807D01*
X4301068Y-8501100D01*
X4480392Y-8719607D01*
X4698899Y-8898932D01*
X4948192Y-9032182D01*
X5218691Y-9114236D01*
X5500000Y-9141943D01*
X5500030Y-9141940D01*
X7740154Y-9141940D01*
X7931875Y-9377000D01*
X8877000Y-9377000D01*
X8877000Y-7829473D01*
X8664825Y-7739735D01*
X8334730Y-7845688D01*
X8117367Y-8047389D01*
X7943531Y-8287620D01*
X7819901Y-8557148D01*
X7751229Y-8845617D01*
X7740154Y-9141940D01*
X5500030Y-9141940D01*
X5781308Y-9114236D01*
X6051807Y-9032182D01*
X6301100Y-8898932D01*
X6519607Y-8719608D01*
X6698932Y-8501101D01*
X6832182Y-8251808D01*
X6914236Y-7981309D01*
X6935000Y-7770492D01*
X6935000Y-6229508D01*
X6914236Y-6018691D01*
X6832182Y-5748192D01*
X6698932Y-5498899D01*
X6519608Y-5280392D01*
X6301101Y-5101068D01*
X6051808Y-4967818D01*
X5781309Y-4885764D01*
X5500000Y-4858057D01*
X5218692Y-4885764D01*
X4948193Y-4967818D01*
X4698900Y-5101068D01*
X4480393Y-5280392D01*
X4301069Y-5498899D01*
X4167819Y-5748192D01*
X4132386Y-5865000D01*
X3095751Y-5865000D01*
X3039999Y-5859509D01*
X2817500Y-5881423D01*
X2777521Y-5893551D01*
X2603553Y-5946324D01*
X2406377Y-6051716D01*
X2233551Y-6193551D01*
X2198009Y-6236859D01*
X959520Y-7475349D01*
X839087Y-7487210D01*
X549739Y-7574983D01*
X283073Y-7717519D01*
X49339Y-7909339D01*
X17504Y-7948130D01*
X-10498Y-7855820D01*
X-69463Y-7745506D01*
X-148815Y-7648815D01*
X-245506Y-7569463D01*
X-355820Y-7510498D01*
X-475518Y-7474188D01*
X-600000Y-7461928D01*
X-1468250Y-7465000D01*
X-1627000Y-7623750D01*
X-2373000Y-7623750D01*
X-2531750Y-7465000D01*
X-3400000Y-7461928D01*
X-3524482Y-7474188D01*
X-3644180Y-7510498D01*
X-3754494Y-7569463D01*
X-3851185Y-7648815D01*
X-3930537Y-7745506D01*
X-3989502Y-7855820D01*
X-4025812Y-7975518D01*
X-4038072Y-8100000D01*
X-4421768Y-8100000D01*
X-4467818Y-7948192D01*
X-4601068Y-7698899D01*
X-4780392Y-7480392D01*
X-4998899Y-7301068D01*
X-5248192Y-7167818D01*
X-5518691Y-7085764D01*
X-5729508Y-7065000D01*
X-7270492Y-7065000D01*
X-7481309Y-7085764D01*
X-7751808Y-7167818D01*
X-8001101Y-7301068D01*
X-8219608Y-7480392D01*
X-8398932Y-7698899D01*
X-8532182Y-7948192D01*
X-8614236Y-8218691D01*
X-8641943Y-8500000D01*
X-8614236Y-8781309D01*
X-8532182Y-9051808D01*
X-8398932Y-9301101D01*
X-8219608Y-9519608D01*
X-8001101Y-9698932D01*
X-7905560Y-9750000D01*
X-8001101Y-9801068D01*
X-8079002Y-9865000D01*
X-8944259Y-9865000D01*
X-9000001Y-9859510D01*
X-9055743Y-9865000D01*
X-9055752Y-9865000D01*
X-9222499Y-9881423D01*
X-9436447Y-9946324D01*
X-9633623Y-10051716D01*
X-9806449Y-10193551D01*
X-9841991Y-10236860D01*
X-11553135Y-11948004D01*
X-11596449Y-11983551D01*
X-11738284Y-12156377D01*
X-11843675Y-12353553D01*
X-11843676Y-12353554D01*
X-11908577Y-12567502D01*
X-11930491Y-12790000D01*
X-11925000Y-12845751D01*
X-11925000Y-14699814D01*
X-11947156Y-14726812D01*
X-12059999Y-14937928D01*
X-12172843Y-14726812D01*
X-12345919Y-14515919D01*
X-12556812Y-14342843D01*
X-12797419Y-14214236D01*
X-13058493Y-14135040D01*
X-13330000Y-14108299D01*
X-13601506Y-14135040D01*
X-13862580Y-14214236D01*
X-14103187Y-14342843D01*
X-14314080Y-14515919D01*
X-14487156Y-14726812D01*
X-14615763Y-14967419D01*
X-14694960Y-15228493D01*
X-14715000Y-15431963D01*
X-14715000Y-16029868D01*
X-15550131Y-16865000D01*
X-17511928Y-16865000D01*
X-17511928Y-16500000D01*
X-17524188Y-16375518D01*
X-17560498Y-16255820D01*
X-17619463Y-16145506D01*
X-17698815Y-16048815D01*
X-17795506Y-15969463D01*
X-17905820Y-15910498D01*
X-18025518Y-15874188D01*
X-18150000Y-15861928D01*
X-19850000Y-15861928D01*
X-19974482Y-15874188D01*
X-20094180Y-15910498D01*
X-20204494Y-15969463D01*
X-20301185Y-16048815D01*
X-20380537Y-16145506D01*
X-20439502Y-16255820D01*
X-20460393Y-16324687D01*
X-20484866Y-16294866D01*
X-20710986Y-16109294D01*
X-20968966Y-15971401D01*
X-21248889Y-15886487D01*
X-21540000Y-15857815D01*
X-21831110Y-15886487D01*
X-22111033Y-15971401D01*
X-22305010Y-16075084D01*
X-22305010Y-14610774D01*
X-22147693Y-14690216D01*
X-21856005Y-14771343D01*
X-21554094Y-14794006D01*
X-21313000Y-14610630D01*
X-21313000Y-13623000D01*
X-20567000Y-13623000D01*
X-20567000Y-14610630D01*
X-20325906Y-14794006D01*
X-20023995Y-14771343D01*
X-19903228Y-14737754D01*
X-19900000Y-14738072D01*
X-18931750Y-14735000D01*
X-18773000Y-14576250D01*
X-18773000Y-13623000D01*
X-18027000Y-13623000D01*
X-18027000Y-14576250D01*
X-17868250Y-14735000D01*
X-16900000Y-14738072D01*
X-16775518Y-14725812D01*
X-16655820Y-14689502D01*
X-16545506Y-14630537D01*
X-16448815Y-14551185D01*
X-16369463Y-14454494D01*
X-16310498Y-14344180D01*
X-16274188Y-14224482D01*
X-16261928Y-14100000D01*
X-16265000Y-13781750D01*
X-16423750Y-13623000D01*
X-18027000Y-13623000D01*
X-18773000Y-13623000D01*
X-20567000Y-13623000D01*
X-21313000Y-13623000D01*
X-21333000Y-13623000D01*
X-21333000Y-12877000D01*
X-21313000Y-12877000D01*
X-21313000Y-12857000D01*
X-20567000Y-12857000D01*
X-20567000Y-12877000D01*
X-18773000Y-12877000D01*
X-18773000Y-12857000D01*
X-18027000Y-12857000D01*
X-18027000Y-12877000D01*
X-16423750Y-12877000D01*
X-16265000Y-12718250D01*
X-16261928Y-12400000D01*
X-16274188Y-12275518D01*
X-16310498Y-12155820D01*
X-16369463Y-12045506D01*
X-16448815Y-11948815D01*
X-16545506Y-11869463D01*
X-16655820Y-11810498D01*
X-16724687Y-11789607D01*
X-16694866Y-11765134D01*
X-16547178Y-11585175D01*
X-16130265Y-11585175D01*
X-16024312Y-11915270D01*
X-15822611Y-12132633D01*
X-15582380Y-12306469D01*
X-15312852Y-12430099D01*
X-15024383Y-12498771D01*
X-14728060Y-12509846D01*
X-14493000Y-12318125D01*
X-14493000Y-11373000D01*
X-13747000Y-11373000D01*
X-13747000Y-12318125D01*
X-13511940Y-12509846D01*
X-13215617Y-12498771D01*
X-12927148Y-12430099D01*
X-12657620Y-12306469D01*
X-12417389Y-12132633D01*
X-12215688Y-11915270D01*
X-12109735Y-11585175D01*
X-12199473Y-11373000D01*
X-13747000Y-11373000D01*
X-14493000Y-11373000D01*
X-16040527Y-11373000D01*
X-16130265Y-11585175D01*
X-16547178Y-11585175D01*
X-16509294Y-11539014D01*
X-16371401Y-11281034D01*
X-16286487Y-11001111D01*
X-16257815Y-10710000D01*
X-16286487Y-10418889D01*
X-16371401Y-10138966D01*
X-16509294Y-9880986D01*
X-16694866Y-9654866D01*
X-16920986Y-9469294D01*
X-16975791Y-9440000D01*
X-16920986Y-9410706D01*
X-16694866Y-9225134D01*
X-16509294Y-8999014D01*
X-16371401Y-8741034D01*
X-16286487Y-8461111D01*
X-16257815Y-8170000D01*
X-16286487Y-7878889D01*
X-16371401Y-7598966D01*
X-16509294Y-7340986D01*
X-16694866Y-7114866D01*
X-16867806Y-6972938D01*
X-13879443Y-3984575D01*
X-13695496Y-4107484D01*
X-13297480Y-4272348D01*
X-14883140Y-5858009D01*
X-14926448Y-5893551D01*
X-15068283Y-6066377D01*
X-15093020Y-6112657D01*
X-15173676Y-6263554D01*
X-15238577Y-6477502D01*
X-15260491Y-6700000D01*
X-15255000Y-6755751D01*
X-15255000Y-7132385D01*
X-15371808Y-7167818D01*
X-15621101Y-7301068D01*
X-15839608Y-7480392D01*
X-16018932Y-7698899D01*
X-16152182Y-7948192D01*
X-16234236Y-8218691D01*
X-16261943Y-8500000D01*
X-16234236Y-8781309D01*
X-16152182Y-9051808D01*
X-16018932Y-9301101D01*
X-15839608Y-9519608D01*
X-15621101Y-9698932D01*
X-15603123Y-9708541D01*
X-15822611Y-9867367D01*
X-16024312Y-10084730D01*
X-16130265Y-10414825D01*
X-16040527Y-10627000D01*
X-14493000Y-10627000D01*
X-14493000Y-10607000D01*
X-13747000Y-10607000D01*
X-13747000Y-10627000D01*
X-12199473Y-10627000D01*
X-12109735Y-10414825D01*
X-12215688Y-10084730D01*
X-12417389Y-9867367D01*
X-12636877Y-9708541D01*
X-12618899Y-9698932D01*
X-12400392Y-9519608D01*
X-12221068Y-9301101D01*
X-12087818Y-9051808D01*
X-12005764Y-8781309D01*
X-11978057Y-8500000D01*
X-12005764Y-8218691D01*
X-12087818Y-7948192D01*
X-12221068Y-7698899D01*
X-12400392Y-7480392D01*
X-12618899Y-7301068D01*
X-12868192Y-7167818D01*
X-12956039Y-7141170D01*
X-11949868Y-6135001D01*
X-9055752Y-6135001D01*
X-9000001Y-6140492D01*
X-8944250Y-6135001D01*
X-8944249Y-6135001D01*
X-8777502Y-6118578D01*
X-8563554Y-6053677D01*
X-8366378Y-5948285D01*
X-8193552Y-5806450D01*
X-8158005Y-5763137D01*
X-7529867Y-5134999D01*
X-4055750Y-5134999D01*
X-3999999Y-5140490D01*
X-3944248Y-5134999D01*
X-3944247Y-5134999D01*
X-3777500Y-5118576D01*
X-3563552Y-5053675D01*
X-3366376Y-4948283D01*
X-3193550Y-4806448D01*
X-3158003Y-4763134D01*
X-2379443Y-3984574D01*
X-2195496Y-4107484D01*
X-1351980Y-4456880D01*
X-456508Y-4635000D01*
X456508Y-4635000D01*
X1351980Y-4456880D01*
X2195496Y-4107484D01*
X2954640Y-3600240D01*
X3600240Y-2954640D01*
X4107484Y-2195496D01*
X4456880Y-1351980D01*
X4635000Y-456508D01*
X4635000Y456508D01*
X4456880Y1351980D01*
X4107484Y2195496D01*
X3600240Y2954640D01*
X2954640Y3600240D01*
X2195496Y4107484D01*
X1351980Y4456880D01*
X456508Y4635000D01*
X-456508Y4635000D01*
X-1351980Y4456880D01*
X-2195496Y4107484D01*
X-2954640Y3600240D01*
X-3600240Y2954640D01*
X-4107484Y2195496D01*
X-4456880Y1351980D01*
X-4635000Y456508D01*
X-4635000Y-456508D01*
X-4456880Y-1351980D01*
X-4107484Y-2195496D01*
X-3984574Y-2379443D01*
X-4470130Y-2864999D01*
X-7839864Y-2864999D01*
X-7392516Y-2195496D01*
X-7043120Y-1351980D01*
X-6865000Y-456508D01*
X-6865000Y456508D01*
X-7043120Y1351980D01*
X-7392516Y2195496D01*
X-7899760Y2954640D01*
X-8545360Y3600240D01*
X-9304504Y4107484D01*
X-10148020Y4456880D01*
X-11043492Y4635000D01*
X-11956508Y4635000D01*
X-12851980Y4456880D01*
X-13695496Y4107484D01*
X-14454640Y3600240D01*
X-15100240Y2954640D01*
X-15607484Y2195496D01*
X-15956880Y1351980D01*
X-16135000Y456508D01*
X-16135000Y-456508D01*
X-15956880Y-1351980D01*
X-15607484Y-2195496D01*
X-15484575Y-2379443D01*
X-19763135Y-6658004D01*
X-19806449Y-6693551D01*
X-19948284Y-6866377D01*
X-20053675Y-7063553D01*
X-20053676Y-7063554D01*
X-20057344Y-7075646D01*
X-20105134Y-7114866D01*
X-20270000Y-7315756D01*
X-20365000Y-7199998D01*
X-20365000Y-4500040D01*
X-20148020Y-4456880D01*
X-19304504Y-4107484D01*
X-18545360Y-3600240D01*
X-17899760Y-2954640D01*
X-17392516Y-2195496D01*
X-17043120Y-1351980D01*
X-16865000Y-456508D01*
X-16865000Y456508D01*
X-17043120Y1351980D01*
X-17392516Y2195496D01*
X-17899760Y2954640D01*
X-18545360Y3600240D01*
X-19304504Y4107484D01*
X-20148020Y4456880D01*
X-21043492Y4635000D01*
X-21956508Y4635000D01*
X-22851980Y4456880D01*
X-23695496Y4107484D01*
X-24454640Y3600240D01*
X-24840000Y3214880D01*
X-24840000Y5340000D01*
X24840001Y5340000D01*
X24840001Y2812499D01*
M02*
