G04 #@! TF.GenerationSoftware,KiCad,Pcbnew,5.1.5-1.fc31*
G04 #@! TF.CreationDate,2020-04-27T16:06:12+02:00*
G04 #@! TF.ProjectId,catbit,63617462-6974-42e6-9b69-6361645f7063,rev?*
G04 #@! TF.SameCoordinates,PX913e9e0PY7be1de0*
G04 #@! TF.FileFunction,Copper,L2,Bot*
G04 #@! TF.FilePolarity,Positive*
%FSLAX46Y46*%
G04 Gerber Fmt 4.6, Leading zero omitted, Abs format (unit mm)*
G04 Created by KiCad (PCBNEW 5.1.5-1.fc31) date 2020-04-27 16:06:12*
%MOMM*%
%LPD*%
G04 APERTURE LIST*
%ADD10C,8.000000*%
%ADD11O,1.905000X3.000000*%
%ADD12R,1.905000X3.000000*%
%ADD13O,1.600000X3.000000*%
%ADD14R,1.600000X3.000000*%
%ADD15R,3.000000X1.500000*%
%ADD16O,3.000000X1.500000*%
%ADD17O,3.000000X1.600000*%
%ADD18O,1.700000X3.000000*%
%ADD19R,1.700000X3.000000*%
%ADD20O,3.000000X1.700000*%
%ADD21R,3.000000X1.700000*%
%ADD22C,1.000000*%
%ADD23C,0.254000*%
G04 APERTURE END LIST*
D10*
X21500000Y0D03*
X11500000Y0D03*
X-21500000Y0D03*
X-11500000Y0D03*
X0Y0D03*
D11*
X17920000Y-8000000D03*
X20460000Y-8000000D03*
D12*
X23000000Y-8000000D03*
D13*
X8000000Y-17000000D03*
D14*
X10500000Y-17000000D03*
D15*
X1500000Y-9500000D03*
D16*
X1500000Y-14580000D03*
X1500000Y-12040000D03*
D17*
X-3500000Y-13500000D03*
X-11120000Y-13500000D03*
X-11120000Y-8500000D03*
X-3500000Y-8500000D03*
D18*
X-2040000Y-19500000D03*
D19*
X500000Y-19500000D03*
D20*
X-16500000Y-8420000D03*
X-16500000Y-10960000D03*
D21*
X-16500000Y-13500000D03*
D20*
X-22000000Y-8420000D03*
X-22000000Y-10960000D03*
D21*
X-22000000Y-13500000D03*
D20*
X-17500000Y-20540000D03*
D21*
X-17500000Y-18000000D03*
D13*
X8000000Y-10500000D03*
D14*
X10500000Y-10500000D03*
D22*
X-22000000Y-10960000D02*
X-16500000Y-10960000D01*
X-3080000Y-20540000D02*
X-17500000Y-20540000D01*
X-2040000Y-19500000D02*
X-3080000Y-20540000D01*
X10500000Y-10664002D02*
X10500000Y-10500000D01*
X15420000Y-10500000D02*
X17920000Y-8000000D01*
X10500000Y-10500000D02*
X15420000Y-10500000D01*
X10500000Y-11245598D02*
X10500000Y-10500000D01*
X-480012Y-16330010D02*
X5415588Y-16330010D01*
X-2040000Y-17889998D02*
X-480012Y-16330010D01*
X5415588Y-16330010D02*
X10500000Y-11245598D01*
X-2040000Y-19500000D02*
X-2040000Y-17889998D01*
X-20000000Y-20540000D02*
X-17500000Y-20540000D01*
X-24500001Y-16039999D02*
X-20000000Y-20540000D01*
X-22000000Y-10960000D02*
X-24500001Y-10960001D01*
X-24500001Y-10960001D02*
X-24500001Y-16039999D01*
X20460000Y-10000000D02*
X20460000Y-8000000D01*
X18459990Y-12000010D02*
X20460000Y-10000000D01*
X13699990Y-12000010D02*
X18459990Y-12000010D01*
X10500000Y-15200000D02*
X13699990Y-12000010D01*
X10500000Y-17000000D02*
X10500000Y-15200000D01*
X20460000Y-8000000D02*
X20000000Y-8000000D01*
X20460000Y-7231234D02*
X20460000Y-8000000D01*
X15499999Y-3999999D02*
X17228765Y-3999999D01*
X17228765Y-3999999D02*
X20460000Y-7231234D01*
X11500000Y0D02*
X15499999Y-3999999D01*
X-16500000Y-5000000D02*
X-16500000Y-8420000D01*
X-11500000Y0D02*
X-16500000Y-5000000D01*
X-1000000Y-14580000D02*
X1500000Y-14580000D01*
X-1334402Y-14580000D02*
X-1000000Y-14580000D01*
X-4754402Y-18000000D02*
X-1334402Y-14580000D01*
X-17500000Y-18000000D02*
X-4754402Y-18000000D01*
X1500000Y-12040000D02*
X-2960000Y-12040000D01*
X-3500000Y-13500000D02*
X-3000000Y-12000000D01*
X-3000000Y-12000000D02*
X-3500000Y-8500000D01*
X-22000000Y-500000D02*
X-21500000Y0D01*
X-22000000Y-8420000D02*
X-22000000Y-500000D01*
X-8500000Y-8500000D02*
X-11120000Y-8500000D01*
X0Y0D02*
X-8500000Y-8500000D01*
D23*
G36*
X25340001Y2546638D02*
G01*
X24933843Y2906341D01*
X22027502Y0D01*
X24933843Y-2906341D01*
X25340001Y-2546638D01*
X25340000Y-21840000D01*
X-16131917Y-21840000D01*
X-16020986Y-21780706D01*
X-15892183Y-21675000D01*
X-3135751Y-21675000D01*
X-3080000Y-21680491D01*
X-3024249Y-21675000D01*
X-3024248Y-21675000D01*
X-2857501Y-21658577D01*
X-2643553Y-21593676D01*
X-2554108Y-21545867D01*
X-2331111Y-21613513D01*
X-2040000Y-21642185D01*
X-1748890Y-21613513D01*
X-1468967Y-21528599D01*
X-1210987Y-21390706D01*
X-984866Y-21205134D01*
X-960393Y-21175313D01*
X-939502Y-21244180D01*
X-880537Y-21354494D01*
X-801185Y-21451185D01*
X-704494Y-21530537D01*
X-594180Y-21589502D01*
X-474482Y-21625812D01*
X-350000Y-21638072D01*
X-31750Y-21635000D01*
X127000Y-21476250D01*
X127000Y-19873000D01*
X873000Y-19873000D01*
X873000Y-21476250D01*
X1031750Y-21635000D01*
X1350000Y-21638072D01*
X1474482Y-21625812D01*
X1594180Y-21589502D01*
X1704494Y-21530537D01*
X1801185Y-21451185D01*
X1880537Y-21354494D01*
X1939502Y-21244180D01*
X1975812Y-21124482D01*
X1988072Y-21000000D01*
X1985000Y-20031750D01*
X1826250Y-19873000D01*
X873000Y-19873000D01*
X127000Y-19873000D01*
X107000Y-19873000D01*
X107000Y-19127000D01*
X127000Y-19127000D01*
X127000Y-19107000D01*
X873000Y-19107000D01*
X873000Y-19127000D01*
X1826250Y-19127000D01*
X1985000Y-18968250D01*
X1988072Y-18000000D01*
X1975812Y-17875518D01*
X1939502Y-17755820D01*
X1880537Y-17645506D01*
X1849806Y-17608060D01*
X6490154Y-17608060D01*
X6501229Y-17904383D01*
X6569901Y-18192852D01*
X6693531Y-18462380D01*
X6867367Y-18702611D01*
X7084730Y-18904312D01*
X7414825Y-19010265D01*
X7627000Y-18920527D01*
X7627000Y-17373000D01*
X6681875Y-17373000D01*
X6490154Y-17608060D01*
X1849806Y-17608060D01*
X1801185Y-17548815D01*
X1704494Y-17469463D01*
X1696163Y-17465010D01*
X5359837Y-17465010D01*
X5415588Y-17470501D01*
X5471339Y-17465010D01*
X5471340Y-17465010D01*
X5638087Y-17448587D01*
X5852035Y-17383686D01*
X6049211Y-17278294D01*
X6222037Y-17136459D01*
X6257584Y-17093145D01*
X6723729Y-16627000D01*
X7627000Y-16627000D01*
X7627000Y-16607000D01*
X8373000Y-16607000D01*
X8373000Y-16627000D01*
X8393000Y-16627000D01*
X8393000Y-17373000D01*
X8373000Y-17373000D01*
X8373000Y-18920527D01*
X8585175Y-19010265D01*
X8915270Y-18904312D01*
X9105520Y-18727770D01*
X9110498Y-18744180D01*
X9169463Y-18854494D01*
X9248815Y-18951185D01*
X9345506Y-19030537D01*
X9455820Y-19089502D01*
X9575518Y-19125812D01*
X9700000Y-19138072D01*
X11300000Y-19138072D01*
X11424482Y-19125812D01*
X11544180Y-19089502D01*
X11654494Y-19030537D01*
X11751185Y-18951185D01*
X11830537Y-18854494D01*
X11889502Y-18744180D01*
X11925812Y-18624482D01*
X11938072Y-18500000D01*
X11938072Y-15500000D01*
X11926153Y-15378978D01*
X14170122Y-13135010D01*
X18404239Y-13135010D01*
X18459990Y-13140501D01*
X18515741Y-13135010D01*
X18515742Y-13135010D01*
X18682489Y-13118587D01*
X18896437Y-13053686D01*
X19093613Y-12948294D01*
X19266439Y-12806459D01*
X19301986Y-12763145D01*
X21223141Y-10841991D01*
X21266449Y-10806449D01*
X21408284Y-10633623D01*
X21513676Y-10436447D01*
X21578577Y-10222499D01*
X21595000Y-10055752D01*
X21595000Y-10055743D01*
X21600490Y-10000001D01*
X21595596Y-9950309D01*
X21596315Y-9951185D01*
X21693006Y-10030537D01*
X21803320Y-10089502D01*
X21923018Y-10125812D01*
X22047500Y-10138072D01*
X22468250Y-10135000D01*
X22627000Y-9976250D01*
X22627000Y-8373000D01*
X23373000Y-8373000D01*
X23373000Y-9976250D01*
X23531750Y-10135000D01*
X23952500Y-10138072D01*
X24076982Y-10125812D01*
X24196680Y-10089502D01*
X24306994Y-10030537D01*
X24403685Y-9951185D01*
X24483037Y-9854494D01*
X24542002Y-9744180D01*
X24578312Y-9624482D01*
X24590572Y-9500000D01*
X24587500Y-8531750D01*
X24428750Y-8373000D01*
X23373000Y-8373000D01*
X22627000Y-8373000D01*
X22607000Y-8373000D01*
X22607000Y-7627000D01*
X22627000Y-7627000D01*
X22627000Y-6023750D01*
X23373000Y-6023750D01*
X23373000Y-7627000D01*
X24428750Y-7627000D01*
X24587500Y-7468250D01*
X24590572Y-6500000D01*
X24578312Y-6375518D01*
X24542002Y-6255820D01*
X24483037Y-6145506D01*
X24403685Y-6048815D01*
X24306994Y-5969463D01*
X24196680Y-5910498D01*
X24076982Y-5874188D01*
X23952500Y-5861928D01*
X23531750Y-5865000D01*
X23373000Y-6023750D01*
X22627000Y-6023750D01*
X22468250Y-5865000D01*
X22047500Y-5861928D01*
X21923018Y-5874188D01*
X21803320Y-5910498D01*
X21693006Y-5969463D01*
X21596315Y-6048815D01*
X21516963Y-6145506D01*
X21472095Y-6229446D01*
X21346235Y-6126155D01*
X21070449Y-5978745D01*
X20771204Y-5887970D01*
X20716478Y-5882580D01*
X18267741Y-3433843D01*
X18593659Y-3433843D01*
X19072990Y-3975079D01*
X19895124Y-4372185D01*
X20778933Y-4601270D01*
X21690451Y-4653531D01*
X22594651Y-4526960D01*
X23456784Y-4226420D01*
X23927010Y-3975079D01*
X24406341Y-3433843D01*
X21500000Y-527502D01*
X18593659Y-3433843D01*
X18267741Y-3433843D01*
X18070761Y-3236864D01*
X18035214Y-3193550D01*
X17862388Y-3051715D01*
X17665212Y-2946323D01*
X17451264Y-2881422D01*
X17284517Y-2864999D01*
X17284516Y-2864999D01*
X17228765Y-2859508D01*
X17173014Y-2864999D01*
X15970131Y-2864999D01*
X15484575Y-2379443D01*
X15607484Y-2195496D01*
X15956880Y-1351980D01*
X16135000Y-456508D01*
X16135000Y-190451D01*
X16846469Y-190451D01*
X16973040Y-1094651D01*
X17273580Y-1956784D01*
X17524921Y-2427010D01*
X18066157Y-2906341D01*
X20972498Y0D01*
X18066157Y2906341D01*
X17524921Y2427010D01*
X17127815Y1604876D01*
X16898730Y721067D01*
X16846469Y-190451D01*
X16135000Y-190451D01*
X16135000Y456508D01*
X15956880Y1351980D01*
X15607484Y2195496D01*
X15100240Y2954640D01*
X14621037Y3433843D01*
X18593659Y3433843D01*
X21500000Y527502D01*
X24406341Y3433843D01*
X23927010Y3975079D01*
X23104876Y4372185D01*
X22221067Y4601270D01*
X21309549Y4653531D01*
X20405349Y4526960D01*
X19543216Y4226420D01*
X19072990Y3975079D01*
X18593659Y3433843D01*
X14621037Y3433843D01*
X14454640Y3600240D01*
X13695496Y4107484D01*
X12851980Y4456880D01*
X11956508Y4635000D01*
X11043492Y4635000D01*
X10148020Y4456880D01*
X9304504Y4107484D01*
X8545360Y3600240D01*
X7899760Y2954640D01*
X7392516Y2195496D01*
X7043120Y1351980D01*
X6865000Y456508D01*
X6865000Y-456508D01*
X7043120Y-1351980D01*
X7392516Y-2195496D01*
X7899760Y-2954640D01*
X8545360Y-3600240D01*
X9304504Y-4107484D01*
X10148020Y-4456880D01*
X11043492Y-4635000D01*
X11956508Y-4635000D01*
X12851980Y-4456880D01*
X13695496Y-4107484D01*
X13879443Y-3984575D01*
X14658008Y-4763140D01*
X14693550Y-4806448D01*
X14861459Y-4944248D01*
X14866376Y-4948283D01*
X15063552Y-5053675D01*
X15277500Y-5118576D01*
X15499999Y-5140490D01*
X15555751Y-5134999D01*
X16758634Y-5134999D01*
X17534226Y-5910591D01*
X17309552Y-5978745D01*
X17033766Y-6126155D01*
X16792038Y-6324537D01*
X16593656Y-6566265D01*
X16446245Y-6842051D01*
X16355470Y-7141296D01*
X16332500Y-7374514D01*
X16332500Y-7982368D01*
X14949869Y-9365000D01*
X11938072Y-9365000D01*
X11938072Y-9000000D01*
X11925812Y-8875518D01*
X11889502Y-8755820D01*
X11830537Y-8645506D01*
X11751185Y-8548815D01*
X11654494Y-8469463D01*
X11544180Y-8410498D01*
X11424482Y-8374188D01*
X11300000Y-8361928D01*
X9700000Y-8361928D01*
X9575518Y-8374188D01*
X9455820Y-8410498D01*
X9345506Y-8469463D01*
X9248815Y-8548815D01*
X9169463Y-8645506D01*
X9110498Y-8755820D01*
X9105520Y-8772230D01*
X8915270Y-8595688D01*
X8585175Y-8489735D01*
X8373000Y-8579473D01*
X8373000Y-10127000D01*
X8393000Y-10127000D01*
X8393000Y-10873000D01*
X8373000Y-10873000D01*
X8373000Y-10893000D01*
X7627000Y-10893000D01*
X7627000Y-10873000D01*
X6681875Y-10873000D01*
X6490154Y-11108060D01*
X6501229Y-11404383D01*
X6569901Y-11692852D01*
X6693531Y-11962380D01*
X6867367Y-12202611D01*
X7084730Y-12404312D01*
X7414825Y-12510265D01*
X7626998Y-12420528D01*
X7626998Y-12513468D01*
X4945457Y-15195010D01*
X3491705Y-15195010D01*
X3535764Y-15112581D01*
X3614960Y-14851507D01*
X3641701Y-14580000D01*
X3614960Y-14308493D01*
X3535764Y-14047419D01*
X3407157Y-13806812D01*
X3234081Y-13595919D01*
X3023188Y-13422843D01*
X2812073Y-13310000D01*
X3023188Y-13197157D01*
X3234081Y-13024081D01*
X3407157Y-12813188D01*
X3535764Y-12572581D01*
X3614960Y-12311507D01*
X3641701Y-12040000D01*
X3614960Y-11768493D01*
X3535764Y-11507419D01*
X3407157Y-11266812D01*
X3234081Y-11055919D01*
X3026392Y-10885473D01*
X3124482Y-10875812D01*
X3244180Y-10839502D01*
X3354494Y-10780537D01*
X3451185Y-10701185D01*
X3530537Y-10604494D01*
X3589502Y-10494180D01*
X3625812Y-10374482D01*
X3638072Y-10250000D01*
X3635000Y-10031750D01*
X3495190Y-9891940D01*
X6490154Y-9891940D01*
X6681875Y-10127000D01*
X7627000Y-10127000D01*
X7627000Y-8579473D01*
X7414825Y-8489735D01*
X7084730Y-8595688D01*
X6867367Y-8797389D01*
X6693531Y-9037620D01*
X6569901Y-9307148D01*
X6501229Y-9595617D01*
X6490154Y-9891940D01*
X3495190Y-9891940D01*
X3476250Y-9873000D01*
X1873000Y-9873000D01*
X1873000Y-9893000D01*
X1127000Y-9893000D01*
X1127000Y-9873000D01*
X-476250Y-9873000D01*
X-635000Y-10031750D01*
X-638072Y-10250000D01*
X-625812Y-10374482D01*
X-589502Y-10494180D01*
X-530537Y-10604494D01*
X-451185Y-10701185D01*
X-354494Y-10780537D01*
X-244180Y-10839502D01*
X-124482Y-10875812D01*
X-26392Y-10885473D01*
X-50186Y-10905000D01*
X-2009906Y-10905000D01*
X-2169197Y-9789958D01*
X-1998899Y-9698932D01*
X-1780392Y-9519608D01*
X-1601068Y-9301101D01*
X-1467818Y-9051808D01*
X-1385764Y-8781309D01*
X-1382681Y-8750000D01*
X-638072Y-8750000D01*
X-635000Y-8968250D01*
X-476250Y-9127000D01*
X1127000Y-9127000D01*
X1127000Y-8273750D01*
X1873000Y-8273750D01*
X1873000Y-9127000D01*
X3476250Y-9127000D01*
X3635000Y-8968250D01*
X3638072Y-8750000D01*
X3625812Y-8625518D01*
X3589502Y-8505820D01*
X3530537Y-8395506D01*
X3451185Y-8298815D01*
X3354494Y-8219463D01*
X3244180Y-8160498D01*
X3124482Y-8124188D01*
X3000000Y-8111928D01*
X2031750Y-8115000D01*
X1873000Y-8273750D01*
X1127000Y-8273750D01*
X968250Y-8115000D01*
X0Y-8111928D01*
X-124482Y-8124188D01*
X-244180Y-8160498D01*
X-354494Y-8219463D01*
X-451185Y-8298815D01*
X-530537Y-8395506D01*
X-589502Y-8505820D01*
X-625812Y-8625518D01*
X-638072Y-8750000D01*
X-1382681Y-8750000D01*
X-1358057Y-8500000D01*
X-1385764Y-8218691D01*
X-1467818Y-7948192D01*
X-1601068Y-7698899D01*
X-1780392Y-7480392D01*
X-1998899Y-7301068D01*
X-2248192Y-7167818D01*
X-2518691Y-7085764D01*
X-2729508Y-7065000D01*
X-4270492Y-7065000D01*
X-4481309Y-7085764D01*
X-4751808Y-7167818D01*
X-5001101Y-7301068D01*
X-5219608Y-7480392D01*
X-5398932Y-7698899D01*
X-5532182Y-7948192D01*
X-5614236Y-8218691D01*
X-5641943Y-8500000D01*
X-5614236Y-8781309D01*
X-5532182Y-9051808D01*
X-5398932Y-9301101D01*
X-5219608Y-9519608D01*
X-5001101Y-9698932D01*
X-4751808Y-9832182D01*
X-4481309Y-9914236D01*
X-4443964Y-9917914D01*
X-4161484Y-11895269D01*
X-4218061Y-12065000D01*
X-4270492Y-12065000D01*
X-4481309Y-12085764D01*
X-4751808Y-12167818D01*
X-5001101Y-12301068D01*
X-5219608Y-12480392D01*
X-5398932Y-12698899D01*
X-5532182Y-12948192D01*
X-5614236Y-13218691D01*
X-5641943Y-13500000D01*
X-5614236Y-13781309D01*
X-5532182Y-14051808D01*
X-5398932Y-14301101D01*
X-5219608Y-14519608D01*
X-5001101Y-14698932D01*
X-4751808Y-14832182D01*
X-4481309Y-14914236D01*
X-4270492Y-14935000D01*
X-3294534Y-14935000D01*
X-5224533Y-16865000D01*
X-15432317Y-16865000D01*
X-15469463Y-16795506D01*
X-15548815Y-16698815D01*
X-15645506Y-16619463D01*
X-15755820Y-16560498D01*
X-15875518Y-16524188D01*
X-16000000Y-16511928D01*
X-19000000Y-16511928D01*
X-19124482Y-16524188D01*
X-19244180Y-16560498D01*
X-19354494Y-16619463D01*
X-19451185Y-16698815D01*
X-19530537Y-16795506D01*
X-19589502Y-16905820D01*
X-19625812Y-17025518D01*
X-19638072Y-17150000D01*
X-19638072Y-18850000D01*
X-19625812Y-18974482D01*
X-19589502Y-19094180D01*
X-19530537Y-19204494D01*
X-19451185Y-19301185D01*
X-19354494Y-19380537D01*
X-19308728Y-19405000D01*
X-19529868Y-19405000D01*
X-23365001Y-15569868D01*
X-23365001Y-14987644D01*
X-22531750Y-14985000D01*
X-22373000Y-14826250D01*
X-22373000Y-13873000D01*
X-21627000Y-13873000D01*
X-21627000Y-14826250D01*
X-21468250Y-14985000D01*
X-20500000Y-14988072D01*
X-20375518Y-14975812D01*
X-20255820Y-14939502D01*
X-20145506Y-14880537D01*
X-20048815Y-14801185D01*
X-19969463Y-14704494D01*
X-19910498Y-14594180D01*
X-19874188Y-14474482D01*
X-19861928Y-14350000D01*
X-18638072Y-14350000D01*
X-18625812Y-14474482D01*
X-18589502Y-14594180D01*
X-18530537Y-14704494D01*
X-18451185Y-14801185D01*
X-18354494Y-14880537D01*
X-18244180Y-14939502D01*
X-18124482Y-14975812D01*
X-18000000Y-14988072D01*
X-17031750Y-14985000D01*
X-16873000Y-14826250D01*
X-16873000Y-13873000D01*
X-16127000Y-13873000D01*
X-16127000Y-14826250D01*
X-15968250Y-14985000D01*
X-15000000Y-14988072D01*
X-14875518Y-14975812D01*
X-14755820Y-14939502D01*
X-14645506Y-14880537D01*
X-14548815Y-14801185D01*
X-14469463Y-14704494D01*
X-14410498Y-14594180D01*
X-14374188Y-14474482D01*
X-14361928Y-14350000D01*
X-14364484Y-14085175D01*
X-13130265Y-14085175D01*
X-13024312Y-14415270D01*
X-12822611Y-14632633D01*
X-12582380Y-14806469D01*
X-12312852Y-14930099D01*
X-12024383Y-14998771D01*
X-11728060Y-15009846D01*
X-11493000Y-14818125D01*
X-11493000Y-13873000D01*
X-10747000Y-13873000D01*
X-10747000Y-14818125D01*
X-10511940Y-15009846D01*
X-10215617Y-14998771D01*
X-9927148Y-14930099D01*
X-9657620Y-14806469D01*
X-9417389Y-14632633D01*
X-9215688Y-14415270D01*
X-9109735Y-14085175D01*
X-9199473Y-13873000D01*
X-10747000Y-13873000D01*
X-11493000Y-13873000D01*
X-13040527Y-13873000D01*
X-13130265Y-14085175D01*
X-14364484Y-14085175D01*
X-14365000Y-14031750D01*
X-14523750Y-13873000D01*
X-16127000Y-13873000D01*
X-16873000Y-13873000D01*
X-18476250Y-13873000D01*
X-18635000Y-14031750D01*
X-18638072Y-14350000D01*
X-19861928Y-14350000D01*
X-19865000Y-14031750D01*
X-20023750Y-13873000D01*
X-21627000Y-13873000D01*
X-22373000Y-13873000D01*
X-22393000Y-13873000D01*
X-22393000Y-13127000D01*
X-22373000Y-13127000D01*
X-22373000Y-13107000D01*
X-21627000Y-13107000D01*
X-21627000Y-13127000D01*
X-20023750Y-13127000D01*
X-19865000Y-12968250D01*
X-19861928Y-12650000D01*
X-19874188Y-12525518D01*
X-19910498Y-12405820D01*
X-19969463Y-12295506D01*
X-20048815Y-12198815D01*
X-20145506Y-12119463D01*
X-20191272Y-12095000D01*
X-18308728Y-12095000D01*
X-18354494Y-12119463D01*
X-18451185Y-12198815D01*
X-18530537Y-12295506D01*
X-18589502Y-12405820D01*
X-18625812Y-12525518D01*
X-18638072Y-12650000D01*
X-18635000Y-12968250D01*
X-18476250Y-13127000D01*
X-16873000Y-13127000D01*
X-16873000Y-13107000D01*
X-16127000Y-13107000D01*
X-16127000Y-13127000D01*
X-14523750Y-13127000D01*
X-14365000Y-12968250D01*
X-14364485Y-12914825D01*
X-13130265Y-12914825D01*
X-13040527Y-13127000D01*
X-11493000Y-13127000D01*
X-11493000Y-12181875D01*
X-10747000Y-12181875D01*
X-10747000Y-13127000D01*
X-9199473Y-13127000D01*
X-9109735Y-12914825D01*
X-9215688Y-12584730D01*
X-9417389Y-12367367D01*
X-9657620Y-12193531D01*
X-9927148Y-12069901D01*
X-10215617Y-12001229D01*
X-10511940Y-11990154D01*
X-10747000Y-12181875D01*
X-11493000Y-12181875D01*
X-11728060Y-11990154D01*
X-12024383Y-12001229D01*
X-12312852Y-12069901D01*
X-12582380Y-12193531D01*
X-12822611Y-12367367D01*
X-13024312Y-12584730D01*
X-13130265Y-12914825D01*
X-14364485Y-12914825D01*
X-14361928Y-12650000D01*
X-14374188Y-12525518D01*
X-14410498Y-12405820D01*
X-14469463Y-12295506D01*
X-14548815Y-12198815D01*
X-14645506Y-12119463D01*
X-14755820Y-12060498D01*
X-14824687Y-12039607D01*
X-14794866Y-12015134D01*
X-14609294Y-11789014D01*
X-14471401Y-11531034D01*
X-14386487Y-11251111D01*
X-14357815Y-10960000D01*
X-14386487Y-10668889D01*
X-14471401Y-10388966D01*
X-14609294Y-10130986D01*
X-14794866Y-9904866D01*
X-15020986Y-9719294D01*
X-15075791Y-9690000D01*
X-15020986Y-9660706D01*
X-14794866Y-9475134D01*
X-14609294Y-9249014D01*
X-14471401Y-8991034D01*
X-14386487Y-8711111D01*
X-14365695Y-8500000D01*
X-13261943Y-8500000D01*
X-13234236Y-8781309D01*
X-13152182Y-9051808D01*
X-13018932Y-9301101D01*
X-12839608Y-9519608D01*
X-12621101Y-9698932D01*
X-12371808Y-9832182D01*
X-12101309Y-9914236D01*
X-11890492Y-9935000D01*
X-10349508Y-9935000D01*
X-10138691Y-9914236D01*
X-9868192Y-9832182D01*
X-9618899Y-9698932D01*
X-9540998Y-9635000D01*
X-8555751Y-9635000D01*
X-8500000Y-9640491D01*
X-8444249Y-9635000D01*
X-8444248Y-9635000D01*
X-8277501Y-9618577D01*
X-8063553Y-9553676D01*
X-7866377Y-9448284D01*
X-7693551Y-9306449D01*
X-7658004Y-9263135D01*
X-2379443Y-3984575D01*
X-2195496Y-4107484D01*
X-1351980Y-4456880D01*
X-456508Y-4635000D01*
X456508Y-4635000D01*
X1351980Y-4456880D01*
X2195496Y-4107484D01*
X2954640Y-3600240D01*
X3600240Y-2954640D01*
X4107484Y-2195496D01*
X4456880Y-1351980D01*
X4635000Y-456508D01*
X4635000Y456508D01*
X4456880Y1351980D01*
X4107484Y2195496D01*
X3600240Y2954640D01*
X2954640Y3600240D01*
X2195496Y4107484D01*
X1351980Y4456880D01*
X456508Y4635000D01*
X-456508Y4635000D01*
X-1351980Y4456880D01*
X-2195496Y4107484D01*
X-2954640Y3600240D01*
X-3600240Y2954640D01*
X-4107484Y2195496D01*
X-4456880Y1351980D01*
X-4635000Y456508D01*
X-4635000Y-456508D01*
X-4456880Y-1351980D01*
X-4107484Y-2195496D01*
X-3984575Y-2379443D01*
X-8970131Y-7365000D01*
X-9540998Y-7365000D01*
X-9618899Y-7301068D01*
X-9868192Y-7167818D01*
X-10138691Y-7085764D01*
X-10349508Y-7065000D01*
X-11890492Y-7065000D01*
X-12101309Y-7085764D01*
X-12371808Y-7167818D01*
X-12621101Y-7301068D01*
X-12839608Y-7480392D01*
X-13018932Y-7698899D01*
X-13152182Y-7948192D01*
X-13234236Y-8218691D01*
X-13261943Y-8500000D01*
X-14365695Y-8500000D01*
X-14357815Y-8420000D01*
X-14386487Y-8128889D01*
X-14471401Y-7848966D01*
X-14609294Y-7590986D01*
X-14794866Y-7364866D01*
X-15020986Y-7179294D01*
X-15278966Y-7041401D01*
X-15365000Y-7015303D01*
X-15365000Y-5470131D01*
X-13879443Y-3984574D01*
X-13695496Y-4107484D01*
X-12851980Y-4456880D01*
X-11956508Y-4635000D01*
X-11043492Y-4635000D01*
X-10148020Y-4456880D01*
X-9304504Y-4107484D01*
X-8545360Y-3600240D01*
X-7899760Y-2954640D01*
X-7392516Y-2195496D01*
X-7043120Y-1351980D01*
X-6865000Y-456508D01*
X-6865000Y456508D01*
X-7043120Y1351980D01*
X-7392516Y2195496D01*
X-7899760Y2954640D01*
X-8545360Y3600240D01*
X-9304504Y4107484D01*
X-10148020Y4456880D01*
X-11043492Y4635000D01*
X-11956508Y4635000D01*
X-12851980Y4456880D01*
X-13695496Y4107484D01*
X-14454640Y3600240D01*
X-15100240Y2954640D01*
X-15607484Y2195496D01*
X-15956880Y1351980D01*
X-16135000Y456508D01*
X-16135000Y-456508D01*
X-15956880Y-1351980D01*
X-15607484Y-2195496D01*
X-15484574Y-2379443D01*
X-17263135Y-4158004D01*
X-17306449Y-4193551D01*
X-17448284Y-4366377D01*
X-17534116Y-4526960D01*
X-17553676Y-4563554D01*
X-17618577Y-4777502D01*
X-17640491Y-5000000D01*
X-17635000Y-5055752D01*
X-17634999Y-7015303D01*
X-17721034Y-7041401D01*
X-17979014Y-7179294D01*
X-18205134Y-7364866D01*
X-18390706Y-7590986D01*
X-18528599Y-7848966D01*
X-18613513Y-8128889D01*
X-18642185Y-8420000D01*
X-18613513Y-8711111D01*
X-18528599Y-8991034D01*
X-18390706Y-9249014D01*
X-18205134Y-9475134D01*
X-17979014Y-9660706D01*
X-17924209Y-9690000D01*
X-17979014Y-9719294D01*
X-18107817Y-9825000D01*
X-20392183Y-9825000D01*
X-20520986Y-9719294D01*
X-20575791Y-9690000D01*
X-20520986Y-9660706D01*
X-20294866Y-9475134D01*
X-20109294Y-9249014D01*
X-19971401Y-8991034D01*
X-19886487Y-8711111D01*
X-19857815Y-8420000D01*
X-19886487Y-8128889D01*
X-19971401Y-7848966D01*
X-20109294Y-7590986D01*
X-20294866Y-7364866D01*
X-20520986Y-7179294D01*
X-20778966Y-7041401D01*
X-20865000Y-7015303D01*
X-20865000Y-4599496D01*
X-20148020Y-4456880D01*
X-19304504Y-4107484D01*
X-18545360Y-3600240D01*
X-17899760Y-2954640D01*
X-17392516Y-2195496D01*
X-17043120Y-1351980D01*
X-16865000Y-456508D01*
X-16865000Y456508D01*
X-17043120Y1351980D01*
X-17392516Y2195496D01*
X-17899760Y2954640D01*
X-18545360Y3600240D01*
X-19304504Y4107484D01*
X-20148020Y4456880D01*
X-21043492Y4635000D01*
X-21956508Y4635000D01*
X-22851980Y4456880D01*
X-23695496Y4107484D01*
X-24454640Y3600240D01*
X-25100240Y2954640D01*
X-25340000Y2595814D01*
X-25340000Y6340000D01*
X25340001Y6340000D01*
X25340001Y2546638D01*
G37*
X25340001Y2546638D02*
X24933843Y2906341D01*
X22027502Y0D01*
X24933843Y-2906341D01*
X25340001Y-2546638D01*
X25340000Y-21840000D01*
X-16131917Y-21840000D01*
X-16020986Y-21780706D01*
X-15892183Y-21675000D01*
X-3135751Y-21675000D01*
X-3080000Y-21680491D01*
X-3024249Y-21675000D01*
X-3024248Y-21675000D01*
X-2857501Y-21658577D01*
X-2643553Y-21593676D01*
X-2554108Y-21545867D01*
X-2331111Y-21613513D01*
X-2040000Y-21642185D01*
X-1748890Y-21613513D01*
X-1468967Y-21528599D01*
X-1210987Y-21390706D01*
X-984866Y-21205134D01*
X-960393Y-21175313D01*
X-939502Y-21244180D01*
X-880537Y-21354494D01*
X-801185Y-21451185D01*
X-704494Y-21530537D01*
X-594180Y-21589502D01*
X-474482Y-21625812D01*
X-350000Y-21638072D01*
X-31750Y-21635000D01*
X127000Y-21476250D01*
X127000Y-19873000D01*
X873000Y-19873000D01*
X873000Y-21476250D01*
X1031750Y-21635000D01*
X1350000Y-21638072D01*
X1474482Y-21625812D01*
X1594180Y-21589502D01*
X1704494Y-21530537D01*
X1801185Y-21451185D01*
X1880537Y-21354494D01*
X1939502Y-21244180D01*
X1975812Y-21124482D01*
X1988072Y-21000000D01*
X1985000Y-20031750D01*
X1826250Y-19873000D01*
X873000Y-19873000D01*
X127000Y-19873000D01*
X107000Y-19873000D01*
X107000Y-19127000D01*
X127000Y-19127000D01*
X127000Y-19107000D01*
X873000Y-19107000D01*
X873000Y-19127000D01*
X1826250Y-19127000D01*
X1985000Y-18968250D01*
X1988072Y-18000000D01*
X1975812Y-17875518D01*
X1939502Y-17755820D01*
X1880537Y-17645506D01*
X1849806Y-17608060D01*
X6490154Y-17608060D01*
X6501229Y-17904383D01*
X6569901Y-18192852D01*
X6693531Y-18462380D01*
X6867367Y-18702611D01*
X7084730Y-18904312D01*
X7414825Y-19010265D01*
X7627000Y-18920527D01*
X7627000Y-17373000D01*
X6681875Y-17373000D01*
X6490154Y-17608060D01*
X1849806Y-17608060D01*
X1801185Y-17548815D01*
X1704494Y-17469463D01*
X1696163Y-17465010D01*
X5359837Y-17465010D01*
X5415588Y-17470501D01*
X5471339Y-17465010D01*
X5471340Y-17465010D01*
X5638087Y-17448587D01*
X5852035Y-17383686D01*
X6049211Y-17278294D01*
X6222037Y-17136459D01*
X6257584Y-17093145D01*
X6723729Y-16627000D01*
X7627000Y-16627000D01*
X7627000Y-16607000D01*
X8373000Y-16607000D01*
X8373000Y-16627000D01*
X8393000Y-16627000D01*
X8393000Y-17373000D01*
X8373000Y-17373000D01*
X8373000Y-18920527D01*
X8585175Y-19010265D01*
X8915270Y-18904312D01*
X9105520Y-18727770D01*
X9110498Y-18744180D01*
X9169463Y-18854494D01*
X9248815Y-18951185D01*
X9345506Y-19030537D01*
X9455820Y-19089502D01*
X9575518Y-19125812D01*
X9700000Y-19138072D01*
X11300000Y-19138072D01*
X11424482Y-19125812D01*
X11544180Y-19089502D01*
X11654494Y-19030537D01*
X11751185Y-18951185D01*
X11830537Y-18854494D01*
X11889502Y-18744180D01*
X11925812Y-18624482D01*
X11938072Y-18500000D01*
X11938072Y-15500000D01*
X11926153Y-15378978D01*
X14170122Y-13135010D01*
X18404239Y-13135010D01*
X18459990Y-13140501D01*
X18515741Y-13135010D01*
X18515742Y-13135010D01*
X18682489Y-13118587D01*
X18896437Y-13053686D01*
X19093613Y-12948294D01*
X19266439Y-12806459D01*
X19301986Y-12763145D01*
X21223141Y-10841991D01*
X21266449Y-10806449D01*
X21408284Y-10633623D01*
X21513676Y-10436447D01*
X21578577Y-10222499D01*
X21595000Y-10055752D01*
X21595000Y-10055743D01*
X21600490Y-10000001D01*
X21595596Y-9950309D01*
X21596315Y-9951185D01*
X21693006Y-10030537D01*
X21803320Y-10089502D01*
X21923018Y-10125812D01*
X22047500Y-10138072D01*
X22468250Y-10135000D01*
X22627000Y-9976250D01*
X22627000Y-8373000D01*
X23373000Y-8373000D01*
X23373000Y-9976250D01*
X23531750Y-10135000D01*
X23952500Y-10138072D01*
X24076982Y-10125812D01*
X24196680Y-10089502D01*
X24306994Y-10030537D01*
X24403685Y-9951185D01*
X24483037Y-9854494D01*
X24542002Y-9744180D01*
X24578312Y-9624482D01*
X24590572Y-9500000D01*
X24587500Y-8531750D01*
X24428750Y-8373000D01*
X23373000Y-8373000D01*
X22627000Y-8373000D01*
X22607000Y-8373000D01*
X22607000Y-7627000D01*
X22627000Y-7627000D01*
X22627000Y-6023750D01*
X23373000Y-6023750D01*
X23373000Y-7627000D01*
X24428750Y-7627000D01*
X24587500Y-7468250D01*
X24590572Y-6500000D01*
X24578312Y-6375518D01*
X24542002Y-6255820D01*
X24483037Y-6145506D01*
X24403685Y-6048815D01*
X24306994Y-5969463D01*
X24196680Y-5910498D01*
X24076982Y-5874188D01*
X23952500Y-5861928D01*
X23531750Y-5865000D01*
X23373000Y-6023750D01*
X22627000Y-6023750D01*
X22468250Y-5865000D01*
X22047500Y-5861928D01*
X21923018Y-5874188D01*
X21803320Y-5910498D01*
X21693006Y-5969463D01*
X21596315Y-6048815D01*
X21516963Y-6145506D01*
X21472095Y-6229446D01*
X21346235Y-6126155D01*
X21070449Y-5978745D01*
X20771204Y-5887970D01*
X20716478Y-5882580D01*
X18267741Y-3433843D01*
X18593659Y-3433843D01*
X19072990Y-3975079D01*
X19895124Y-4372185D01*
X20778933Y-4601270D01*
X21690451Y-4653531D01*
X22594651Y-4526960D01*
X23456784Y-4226420D01*
X23927010Y-3975079D01*
X24406341Y-3433843D01*
X21500000Y-527502D01*
X18593659Y-3433843D01*
X18267741Y-3433843D01*
X18070761Y-3236864D01*
X18035214Y-3193550D01*
X17862388Y-3051715D01*
X17665212Y-2946323D01*
X17451264Y-2881422D01*
X17284517Y-2864999D01*
X17284516Y-2864999D01*
X17228765Y-2859508D01*
X17173014Y-2864999D01*
X15970131Y-2864999D01*
X15484575Y-2379443D01*
X15607484Y-2195496D01*
X15956880Y-1351980D01*
X16135000Y-456508D01*
X16135000Y-190451D01*
X16846469Y-190451D01*
X16973040Y-1094651D01*
X17273580Y-1956784D01*
X17524921Y-2427010D01*
X18066157Y-2906341D01*
X20972498Y0D01*
X18066157Y2906341D01*
X17524921Y2427010D01*
X17127815Y1604876D01*
X16898730Y721067D01*
X16846469Y-190451D01*
X16135000Y-190451D01*
X16135000Y456508D01*
X15956880Y1351980D01*
X15607484Y2195496D01*
X15100240Y2954640D01*
X14621037Y3433843D01*
X18593659Y3433843D01*
X21500000Y527502D01*
X24406341Y3433843D01*
X23927010Y3975079D01*
X23104876Y4372185D01*
X22221067Y4601270D01*
X21309549Y4653531D01*
X20405349Y4526960D01*
X19543216Y4226420D01*
X19072990Y3975079D01*
X18593659Y3433843D01*
X14621037Y3433843D01*
X14454640Y3600240D01*
X13695496Y4107484D01*
X12851980Y4456880D01*
X11956508Y4635000D01*
X11043492Y4635000D01*
X10148020Y4456880D01*
X9304504Y4107484D01*
X8545360Y3600240D01*
X7899760Y2954640D01*
X7392516Y2195496D01*
X7043120Y1351980D01*
X6865000Y456508D01*
X6865000Y-456508D01*
X7043120Y-1351980D01*
X7392516Y-2195496D01*
X7899760Y-2954640D01*
X8545360Y-3600240D01*
X9304504Y-4107484D01*
X10148020Y-4456880D01*
X11043492Y-4635000D01*
X11956508Y-4635000D01*
X12851980Y-4456880D01*
X13695496Y-4107484D01*
X13879443Y-3984575D01*
X14658008Y-4763140D01*
X14693550Y-4806448D01*
X14861459Y-4944248D01*
X14866376Y-4948283D01*
X15063552Y-5053675D01*
X15277500Y-5118576D01*
X15499999Y-5140490D01*
X15555751Y-5134999D01*
X16758634Y-5134999D01*
X17534226Y-5910591D01*
X17309552Y-5978745D01*
X17033766Y-6126155D01*
X16792038Y-6324537D01*
X16593656Y-6566265D01*
X16446245Y-6842051D01*
X16355470Y-7141296D01*
X16332500Y-7374514D01*
X16332500Y-7982368D01*
X14949869Y-9365000D01*
X11938072Y-9365000D01*
X11938072Y-9000000D01*
X11925812Y-8875518D01*
X11889502Y-8755820D01*
X11830537Y-8645506D01*
X11751185Y-8548815D01*
X11654494Y-8469463D01*
X11544180Y-8410498D01*
X11424482Y-8374188D01*
X11300000Y-8361928D01*
X9700000Y-8361928D01*
X9575518Y-8374188D01*
X9455820Y-8410498D01*
X9345506Y-8469463D01*
X9248815Y-8548815D01*
X9169463Y-8645506D01*
X9110498Y-8755820D01*
X9105520Y-8772230D01*
X8915270Y-8595688D01*
X8585175Y-8489735D01*
X8373000Y-8579473D01*
X8373000Y-10127000D01*
X8393000Y-10127000D01*
X8393000Y-10873000D01*
X8373000Y-10873000D01*
X8373000Y-10893000D01*
X7627000Y-10893000D01*
X7627000Y-10873000D01*
X6681875Y-10873000D01*
X6490154Y-11108060D01*
X6501229Y-11404383D01*
X6569901Y-11692852D01*
X6693531Y-11962380D01*
X6867367Y-12202611D01*
X7084730Y-12404312D01*
X7414825Y-12510265D01*
X7626998Y-12420528D01*
X7626998Y-12513468D01*
X4945457Y-15195010D01*
X3491705Y-15195010D01*
X3535764Y-15112581D01*
X3614960Y-14851507D01*
X3641701Y-14580000D01*
X3614960Y-14308493D01*
X3535764Y-14047419D01*
X3407157Y-13806812D01*
X3234081Y-13595919D01*
X3023188Y-13422843D01*
X2812073Y-13310000D01*
X3023188Y-13197157D01*
X3234081Y-13024081D01*
X3407157Y-12813188D01*
X3535764Y-12572581D01*
X3614960Y-12311507D01*
X3641701Y-12040000D01*
X3614960Y-11768493D01*
X3535764Y-11507419D01*
X3407157Y-11266812D01*
X3234081Y-11055919D01*
X3026392Y-10885473D01*
X3124482Y-10875812D01*
X3244180Y-10839502D01*
X3354494Y-10780537D01*
X3451185Y-10701185D01*
X3530537Y-10604494D01*
X3589502Y-10494180D01*
X3625812Y-10374482D01*
X3638072Y-10250000D01*
X3635000Y-10031750D01*
X3495190Y-9891940D01*
X6490154Y-9891940D01*
X6681875Y-10127000D01*
X7627000Y-10127000D01*
X7627000Y-8579473D01*
X7414825Y-8489735D01*
X7084730Y-8595688D01*
X6867367Y-8797389D01*
X6693531Y-9037620D01*
X6569901Y-9307148D01*
X6501229Y-9595617D01*
X6490154Y-9891940D01*
X3495190Y-9891940D01*
X3476250Y-9873000D01*
X1873000Y-9873000D01*
X1873000Y-9893000D01*
X1127000Y-9893000D01*
X1127000Y-9873000D01*
X-476250Y-9873000D01*
X-635000Y-10031750D01*
X-638072Y-10250000D01*
X-625812Y-10374482D01*
X-589502Y-10494180D01*
X-530537Y-10604494D01*
X-451185Y-10701185D01*
X-354494Y-10780537D01*
X-244180Y-10839502D01*
X-124482Y-10875812D01*
X-26392Y-10885473D01*
X-50186Y-10905000D01*
X-2009906Y-10905000D01*
X-2169197Y-9789958D01*
X-1998899Y-9698932D01*
X-1780392Y-9519608D01*
X-1601068Y-9301101D01*
X-1467818Y-9051808D01*
X-1385764Y-8781309D01*
X-1382681Y-8750000D01*
X-638072Y-8750000D01*
X-635000Y-8968250D01*
X-476250Y-9127000D01*
X1127000Y-9127000D01*
X1127000Y-8273750D01*
X1873000Y-8273750D01*
X1873000Y-9127000D01*
X3476250Y-9127000D01*
X3635000Y-8968250D01*
X3638072Y-8750000D01*
X3625812Y-8625518D01*
X3589502Y-8505820D01*
X3530537Y-8395506D01*
X3451185Y-8298815D01*
X3354494Y-8219463D01*
X3244180Y-8160498D01*
X3124482Y-8124188D01*
X3000000Y-8111928D01*
X2031750Y-8115000D01*
X1873000Y-8273750D01*
X1127000Y-8273750D01*
X968250Y-8115000D01*
X0Y-8111928D01*
X-124482Y-8124188D01*
X-244180Y-8160498D01*
X-354494Y-8219463D01*
X-451185Y-8298815D01*
X-530537Y-8395506D01*
X-589502Y-8505820D01*
X-625812Y-8625518D01*
X-638072Y-8750000D01*
X-1382681Y-8750000D01*
X-1358057Y-8500000D01*
X-1385764Y-8218691D01*
X-1467818Y-7948192D01*
X-1601068Y-7698899D01*
X-1780392Y-7480392D01*
X-1998899Y-7301068D01*
X-2248192Y-7167818D01*
X-2518691Y-7085764D01*
X-2729508Y-7065000D01*
X-4270492Y-7065000D01*
X-4481309Y-7085764D01*
X-4751808Y-7167818D01*
X-5001101Y-7301068D01*
X-5219608Y-7480392D01*
X-5398932Y-7698899D01*
X-5532182Y-7948192D01*
X-5614236Y-8218691D01*
X-5641943Y-8500000D01*
X-5614236Y-8781309D01*
X-5532182Y-9051808D01*
X-5398932Y-9301101D01*
X-5219608Y-9519608D01*
X-5001101Y-9698932D01*
X-4751808Y-9832182D01*
X-4481309Y-9914236D01*
X-4443964Y-9917914D01*
X-4161484Y-11895269D01*
X-4218061Y-12065000D01*
X-4270492Y-12065000D01*
X-4481309Y-12085764D01*
X-4751808Y-12167818D01*
X-5001101Y-12301068D01*
X-5219608Y-12480392D01*
X-5398932Y-12698899D01*
X-5532182Y-12948192D01*
X-5614236Y-13218691D01*
X-5641943Y-13500000D01*
X-5614236Y-13781309D01*
X-5532182Y-14051808D01*
X-5398932Y-14301101D01*
X-5219608Y-14519608D01*
X-5001101Y-14698932D01*
X-4751808Y-14832182D01*
X-4481309Y-14914236D01*
X-4270492Y-14935000D01*
X-3294534Y-14935000D01*
X-5224533Y-16865000D01*
X-15432317Y-16865000D01*
X-15469463Y-16795506D01*
X-15548815Y-16698815D01*
X-15645506Y-16619463D01*
X-15755820Y-16560498D01*
X-15875518Y-16524188D01*
X-16000000Y-16511928D01*
X-19000000Y-16511928D01*
X-19124482Y-16524188D01*
X-19244180Y-16560498D01*
X-19354494Y-16619463D01*
X-19451185Y-16698815D01*
X-19530537Y-16795506D01*
X-19589502Y-16905820D01*
X-19625812Y-17025518D01*
X-19638072Y-17150000D01*
X-19638072Y-18850000D01*
X-19625812Y-18974482D01*
X-19589502Y-19094180D01*
X-19530537Y-19204494D01*
X-19451185Y-19301185D01*
X-19354494Y-19380537D01*
X-19308728Y-19405000D01*
X-19529868Y-19405000D01*
X-23365001Y-15569868D01*
X-23365001Y-14987644D01*
X-22531750Y-14985000D01*
X-22373000Y-14826250D01*
X-22373000Y-13873000D01*
X-21627000Y-13873000D01*
X-21627000Y-14826250D01*
X-21468250Y-14985000D01*
X-20500000Y-14988072D01*
X-20375518Y-14975812D01*
X-20255820Y-14939502D01*
X-20145506Y-14880537D01*
X-20048815Y-14801185D01*
X-19969463Y-14704494D01*
X-19910498Y-14594180D01*
X-19874188Y-14474482D01*
X-19861928Y-14350000D01*
X-18638072Y-14350000D01*
X-18625812Y-14474482D01*
X-18589502Y-14594180D01*
X-18530537Y-14704494D01*
X-18451185Y-14801185D01*
X-18354494Y-14880537D01*
X-18244180Y-14939502D01*
X-18124482Y-14975812D01*
X-18000000Y-14988072D01*
X-17031750Y-14985000D01*
X-16873000Y-14826250D01*
X-16873000Y-13873000D01*
X-16127000Y-13873000D01*
X-16127000Y-14826250D01*
X-15968250Y-14985000D01*
X-15000000Y-14988072D01*
X-14875518Y-14975812D01*
X-14755820Y-14939502D01*
X-14645506Y-14880537D01*
X-14548815Y-14801185D01*
X-14469463Y-14704494D01*
X-14410498Y-14594180D01*
X-14374188Y-14474482D01*
X-14361928Y-14350000D01*
X-14364484Y-14085175D01*
X-13130265Y-14085175D01*
X-13024312Y-14415270D01*
X-12822611Y-14632633D01*
X-12582380Y-14806469D01*
X-12312852Y-14930099D01*
X-12024383Y-14998771D01*
X-11728060Y-15009846D01*
X-11493000Y-14818125D01*
X-11493000Y-13873000D01*
X-10747000Y-13873000D01*
X-10747000Y-14818125D01*
X-10511940Y-15009846D01*
X-10215617Y-14998771D01*
X-9927148Y-14930099D01*
X-9657620Y-14806469D01*
X-9417389Y-14632633D01*
X-9215688Y-14415270D01*
X-9109735Y-14085175D01*
X-9199473Y-13873000D01*
X-10747000Y-13873000D01*
X-11493000Y-13873000D01*
X-13040527Y-13873000D01*
X-13130265Y-14085175D01*
X-14364484Y-14085175D01*
X-14365000Y-14031750D01*
X-14523750Y-13873000D01*
X-16127000Y-13873000D01*
X-16873000Y-13873000D01*
X-18476250Y-13873000D01*
X-18635000Y-14031750D01*
X-18638072Y-14350000D01*
X-19861928Y-14350000D01*
X-19865000Y-14031750D01*
X-20023750Y-13873000D01*
X-21627000Y-13873000D01*
X-22373000Y-13873000D01*
X-22393000Y-13873000D01*
X-22393000Y-13127000D01*
X-22373000Y-13127000D01*
X-22373000Y-13107000D01*
X-21627000Y-13107000D01*
X-21627000Y-13127000D01*
X-20023750Y-13127000D01*
X-19865000Y-12968250D01*
X-19861928Y-12650000D01*
X-19874188Y-12525518D01*
X-19910498Y-12405820D01*
X-19969463Y-12295506D01*
X-20048815Y-12198815D01*
X-20145506Y-12119463D01*
X-20191272Y-12095000D01*
X-18308728Y-12095000D01*
X-18354494Y-12119463D01*
X-18451185Y-12198815D01*
X-18530537Y-12295506D01*
X-18589502Y-12405820D01*
X-18625812Y-12525518D01*
X-18638072Y-12650000D01*
X-18635000Y-12968250D01*
X-18476250Y-13127000D01*
X-16873000Y-13127000D01*
X-16873000Y-13107000D01*
X-16127000Y-13107000D01*
X-16127000Y-13127000D01*
X-14523750Y-13127000D01*
X-14365000Y-12968250D01*
X-14364485Y-12914825D01*
X-13130265Y-12914825D01*
X-13040527Y-13127000D01*
X-11493000Y-13127000D01*
X-11493000Y-12181875D01*
X-10747000Y-12181875D01*
X-10747000Y-13127000D01*
X-9199473Y-13127000D01*
X-9109735Y-12914825D01*
X-9215688Y-12584730D01*
X-9417389Y-12367367D01*
X-9657620Y-12193531D01*
X-9927148Y-12069901D01*
X-10215617Y-12001229D01*
X-10511940Y-11990154D01*
X-10747000Y-12181875D01*
X-11493000Y-12181875D01*
X-11728060Y-11990154D01*
X-12024383Y-12001229D01*
X-12312852Y-12069901D01*
X-12582380Y-12193531D01*
X-12822611Y-12367367D01*
X-13024312Y-12584730D01*
X-13130265Y-12914825D01*
X-14364485Y-12914825D01*
X-14361928Y-12650000D01*
X-14374188Y-12525518D01*
X-14410498Y-12405820D01*
X-14469463Y-12295506D01*
X-14548815Y-12198815D01*
X-14645506Y-12119463D01*
X-14755820Y-12060498D01*
X-14824687Y-12039607D01*
X-14794866Y-12015134D01*
X-14609294Y-11789014D01*
X-14471401Y-11531034D01*
X-14386487Y-11251111D01*
X-14357815Y-10960000D01*
X-14386487Y-10668889D01*
X-14471401Y-10388966D01*
X-14609294Y-10130986D01*
X-14794866Y-9904866D01*
X-15020986Y-9719294D01*
X-15075791Y-9690000D01*
X-15020986Y-9660706D01*
X-14794866Y-9475134D01*
X-14609294Y-9249014D01*
X-14471401Y-8991034D01*
X-14386487Y-8711111D01*
X-14365695Y-8500000D01*
X-13261943Y-8500000D01*
X-13234236Y-8781309D01*
X-13152182Y-9051808D01*
X-13018932Y-9301101D01*
X-12839608Y-9519608D01*
X-12621101Y-9698932D01*
X-12371808Y-9832182D01*
X-12101309Y-9914236D01*
X-11890492Y-9935000D01*
X-10349508Y-9935000D01*
X-10138691Y-9914236D01*
X-9868192Y-9832182D01*
X-9618899Y-9698932D01*
X-9540998Y-9635000D01*
X-8555751Y-9635000D01*
X-8500000Y-9640491D01*
X-8444249Y-9635000D01*
X-8444248Y-9635000D01*
X-8277501Y-9618577D01*
X-8063553Y-9553676D01*
X-7866377Y-9448284D01*
X-7693551Y-9306449D01*
X-7658004Y-9263135D01*
X-2379443Y-3984575D01*
X-2195496Y-4107484D01*
X-1351980Y-4456880D01*
X-456508Y-4635000D01*
X456508Y-4635000D01*
X1351980Y-4456880D01*
X2195496Y-4107484D01*
X2954640Y-3600240D01*
X3600240Y-2954640D01*
X4107484Y-2195496D01*
X4456880Y-1351980D01*
X4635000Y-456508D01*
X4635000Y456508D01*
X4456880Y1351980D01*
X4107484Y2195496D01*
X3600240Y2954640D01*
X2954640Y3600240D01*
X2195496Y4107484D01*
X1351980Y4456880D01*
X456508Y4635000D01*
X-456508Y4635000D01*
X-1351980Y4456880D01*
X-2195496Y4107484D01*
X-2954640Y3600240D01*
X-3600240Y2954640D01*
X-4107484Y2195496D01*
X-4456880Y1351980D01*
X-4635000Y456508D01*
X-4635000Y-456508D01*
X-4456880Y-1351980D01*
X-4107484Y-2195496D01*
X-3984575Y-2379443D01*
X-8970131Y-7365000D01*
X-9540998Y-7365000D01*
X-9618899Y-7301068D01*
X-9868192Y-7167818D01*
X-10138691Y-7085764D01*
X-10349508Y-7065000D01*
X-11890492Y-7065000D01*
X-12101309Y-7085764D01*
X-12371808Y-7167818D01*
X-12621101Y-7301068D01*
X-12839608Y-7480392D01*
X-13018932Y-7698899D01*
X-13152182Y-7948192D01*
X-13234236Y-8218691D01*
X-13261943Y-8500000D01*
X-14365695Y-8500000D01*
X-14357815Y-8420000D01*
X-14386487Y-8128889D01*
X-14471401Y-7848966D01*
X-14609294Y-7590986D01*
X-14794866Y-7364866D01*
X-15020986Y-7179294D01*
X-15278966Y-7041401D01*
X-15365000Y-7015303D01*
X-15365000Y-5470131D01*
X-13879443Y-3984574D01*
X-13695496Y-4107484D01*
X-12851980Y-4456880D01*
X-11956508Y-4635000D01*
X-11043492Y-4635000D01*
X-10148020Y-4456880D01*
X-9304504Y-4107484D01*
X-8545360Y-3600240D01*
X-7899760Y-2954640D01*
X-7392516Y-2195496D01*
X-7043120Y-1351980D01*
X-6865000Y-456508D01*
X-6865000Y456508D01*
X-7043120Y1351980D01*
X-7392516Y2195496D01*
X-7899760Y2954640D01*
X-8545360Y3600240D01*
X-9304504Y4107484D01*
X-10148020Y4456880D01*
X-11043492Y4635000D01*
X-11956508Y4635000D01*
X-12851980Y4456880D01*
X-13695496Y4107484D01*
X-14454640Y3600240D01*
X-15100240Y2954640D01*
X-15607484Y2195496D01*
X-15956880Y1351980D01*
X-16135000Y456508D01*
X-16135000Y-456508D01*
X-15956880Y-1351980D01*
X-15607484Y-2195496D01*
X-15484574Y-2379443D01*
X-17263135Y-4158004D01*
X-17306449Y-4193551D01*
X-17448284Y-4366377D01*
X-17534116Y-4526960D01*
X-17553676Y-4563554D01*
X-17618577Y-4777502D01*
X-17640491Y-5000000D01*
X-17635000Y-5055752D01*
X-17634999Y-7015303D01*
X-17721034Y-7041401D01*
X-17979014Y-7179294D01*
X-18205134Y-7364866D01*
X-18390706Y-7590986D01*
X-18528599Y-7848966D01*
X-18613513Y-8128889D01*
X-18642185Y-8420000D01*
X-18613513Y-8711111D01*
X-18528599Y-8991034D01*
X-18390706Y-9249014D01*
X-18205134Y-9475134D01*
X-17979014Y-9660706D01*
X-17924209Y-9690000D01*
X-17979014Y-9719294D01*
X-18107817Y-9825000D01*
X-20392183Y-9825000D01*
X-20520986Y-9719294D01*
X-20575791Y-9690000D01*
X-20520986Y-9660706D01*
X-20294866Y-9475134D01*
X-20109294Y-9249014D01*
X-19971401Y-8991034D01*
X-19886487Y-8711111D01*
X-19857815Y-8420000D01*
X-19886487Y-8128889D01*
X-19971401Y-7848966D01*
X-20109294Y-7590986D01*
X-20294866Y-7364866D01*
X-20520986Y-7179294D01*
X-20778966Y-7041401D01*
X-20865000Y-7015303D01*
X-20865000Y-4599496D01*
X-20148020Y-4456880D01*
X-19304504Y-4107484D01*
X-18545360Y-3600240D01*
X-17899760Y-2954640D01*
X-17392516Y-2195496D01*
X-17043120Y-1351980D01*
X-16865000Y-456508D01*
X-16865000Y456508D01*
X-17043120Y1351980D01*
X-17392516Y2195496D01*
X-17899760Y2954640D01*
X-18545360Y3600240D01*
X-19304504Y4107484D01*
X-20148020Y4456880D01*
X-21043492Y4635000D01*
X-21956508Y4635000D01*
X-22851980Y4456880D01*
X-23695496Y4107484D01*
X-24454640Y3600240D01*
X-25100240Y2954640D01*
X-25340000Y2595814D01*
X-25340000Y6340000D01*
X25340001Y6340000D01*
X25340001Y2546638D01*
M02*
