G04 #@! TF.GenerationSoftware,KiCad,Pcbnew,5.1.5-1.fc31*
G04 #@! TF.CreationDate,2020-04-30T10:40:34+02:00*
G04 #@! TF.ProjectId,catbit,63617462-6974-42e6-9b69-6361645f7063,rev?*
G04 #@! TF.SameCoordinates,PX78ed080PY90dcf60*
G04 #@! TF.FileFunction,Copper,L2,Bot*
G04 #@! TF.FilePolarity,Positive*
%FSLAX46Y46*%
G04 Gerber Fmt 4.6, Leading zero omitted, Abs format (unit mm)*
G04 Created by KiCad (PCBNEW 5.1.5-1.fc31) date 2020-04-30 10:40:34*
%MOMM*%
%LPD*%
G04 APERTURE LIST*
%ADD10O,1.600000X3.000000*%
%ADD11O,3.000000X1.700000*%
%ADD12R,3.000000X1.700000*%
%ADD13O,2.800000X1.800000*%
%ADD14R,2.800000X1.800000*%
%ADD15C,8.000000*%
%ADD16O,1.905000X3.000000*%
%ADD17R,1.905000X3.000000*%
%ADD18R,1.600000X3.000000*%
%ADD19R,1.500000X3.000000*%
%ADD20O,1.500000X3.000000*%
%ADD21O,3.000000X1.600000*%
%ADD22O,1.700000X3.000000*%
%ADD23R,1.700000X3.000000*%
%ADD24C,3.000000*%
%ADD25C,1.000000*%
%ADD26C,0.254000*%
G04 APERTURE END LIST*
D10*
X31000000Y7380000D03*
X31000000Y15000000D03*
D11*
X3360000Y13830000D03*
X7100000Y13830000D03*
X4560000Y11290000D03*
X7100000Y11290000D03*
X4560000Y8750000D03*
D12*
X7100000Y8750000D03*
D13*
X27140000Y13000000D03*
D14*
X23500000Y13000000D03*
D15*
X47000000Y22000000D03*
X37000000Y22000000D03*
X4000000Y22000000D03*
X14000000Y22000000D03*
X25500000Y22000000D03*
D16*
X41920000Y14000000D03*
X44460000Y14000000D03*
D17*
X47000000Y14000000D03*
D10*
X34000000Y5000000D03*
D18*
X36500000Y5000000D03*
D19*
X17250000Y5750000D03*
D20*
X12170000Y5750000D03*
X14710000Y5750000D03*
D21*
X19000000Y11000000D03*
X11380000Y11000000D03*
X11380000Y13500000D03*
X19000000Y13500000D03*
D22*
X24210000Y2500000D03*
D23*
X26750000Y2500000D03*
D22*
X3960000Y4000000D03*
D23*
X6500000Y4000000D03*
D10*
X34750000Y12250000D03*
D18*
X37250000Y12250000D03*
D24*
X29750000Y4000000D03*
X23000000Y8750000D03*
D25*
X3960000Y8750000D02*
X6500000Y8750000D01*
X39000000Y14000000D02*
X37250000Y12250000D01*
X41920000Y14000000D02*
X39000000Y14000000D01*
X32800000Y7380000D02*
X31000000Y7380000D01*
X33125598Y7380000D02*
X32800000Y7380000D01*
X37250000Y11504402D02*
X33125598Y7380000D01*
X37250000Y12250000D02*
X37250000Y11504402D01*
X24210000Y5000000D02*
X24210000Y2500000D01*
X26590000Y7380000D02*
X24210000Y5000000D01*
X31000000Y7380000D02*
X26590000Y7380000D01*
X6500000Y11290000D02*
X3960000Y11290000D01*
X2059990Y4050010D02*
X2110000Y4000000D01*
X2059990Y9516299D02*
X2059990Y4050010D01*
X3833691Y11290000D02*
X2059990Y9516299D01*
X2110000Y4000000D02*
X3960000Y4000000D01*
X3960000Y11290000D02*
X3833691Y11290000D01*
X22360000Y2500000D02*
X24210000Y2500000D01*
X21359999Y1499999D02*
X22360000Y2500000D01*
X4849999Y1499999D02*
X21359999Y1499999D01*
X3960000Y2389998D02*
X4849999Y1499999D01*
X3960000Y4000000D02*
X3960000Y2389998D01*
X44460000Y11160000D02*
X44460000Y11500000D01*
X38300000Y5000000D02*
X44460000Y11160000D01*
X44460000Y11500000D02*
X44460000Y14000000D01*
X36500000Y5000000D02*
X38300000Y5000000D01*
X40999999Y18000001D02*
X37000000Y22000000D01*
X41228765Y18000001D02*
X40999999Y18000001D01*
X44460000Y14768766D02*
X41228765Y18000001D01*
X44460000Y14000000D02*
X44460000Y14768766D01*
X6500000Y14500000D02*
X6500000Y13830000D01*
X14000000Y22000000D02*
X6500000Y14500000D01*
X10420000Y4000000D02*
X12170000Y5750000D01*
X6500000Y4000000D02*
X10420000Y4000000D01*
X19000000Y13500000D02*
X19000000Y11000000D01*
X14710000Y9210000D02*
X14710000Y8250000D01*
X14710000Y8250000D02*
X14710000Y5750000D01*
X16500000Y11000000D02*
X14710000Y9210000D01*
X19000000Y11000000D02*
X16500000Y11000000D01*
X4000000Y13870000D02*
X3960000Y13830000D01*
X4000000Y22000000D02*
X4000000Y13870000D01*
X13079999Y16999999D02*
X16499999Y16999999D01*
X11380000Y13500000D02*
X11380000Y15300000D01*
X11380000Y15300000D02*
X13079999Y16999999D01*
X17500001Y18000001D02*
X16499999Y16999999D01*
X21500001Y18000001D02*
X17500001Y18000001D01*
X25500000Y22000000D02*
X21500001Y18000001D01*
X28540000Y15000000D02*
X26540000Y13000000D01*
X31000000Y15000000D02*
X28540000Y15000000D01*
D26*
G36*
X50340001Y24812499D02*
G01*
X47527502Y22000000D01*
X50340001Y19187501D01*
X50340000Y660000D01*
X28138284Y660000D01*
X28189502Y755820D01*
X28225812Y875518D01*
X28238072Y1000000D01*
X28235000Y1968250D01*
X28076250Y2127000D01*
X27123000Y2127000D01*
X27123000Y2107000D01*
X26377000Y2107000D01*
X26377000Y2127000D01*
X26357000Y2127000D01*
X26357000Y2873000D01*
X26377000Y2873000D01*
X26377000Y4476250D01*
X27123000Y4476250D01*
X27123000Y2873000D01*
X28076250Y2873000D01*
X28235000Y3031750D01*
X28238072Y4000000D01*
X28225812Y4124482D01*
X28189502Y4244180D01*
X28130537Y4354494D01*
X28099806Y4391940D01*
X32490154Y4391940D01*
X32501229Y4095617D01*
X32569901Y3807148D01*
X32693531Y3537620D01*
X32867367Y3297389D01*
X33084730Y3095688D01*
X33414825Y2989735D01*
X33627000Y3079473D01*
X33627000Y4627000D01*
X32681875Y4627000D01*
X32490154Y4391940D01*
X28099806Y4391940D01*
X28051185Y4451185D01*
X27954494Y4530537D01*
X27844180Y4589502D01*
X27724482Y4625812D01*
X27600000Y4638072D01*
X27281750Y4635000D01*
X27123000Y4476250D01*
X26377000Y4476250D01*
X26218250Y4635000D01*
X25900000Y4638072D01*
X25775518Y4625812D01*
X25655820Y4589502D01*
X25545506Y4530537D01*
X25448815Y4451185D01*
X25369463Y4354494D01*
X25345000Y4308728D01*
X25345000Y4529869D01*
X27060132Y6245000D01*
X29632385Y6245000D01*
X29667818Y6128193D01*
X29801068Y5878900D01*
X29980392Y5660393D01*
X30198899Y5481068D01*
X30448192Y5347818D01*
X30718691Y5265764D01*
X31000000Y5238057D01*
X31281308Y5265764D01*
X31551807Y5347818D01*
X31801100Y5481068D01*
X32019607Y5660392D01*
X32198932Y5878899D01*
X32332182Y6128192D01*
X32367615Y6245000D01*
X32593821Y6245000D01*
X32569901Y6192852D01*
X32501229Y5904383D01*
X32490154Y5608060D01*
X32681875Y5373000D01*
X33627000Y5373000D01*
X33627000Y5393000D01*
X34373000Y5393000D01*
X34373000Y5373000D01*
X34393000Y5373000D01*
X34393000Y4627000D01*
X34373000Y4627000D01*
X34373000Y3079473D01*
X34585175Y2989735D01*
X34915270Y3095688D01*
X35105520Y3272230D01*
X35110498Y3255820D01*
X35169463Y3145506D01*
X35248815Y3048815D01*
X35345506Y2969463D01*
X35455820Y2910498D01*
X35575518Y2874188D01*
X35700000Y2861928D01*
X37300000Y2861928D01*
X37424482Y2874188D01*
X37544180Y2910498D01*
X37654494Y2969463D01*
X37751185Y3048815D01*
X37830537Y3145506D01*
X37889502Y3255820D01*
X37925812Y3375518D01*
X37938072Y3500000D01*
X37938072Y3865000D01*
X38244249Y3865000D01*
X38300000Y3859509D01*
X38355751Y3865000D01*
X38355752Y3865000D01*
X38522499Y3881423D01*
X38736447Y3946324D01*
X38933623Y4051716D01*
X39106449Y4193551D01*
X39141996Y4236865D01*
X45223146Y10318013D01*
X45266449Y10353551D01*
X45316736Y10414825D01*
X45408284Y10526377D01*
X45513676Y10723553D01*
X45578577Y10937501D01*
X45600491Y11160000D01*
X45595000Y11215752D01*
X45595000Y12050417D01*
X45596315Y12048815D01*
X45693006Y11969463D01*
X45803320Y11910498D01*
X45923018Y11874188D01*
X46047500Y11861928D01*
X46468250Y11865000D01*
X46627000Y12023750D01*
X46627000Y13627000D01*
X47373000Y13627000D01*
X47373000Y12023750D01*
X47531750Y11865000D01*
X47952500Y11861928D01*
X48076982Y11874188D01*
X48196680Y11910498D01*
X48306994Y11969463D01*
X48403685Y12048815D01*
X48483037Y12145506D01*
X48542002Y12255820D01*
X48578312Y12375518D01*
X48590572Y12500000D01*
X48587500Y13468250D01*
X48428750Y13627000D01*
X47373000Y13627000D01*
X46627000Y13627000D01*
X46607000Y13627000D01*
X46607000Y14373000D01*
X46627000Y14373000D01*
X46627000Y15976250D01*
X47373000Y15976250D01*
X47373000Y14373000D01*
X48428750Y14373000D01*
X48587500Y14531750D01*
X48590572Y15500000D01*
X48578312Y15624482D01*
X48542002Y15744180D01*
X48483037Y15854494D01*
X48403685Y15951185D01*
X48306994Y16030537D01*
X48196680Y16089502D01*
X48076982Y16125812D01*
X47952500Y16138072D01*
X47531750Y16135000D01*
X47373000Y15976250D01*
X46627000Y15976250D01*
X46468250Y16135000D01*
X46047500Y16138072D01*
X45923018Y16125812D01*
X45803320Y16089502D01*
X45693006Y16030537D01*
X45596315Y15951185D01*
X45516963Y15854494D01*
X45472095Y15770554D01*
X45346235Y15873845D01*
X45070449Y16021255D01*
X44771204Y16112030D01*
X44716478Y16117420D01*
X42267741Y18566157D01*
X44093659Y18566157D01*
X44572990Y18024921D01*
X45395124Y17627815D01*
X46278933Y17398730D01*
X47190451Y17346469D01*
X48094651Y17473040D01*
X48956784Y17773580D01*
X49427010Y18024921D01*
X49906341Y18566157D01*
X47000000Y21472498D01*
X44093659Y18566157D01*
X42267741Y18566157D01*
X42070761Y18763136D01*
X42035214Y18806450D01*
X41862388Y18948285D01*
X41665212Y19053677D01*
X41501921Y19103211D01*
X40984575Y19620557D01*
X41107484Y19804504D01*
X41456880Y20648020D01*
X41635000Y21543492D01*
X41635000Y21809549D01*
X42346469Y21809549D01*
X42473040Y20905349D01*
X42773580Y20043216D01*
X43024921Y19572990D01*
X43566157Y19093659D01*
X46472498Y22000000D01*
X43566157Y24906341D01*
X43024921Y24427010D01*
X42627815Y23604876D01*
X42398730Y22721067D01*
X42346469Y21809549D01*
X41635000Y21809549D01*
X41635000Y22456508D01*
X41456880Y23351980D01*
X41107484Y24195496D01*
X40600240Y24954640D01*
X40121037Y25433843D01*
X44093659Y25433843D01*
X47000000Y22527502D01*
X49906341Y25433843D01*
X49427010Y25975079D01*
X48604876Y26372185D01*
X47721067Y26601270D01*
X46809549Y26653531D01*
X45905349Y26526960D01*
X45043216Y26226420D01*
X44572990Y25975079D01*
X44093659Y25433843D01*
X40121037Y25433843D01*
X39954640Y25600240D01*
X39195496Y26107484D01*
X38351980Y26456880D01*
X37456508Y26635000D01*
X36543492Y26635000D01*
X35648020Y26456880D01*
X34804504Y26107484D01*
X34045360Y25600240D01*
X33399760Y24954640D01*
X32892516Y24195496D01*
X32543120Y23351980D01*
X32365000Y22456508D01*
X32365000Y21543492D01*
X32543120Y20648020D01*
X32892516Y19804504D01*
X33399760Y19045360D01*
X34045360Y18399760D01*
X34804504Y17892516D01*
X35648020Y17543120D01*
X36543492Y17365000D01*
X37456508Y17365000D01*
X38351980Y17543120D01*
X39195496Y17892516D01*
X39379443Y18015425D01*
X40158008Y17236860D01*
X40193550Y17193552D01*
X40256436Y17141943D01*
X40366376Y17051717D01*
X40563552Y16946325D01*
X40726845Y16896790D01*
X41534226Y16089409D01*
X41309552Y16021255D01*
X41033766Y15873845D01*
X40792038Y15675463D01*
X40593656Y15433735D01*
X40446245Y15157949D01*
X40439283Y15135000D01*
X39055752Y15135000D01*
X39000000Y15140491D01*
X38777501Y15118577D01*
X38563553Y15053676D01*
X38366377Y14948284D01*
X38236856Y14841989D01*
X38236854Y14841987D01*
X38193551Y14806449D01*
X38158013Y14763146D01*
X37782939Y14388072D01*
X36450000Y14388072D01*
X36325518Y14375812D01*
X36205820Y14339502D01*
X36095506Y14280537D01*
X35998815Y14201185D01*
X35919463Y14104494D01*
X35860498Y13994180D01*
X35855520Y13977770D01*
X35665270Y14154312D01*
X35335175Y14260265D01*
X35123000Y14170527D01*
X35123000Y12623000D01*
X35143000Y12623000D01*
X35143000Y11877000D01*
X35123000Y11877000D01*
X35123000Y11857000D01*
X34377000Y11857000D01*
X34377000Y11877000D01*
X33431875Y11877000D01*
X33240154Y11641940D01*
X33251229Y11345617D01*
X33319901Y11057148D01*
X33443531Y10787620D01*
X33617367Y10547389D01*
X33834730Y10345688D01*
X34164825Y10239735D01*
X34376998Y10329472D01*
X34376998Y10236532D01*
X32655467Y8515000D01*
X32367615Y8515000D01*
X32332182Y8631808D01*
X32198932Y8881101D01*
X32019608Y9099608D01*
X31801101Y9278932D01*
X31551808Y9412182D01*
X31281309Y9494236D01*
X31000000Y9521943D01*
X30718692Y9494236D01*
X30448193Y9412182D01*
X30198900Y9278932D01*
X29980393Y9099608D01*
X29801069Y8881101D01*
X29667819Y8631808D01*
X29632386Y8515000D01*
X26645741Y8515000D01*
X26589999Y8520490D01*
X26534257Y8515000D01*
X26534248Y8515000D01*
X26367501Y8498577D01*
X26153553Y8433676D01*
X25956377Y8328284D01*
X25783551Y8186449D01*
X25748011Y8143143D01*
X23446865Y5841996D01*
X23403551Y5806449D01*
X23261716Y5633623D01*
X23190294Y5500000D01*
X23156324Y5436446D01*
X23091423Y5222498D01*
X23069509Y5000000D01*
X23075000Y4944248D01*
X23075000Y4107816D01*
X22969295Y3979014D01*
X22831401Y3721034D01*
X22805303Y3635000D01*
X22415751Y3635000D01*
X22360000Y3640491D01*
X22304248Y3635000D01*
X22137501Y3618577D01*
X21923553Y3553676D01*
X21726377Y3448284D01*
X21553551Y3306449D01*
X21518008Y3263140D01*
X20889868Y2634999D01*
X7988072Y2634999D01*
X7988072Y2865000D01*
X10364249Y2865000D01*
X10420000Y2859509D01*
X10475751Y2865000D01*
X10475752Y2865000D01*
X10642499Y2881423D01*
X10856447Y2946324D01*
X11053623Y3051716D01*
X11226449Y3193551D01*
X11261995Y3236864D01*
X11715640Y3690508D01*
X11898493Y3635040D01*
X12170000Y3608299D01*
X12441506Y3635040D01*
X12702580Y3714236D01*
X12943187Y3842843D01*
X13154080Y4015919D01*
X13327157Y4226812D01*
X13440000Y4437927D01*
X13552843Y4226813D01*
X13725919Y4015920D01*
X13936812Y3842843D01*
X14177419Y3714236D01*
X14438493Y3635040D01*
X14710000Y3608299D01*
X14981506Y3635040D01*
X15242580Y3714236D01*
X15483187Y3842843D01*
X15694080Y4015919D01*
X15864527Y4223608D01*
X15874188Y4125518D01*
X15910498Y4005820D01*
X15969463Y3895506D01*
X16048815Y3798815D01*
X16145506Y3719463D01*
X16255820Y3660498D01*
X16375518Y3624188D01*
X16500000Y3611928D01*
X16718250Y3615000D01*
X16877000Y3773750D01*
X16877000Y5377000D01*
X17623000Y5377000D01*
X17623000Y3773750D01*
X17781750Y3615000D01*
X18000000Y3611928D01*
X18124482Y3624188D01*
X18244180Y3660498D01*
X18354494Y3719463D01*
X18451185Y3798815D01*
X18530537Y3895506D01*
X18589502Y4005820D01*
X18625812Y4125518D01*
X18638072Y4250000D01*
X18635000Y5218250D01*
X18476250Y5377000D01*
X17623000Y5377000D01*
X16877000Y5377000D01*
X16857000Y5377000D01*
X16857000Y6123000D01*
X16877000Y6123000D01*
X16877000Y7726250D01*
X17623000Y7726250D01*
X17623000Y6123000D01*
X18476250Y6123000D01*
X18635000Y6281750D01*
X18638072Y7250000D01*
X18625812Y7374482D01*
X18589502Y7494180D01*
X18530537Y7604494D01*
X18451185Y7701185D01*
X18354494Y7780537D01*
X18244180Y7839502D01*
X18124482Y7875812D01*
X18000000Y7888072D01*
X17781750Y7885000D01*
X17623000Y7726250D01*
X16877000Y7726250D01*
X16718250Y7885000D01*
X16500000Y7888072D01*
X16375518Y7875812D01*
X16255820Y7839502D01*
X16145506Y7780537D01*
X16048815Y7701185D01*
X15969463Y7604494D01*
X15910498Y7494180D01*
X15874188Y7374482D01*
X15864527Y7276392D01*
X15845000Y7300186D01*
X15845000Y8739869D01*
X16970132Y9865000D01*
X17420998Y9865000D01*
X17498899Y9801068D01*
X17748192Y9667818D01*
X18018691Y9585764D01*
X18229508Y9565000D01*
X19770492Y9565000D01*
X19981309Y9585764D01*
X20251808Y9667818D01*
X20501101Y9801068D01*
X20719608Y9980392D01*
X20898932Y10198899D01*
X21032182Y10448192D01*
X21114236Y10718691D01*
X21141943Y11000000D01*
X21114236Y11281309D01*
X21032182Y11551808D01*
X20898932Y11801101D01*
X20719608Y12019608D01*
X20621651Y12100000D01*
X21461928Y12100000D01*
X21474188Y11975518D01*
X21510498Y11855820D01*
X21569463Y11745506D01*
X21648815Y11648815D01*
X21745506Y11569463D01*
X21855820Y11510498D01*
X21975518Y11474188D01*
X22100000Y11461928D01*
X22968250Y11465000D01*
X23127000Y11623750D01*
X23127000Y12627000D01*
X21623750Y12627000D01*
X21465000Y12468250D01*
X21461928Y12100000D01*
X20621651Y12100000D01*
X20501101Y12198932D01*
X20405560Y12250000D01*
X20501101Y12301068D01*
X20719608Y12480392D01*
X20898932Y12698899D01*
X21032182Y12948192D01*
X21114236Y13218691D01*
X21141943Y13500000D01*
X21114236Y13781309D01*
X21078232Y13900000D01*
X21461928Y13900000D01*
X21465000Y13531750D01*
X21623750Y13373000D01*
X23127000Y13373000D01*
X23127000Y14376250D01*
X23873000Y14376250D01*
X23873000Y13373000D01*
X23893000Y13373000D01*
X23893000Y12627000D01*
X23873000Y12627000D01*
X23873000Y11623750D01*
X24031750Y11465000D01*
X24900000Y11461928D01*
X25024482Y11474188D01*
X25144180Y11510498D01*
X25254494Y11569463D01*
X25351185Y11648815D01*
X25430537Y11745506D01*
X25489502Y11855820D01*
X25517504Y11948130D01*
X25549339Y11909339D01*
X25783073Y11717519D01*
X26049739Y11574983D01*
X26339087Y11487210D01*
X26564592Y11465000D01*
X27715408Y11465000D01*
X27940913Y11487210D01*
X28230261Y11574983D01*
X28496927Y11717519D01*
X28730661Y11909339D01*
X28922481Y12143073D01*
X29065017Y12409739D01*
X29152790Y12699087D01*
X29182427Y13000000D01*
X29152790Y13300913D01*
X29065017Y13590261D01*
X28950200Y13805068D01*
X29010132Y13865000D01*
X29632385Y13865000D01*
X29667818Y13748193D01*
X29801068Y13498900D01*
X29980392Y13280393D01*
X30198899Y13101068D01*
X30448192Y12967818D01*
X30718691Y12885764D01*
X31000000Y12858057D01*
X31000030Y12858060D01*
X33240154Y12858060D01*
X33431875Y12623000D01*
X34377000Y12623000D01*
X34377000Y14170527D01*
X34164825Y14260265D01*
X33834730Y14154312D01*
X33617367Y13952611D01*
X33443531Y13712380D01*
X33319901Y13442852D01*
X33251229Y13154383D01*
X33240154Y12858060D01*
X31000030Y12858060D01*
X31281308Y12885764D01*
X31551807Y12967818D01*
X31801100Y13101068D01*
X32019607Y13280392D01*
X32198932Y13498899D01*
X32332182Y13748192D01*
X32414236Y14018691D01*
X32435000Y14229508D01*
X32435000Y15770492D01*
X32414236Y15981309D01*
X32332182Y16251808D01*
X32198932Y16501101D01*
X32019608Y16719608D01*
X31801101Y16898932D01*
X31551808Y17032182D01*
X31281309Y17114236D01*
X31000000Y17141943D01*
X30718692Y17114236D01*
X30448193Y17032182D01*
X30198900Y16898932D01*
X29980393Y16719608D01*
X29801069Y16501101D01*
X29667819Y16251808D01*
X29632386Y16135000D01*
X28595751Y16135000D01*
X28539999Y16140491D01*
X28317500Y16118577D01*
X28277521Y16106449D01*
X28103553Y16053676D01*
X27906377Y15948284D01*
X27733551Y15806449D01*
X27698009Y15763141D01*
X26459520Y14524651D01*
X26339087Y14512790D01*
X26049739Y14425017D01*
X25783073Y14282481D01*
X25549339Y14090661D01*
X25517504Y14051870D01*
X25489502Y14144180D01*
X25430537Y14254494D01*
X25351185Y14351185D01*
X25254494Y14430537D01*
X25144180Y14489502D01*
X25024482Y14525812D01*
X24900000Y14538072D01*
X24031750Y14535000D01*
X23873000Y14376250D01*
X23127000Y14376250D01*
X22968250Y14535000D01*
X22100000Y14538072D01*
X21975518Y14525812D01*
X21855820Y14489502D01*
X21745506Y14430537D01*
X21648815Y14351185D01*
X21569463Y14254494D01*
X21510498Y14144180D01*
X21474188Y14024482D01*
X21461928Y13900000D01*
X21078232Y13900000D01*
X21032182Y14051808D01*
X20898932Y14301101D01*
X20719608Y14519608D01*
X20501101Y14698932D01*
X20251808Y14832182D01*
X19981309Y14914236D01*
X19770492Y14935000D01*
X18229508Y14935000D01*
X18018691Y14914236D01*
X17748192Y14832182D01*
X17498899Y14698932D01*
X17280392Y14519608D01*
X17101068Y14301101D01*
X16967818Y14051808D01*
X16885764Y13781309D01*
X16858057Y13500000D01*
X16885764Y13218691D01*
X16967818Y12948192D01*
X17101068Y12698899D01*
X17280392Y12480392D01*
X17498899Y12301068D01*
X17594440Y12250000D01*
X17498899Y12198932D01*
X17420998Y12135000D01*
X16555741Y12135000D01*
X16499999Y12140490D01*
X16444257Y12135000D01*
X16444248Y12135000D01*
X16277501Y12118577D01*
X16063553Y12053676D01*
X15866377Y11948284D01*
X15693551Y11806449D01*
X15658009Y11763140D01*
X13946865Y10051996D01*
X13903551Y10016449D01*
X13761716Y9843623D01*
X13656325Y9646447D01*
X13656324Y9646446D01*
X13591423Y9432498D01*
X13569509Y9210000D01*
X13575000Y9154249D01*
X13575000Y7300186D01*
X13552844Y7273188D01*
X13440001Y7062072D01*
X13327157Y7273188D01*
X13154081Y7484081D01*
X12943188Y7657157D01*
X12702581Y7785764D01*
X12441507Y7864960D01*
X12170000Y7891701D01*
X11898494Y7864960D01*
X11637420Y7785764D01*
X11396813Y7657157D01*
X11185920Y7484081D01*
X11012844Y7273188D01*
X10884237Y7032581D01*
X10805040Y6771507D01*
X10785000Y6568037D01*
X10785000Y5970132D01*
X9949869Y5135000D01*
X7988072Y5135000D01*
X7988072Y5500000D01*
X7975812Y5624482D01*
X7939502Y5744180D01*
X7880537Y5854494D01*
X7801185Y5951185D01*
X7704494Y6030537D01*
X7594180Y6089502D01*
X7474482Y6125812D01*
X7350000Y6138072D01*
X5650000Y6138072D01*
X5525518Y6125812D01*
X5405820Y6089502D01*
X5295506Y6030537D01*
X5198815Y5951185D01*
X5119463Y5854494D01*
X5060498Y5744180D01*
X5039607Y5675313D01*
X5015134Y5705134D01*
X4789014Y5890706D01*
X4531034Y6028599D01*
X4251111Y6113513D01*
X3960000Y6142185D01*
X3668890Y6113513D01*
X3388967Y6028599D01*
X3194990Y5924916D01*
X3194990Y7389226D01*
X3352307Y7309784D01*
X3643995Y7228657D01*
X3945906Y7205994D01*
X4187000Y7389370D01*
X4187000Y8377000D01*
X4933000Y8377000D01*
X4933000Y7389370D01*
X5174094Y7205994D01*
X5476005Y7228657D01*
X5596772Y7262246D01*
X5600000Y7261928D01*
X6568250Y7265000D01*
X6727000Y7423750D01*
X6727000Y8377000D01*
X7473000Y8377000D01*
X7473000Y7423750D01*
X7631750Y7265000D01*
X8600000Y7261928D01*
X8724482Y7274188D01*
X8844180Y7310498D01*
X8954494Y7369463D01*
X9051185Y7448815D01*
X9130537Y7545506D01*
X9189502Y7655820D01*
X9225812Y7775518D01*
X9238072Y7900000D01*
X9235000Y8218250D01*
X9076250Y8377000D01*
X7473000Y8377000D01*
X6727000Y8377000D01*
X4933000Y8377000D01*
X4187000Y8377000D01*
X4167000Y8377000D01*
X4167000Y9123000D01*
X4187000Y9123000D01*
X4187000Y9143000D01*
X4933000Y9143000D01*
X4933000Y9123000D01*
X6727000Y9123000D01*
X6727000Y9143000D01*
X7473000Y9143000D01*
X7473000Y9123000D01*
X9076250Y9123000D01*
X9235000Y9281750D01*
X9238072Y9600000D01*
X9225812Y9724482D01*
X9189502Y9844180D01*
X9130537Y9954494D01*
X9051185Y10051185D01*
X8954494Y10130537D01*
X8844180Y10189502D01*
X8775313Y10210393D01*
X8805134Y10234866D01*
X8952822Y10414825D01*
X9369735Y10414825D01*
X9475688Y10084730D01*
X9677389Y9867367D01*
X9917620Y9693531D01*
X10187148Y9569901D01*
X10475617Y9501229D01*
X10771940Y9490154D01*
X11007000Y9681875D01*
X11007000Y10627000D01*
X11753000Y10627000D01*
X11753000Y9681875D01*
X11988060Y9490154D01*
X12284383Y9501229D01*
X12572852Y9569901D01*
X12842380Y9693531D01*
X13082611Y9867367D01*
X13284312Y10084730D01*
X13390265Y10414825D01*
X13300527Y10627000D01*
X11753000Y10627000D01*
X11007000Y10627000D01*
X9459473Y10627000D01*
X9369735Y10414825D01*
X8952822Y10414825D01*
X8990706Y10460986D01*
X9128599Y10718966D01*
X9213513Y10998889D01*
X9242185Y11290000D01*
X9213513Y11581111D01*
X9128599Y11861034D01*
X8990706Y12119014D01*
X8805134Y12345134D01*
X8579014Y12530706D01*
X8524209Y12560000D01*
X8579014Y12589294D01*
X8805134Y12774866D01*
X8990706Y13000986D01*
X9128599Y13258966D01*
X9213513Y13538889D01*
X9242185Y13830000D01*
X9213513Y14121111D01*
X9128599Y14401034D01*
X8990706Y14659014D01*
X8805134Y14885134D01*
X8632194Y15027062D01*
X11620557Y18015425D01*
X11804504Y17892516D01*
X12202520Y17727652D01*
X10616860Y16141991D01*
X10573552Y16106449D01*
X10431717Y15933623D01*
X10406980Y15887343D01*
X10326324Y15736446D01*
X10261423Y15522498D01*
X10239509Y15300000D01*
X10245000Y15244249D01*
X10245000Y14867615D01*
X10128192Y14832182D01*
X9878899Y14698932D01*
X9660392Y14519608D01*
X9481068Y14301101D01*
X9347818Y14051808D01*
X9265764Y13781309D01*
X9238057Y13500000D01*
X9265764Y13218691D01*
X9347818Y12948192D01*
X9481068Y12698899D01*
X9660392Y12480392D01*
X9878899Y12301068D01*
X9896877Y12291459D01*
X9677389Y12132633D01*
X9475688Y11915270D01*
X9369735Y11585175D01*
X9459473Y11373000D01*
X11007000Y11373000D01*
X11007000Y11393000D01*
X11753000Y11393000D01*
X11753000Y11373000D01*
X13300527Y11373000D01*
X13390265Y11585175D01*
X13284312Y11915270D01*
X13082611Y12132633D01*
X12863123Y12291459D01*
X12881101Y12301068D01*
X13099608Y12480392D01*
X13278932Y12698899D01*
X13412182Y12948192D01*
X13494236Y13218691D01*
X13521943Y13500000D01*
X13494236Y13781309D01*
X13412182Y14051808D01*
X13278932Y14301101D01*
X13099608Y14519608D01*
X12881101Y14698932D01*
X12631808Y14832182D01*
X12543961Y14858830D01*
X13550132Y15864999D01*
X16444248Y15864999D01*
X16499999Y15859508D01*
X16555750Y15864999D01*
X16555751Y15864999D01*
X16722498Y15881422D01*
X16936446Y15946323D01*
X17133622Y16051715D01*
X17306448Y16193550D01*
X17341995Y16236863D01*
X17970133Y16865001D01*
X21444250Y16865001D01*
X21500001Y16859510D01*
X21555752Y16865001D01*
X21555753Y16865001D01*
X21722500Y16881424D01*
X21936448Y16946325D01*
X22133624Y17051717D01*
X22306450Y17193552D01*
X22341997Y17236866D01*
X23120557Y18015426D01*
X23304504Y17892516D01*
X24148020Y17543120D01*
X25043492Y17365000D01*
X25956508Y17365000D01*
X26851980Y17543120D01*
X27695496Y17892516D01*
X28454640Y18399760D01*
X29100240Y19045360D01*
X29607484Y19804504D01*
X29956880Y20648020D01*
X30135000Y21543492D01*
X30135000Y22456508D01*
X29956880Y23351980D01*
X29607484Y24195496D01*
X29100240Y24954640D01*
X28454640Y25600240D01*
X27695496Y26107484D01*
X26851980Y26456880D01*
X25956508Y26635000D01*
X25043492Y26635000D01*
X24148020Y26456880D01*
X23304504Y26107484D01*
X22545360Y25600240D01*
X21899760Y24954640D01*
X21392516Y24195496D01*
X21043120Y23351980D01*
X20865000Y22456508D01*
X20865000Y21543492D01*
X21043120Y20648020D01*
X21392516Y19804504D01*
X21515426Y19620557D01*
X21029870Y19135001D01*
X17660136Y19135001D01*
X18107484Y19804504D01*
X18456880Y20648020D01*
X18635000Y21543492D01*
X18635000Y22456508D01*
X18456880Y23351980D01*
X18107484Y24195496D01*
X17600240Y24954640D01*
X16954640Y25600240D01*
X16195496Y26107484D01*
X15351980Y26456880D01*
X14456508Y26635000D01*
X13543492Y26635000D01*
X12648020Y26456880D01*
X11804504Y26107484D01*
X11045360Y25600240D01*
X10399760Y24954640D01*
X9892516Y24195496D01*
X9543120Y23351980D01*
X9365000Y22456508D01*
X9365000Y21543492D01*
X9543120Y20648020D01*
X9892516Y19804504D01*
X10015425Y19620557D01*
X5736865Y15341996D01*
X5693551Y15306449D01*
X5551716Y15133623D01*
X5446325Y14936447D01*
X5446324Y14936446D01*
X5442656Y14924354D01*
X5394866Y14885134D01*
X5230000Y14684244D01*
X5135000Y14800002D01*
X5135000Y17499960D01*
X5351980Y17543120D01*
X6195496Y17892516D01*
X6954640Y18399760D01*
X7600240Y19045360D01*
X8107484Y19804504D01*
X8456880Y20648020D01*
X8635000Y21543492D01*
X8635000Y22456508D01*
X8456880Y23351980D01*
X8107484Y24195496D01*
X7600240Y24954640D01*
X6954640Y25600240D01*
X6195496Y26107484D01*
X5351980Y26456880D01*
X4456508Y26635000D01*
X3543492Y26635000D01*
X2648020Y26456880D01*
X1804504Y26107484D01*
X1045360Y25600240D01*
X660000Y25214880D01*
X660000Y27340000D01*
X50340001Y27340000D01*
X50340001Y24812499D01*
G37*
X50340001Y24812499D02*
X47527502Y22000000D01*
X50340001Y19187501D01*
X50340000Y660000D01*
X28138284Y660000D01*
X28189502Y755820D01*
X28225812Y875518D01*
X28238072Y1000000D01*
X28235000Y1968250D01*
X28076250Y2127000D01*
X27123000Y2127000D01*
X27123000Y2107000D01*
X26377000Y2107000D01*
X26377000Y2127000D01*
X26357000Y2127000D01*
X26357000Y2873000D01*
X26377000Y2873000D01*
X26377000Y4476250D01*
X27123000Y4476250D01*
X27123000Y2873000D01*
X28076250Y2873000D01*
X28235000Y3031750D01*
X28238072Y4000000D01*
X28225812Y4124482D01*
X28189502Y4244180D01*
X28130537Y4354494D01*
X28099806Y4391940D01*
X32490154Y4391940D01*
X32501229Y4095617D01*
X32569901Y3807148D01*
X32693531Y3537620D01*
X32867367Y3297389D01*
X33084730Y3095688D01*
X33414825Y2989735D01*
X33627000Y3079473D01*
X33627000Y4627000D01*
X32681875Y4627000D01*
X32490154Y4391940D01*
X28099806Y4391940D01*
X28051185Y4451185D01*
X27954494Y4530537D01*
X27844180Y4589502D01*
X27724482Y4625812D01*
X27600000Y4638072D01*
X27281750Y4635000D01*
X27123000Y4476250D01*
X26377000Y4476250D01*
X26218250Y4635000D01*
X25900000Y4638072D01*
X25775518Y4625812D01*
X25655820Y4589502D01*
X25545506Y4530537D01*
X25448815Y4451185D01*
X25369463Y4354494D01*
X25345000Y4308728D01*
X25345000Y4529869D01*
X27060132Y6245000D01*
X29632385Y6245000D01*
X29667818Y6128193D01*
X29801068Y5878900D01*
X29980392Y5660393D01*
X30198899Y5481068D01*
X30448192Y5347818D01*
X30718691Y5265764D01*
X31000000Y5238057D01*
X31281308Y5265764D01*
X31551807Y5347818D01*
X31801100Y5481068D01*
X32019607Y5660392D01*
X32198932Y5878899D01*
X32332182Y6128192D01*
X32367615Y6245000D01*
X32593821Y6245000D01*
X32569901Y6192852D01*
X32501229Y5904383D01*
X32490154Y5608060D01*
X32681875Y5373000D01*
X33627000Y5373000D01*
X33627000Y5393000D01*
X34373000Y5393000D01*
X34373000Y5373000D01*
X34393000Y5373000D01*
X34393000Y4627000D01*
X34373000Y4627000D01*
X34373000Y3079473D01*
X34585175Y2989735D01*
X34915270Y3095688D01*
X35105520Y3272230D01*
X35110498Y3255820D01*
X35169463Y3145506D01*
X35248815Y3048815D01*
X35345506Y2969463D01*
X35455820Y2910498D01*
X35575518Y2874188D01*
X35700000Y2861928D01*
X37300000Y2861928D01*
X37424482Y2874188D01*
X37544180Y2910498D01*
X37654494Y2969463D01*
X37751185Y3048815D01*
X37830537Y3145506D01*
X37889502Y3255820D01*
X37925812Y3375518D01*
X37938072Y3500000D01*
X37938072Y3865000D01*
X38244249Y3865000D01*
X38300000Y3859509D01*
X38355751Y3865000D01*
X38355752Y3865000D01*
X38522499Y3881423D01*
X38736447Y3946324D01*
X38933623Y4051716D01*
X39106449Y4193551D01*
X39141996Y4236865D01*
X45223146Y10318013D01*
X45266449Y10353551D01*
X45316736Y10414825D01*
X45408284Y10526377D01*
X45513676Y10723553D01*
X45578577Y10937501D01*
X45600491Y11160000D01*
X45595000Y11215752D01*
X45595000Y12050417D01*
X45596315Y12048815D01*
X45693006Y11969463D01*
X45803320Y11910498D01*
X45923018Y11874188D01*
X46047500Y11861928D01*
X46468250Y11865000D01*
X46627000Y12023750D01*
X46627000Y13627000D01*
X47373000Y13627000D01*
X47373000Y12023750D01*
X47531750Y11865000D01*
X47952500Y11861928D01*
X48076982Y11874188D01*
X48196680Y11910498D01*
X48306994Y11969463D01*
X48403685Y12048815D01*
X48483037Y12145506D01*
X48542002Y12255820D01*
X48578312Y12375518D01*
X48590572Y12500000D01*
X48587500Y13468250D01*
X48428750Y13627000D01*
X47373000Y13627000D01*
X46627000Y13627000D01*
X46607000Y13627000D01*
X46607000Y14373000D01*
X46627000Y14373000D01*
X46627000Y15976250D01*
X47373000Y15976250D01*
X47373000Y14373000D01*
X48428750Y14373000D01*
X48587500Y14531750D01*
X48590572Y15500000D01*
X48578312Y15624482D01*
X48542002Y15744180D01*
X48483037Y15854494D01*
X48403685Y15951185D01*
X48306994Y16030537D01*
X48196680Y16089502D01*
X48076982Y16125812D01*
X47952500Y16138072D01*
X47531750Y16135000D01*
X47373000Y15976250D01*
X46627000Y15976250D01*
X46468250Y16135000D01*
X46047500Y16138072D01*
X45923018Y16125812D01*
X45803320Y16089502D01*
X45693006Y16030537D01*
X45596315Y15951185D01*
X45516963Y15854494D01*
X45472095Y15770554D01*
X45346235Y15873845D01*
X45070449Y16021255D01*
X44771204Y16112030D01*
X44716478Y16117420D01*
X42267741Y18566157D01*
X44093659Y18566157D01*
X44572990Y18024921D01*
X45395124Y17627815D01*
X46278933Y17398730D01*
X47190451Y17346469D01*
X48094651Y17473040D01*
X48956784Y17773580D01*
X49427010Y18024921D01*
X49906341Y18566157D01*
X47000000Y21472498D01*
X44093659Y18566157D01*
X42267741Y18566157D01*
X42070761Y18763136D01*
X42035214Y18806450D01*
X41862388Y18948285D01*
X41665212Y19053677D01*
X41501921Y19103211D01*
X40984575Y19620557D01*
X41107484Y19804504D01*
X41456880Y20648020D01*
X41635000Y21543492D01*
X41635000Y21809549D01*
X42346469Y21809549D01*
X42473040Y20905349D01*
X42773580Y20043216D01*
X43024921Y19572990D01*
X43566157Y19093659D01*
X46472498Y22000000D01*
X43566157Y24906341D01*
X43024921Y24427010D01*
X42627815Y23604876D01*
X42398730Y22721067D01*
X42346469Y21809549D01*
X41635000Y21809549D01*
X41635000Y22456508D01*
X41456880Y23351980D01*
X41107484Y24195496D01*
X40600240Y24954640D01*
X40121037Y25433843D01*
X44093659Y25433843D01*
X47000000Y22527502D01*
X49906341Y25433843D01*
X49427010Y25975079D01*
X48604876Y26372185D01*
X47721067Y26601270D01*
X46809549Y26653531D01*
X45905349Y26526960D01*
X45043216Y26226420D01*
X44572990Y25975079D01*
X44093659Y25433843D01*
X40121037Y25433843D01*
X39954640Y25600240D01*
X39195496Y26107484D01*
X38351980Y26456880D01*
X37456508Y26635000D01*
X36543492Y26635000D01*
X35648020Y26456880D01*
X34804504Y26107484D01*
X34045360Y25600240D01*
X33399760Y24954640D01*
X32892516Y24195496D01*
X32543120Y23351980D01*
X32365000Y22456508D01*
X32365000Y21543492D01*
X32543120Y20648020D01*
X32892516Y19804504D01*
X33399760Y19045360D01*
X34045360Y18399760D01*
X34804504Y17892516D01*
X35648020Y17543120D01*
X36543492Y17365000D01*
X37456508Y17365000D01*
X38351980Y17543120D01*
X39195496Y17892516D01*
X39379443Y18015425D01*
X40158008Y17236860D01*
X40193550Y17193552D01*
X40256436Y17141943D01*
X40366376Y17051717D01*
X40563552Y16946325D01*
X40726845Y16896790D01*
X41534226Y16089409D01*
X41309552Y16021255D01*
X41033766Y15873845D01*
X40792038Y15675463D01*
X40593656Y15433735D01*
X40446245Y15157949D01*
X40439283Y15135000D01*
X39055752Y15135000D01*
X39000000Y15140491D01*
X38777501Y15118577D01*
X38563553Y15053676D01*
X38366377Y14948284D01*
X38236856Y14841989D01*
X38236854Y14841987D01*
X38193551Y14806449D01*
X38158013Y14763146D01*
X37782939Y14388072D01*
X36450000Y14388072D01*
X36325518Y14375812D01*
X36205820Y14339502D01*
X36095506Y14280537D01*
X35998815Y14201185D01*
X35919463Y14104494D01*
X35860498Y13994180D01*
X35855520Y13977770D01*
X35665270Y14154312D01*
X35335175Y14260265D01*
X35123000Y14170527D01*
X35123000Y12623000D01*
X35143000Y12623000D01*
X35143000Y11877000D01*
X35123000Y11877000D01*
X35123000Y11857000D01*
X34377000Y11857000D01*
X34377000Y11877000D01*
X33431875Y11877000D01*
X33240154Y11641940D01*
X33251229Y11345617D01*
X33319901Y11057148D01*
X33443531Y10787620D01*
X33617367Y10547389D01*
X33834730Y10345688D01*
X34164825Y10239735D01*
X34376998Y10329472D01*
X34376998Y10236532D01*
X32655467Y8515000D01*
X32367615Y8515000D01*
X32332182Y8631808D01*
X32198932Y8881101D01*
X32019608Y9099608D01*
X31801101Y9278932D01*
X31551808Y9412182D01*
X31281309Y9494236D01*
X31000000Y9521943D01*
X30718692Y9494236D01*
X30448193Y9412182D01*
X30198900Y9278932D01*
X29980393Y9099608D01*
X29801069Y8881101D01*
X29667819Y8631808D01*
X29632386Y8515000D01*
X26645741Y8515000D01*
X26589999Y8520490D01*
X26534257Y8515000D01*
X26534248Y8515000D01*
X26367501Y8498577D01*
X26153553Y8433676D01*
X25956377Y8328284D01*
X25783551Y8186449D01*
X25748011Y8143143D01*
X23446865Y5841996D01*
X23403551Y5806449D01*
X23261716Y5633623D01*
X23190294Y5500000D01*
X23156324Y5436446D01*
X23091423Y5222498D01*
X23069509Y5000000D01*
X23075000Y4944248D01*
X23075000Y4107816D01*
X22969295Y3979014D01*
X22831401Y3721034D01*
X22805303Y3635000D01*
X22415751Y3635000D01*
X22360000Y3640491D01*
X22304248Y3635000D01*
X22137501Y3618577D01*
X21923553Y3553676D01*
X21726377Y3448284D01*
X21553551Y3306449D01*
X21518008Y3263140D01*
X20889868Y2634999D01*
X7988072Y2634999D01*
X7988072Y2865000D01*
X10364249Y2865000D01*
X10420000Y2859509D01*
X10475751Y2865000D01*
X10475752Y2865000D01*
X10642499Y2881423D01*
X10856447Y2946324D01*
X11053623Y3051716D01*
X11226449Y3193551D01*
X11261995Y3236864D01*
X11715640Y3690508D01*
X11898493Y3635040D01*
X12170000Y3608299D01*
X12441506Y3635040D01*
X12702580Y3714236D01*
X12943187Y3842843D01*
X13154080Y4015919D01*
X13327157Y4226812D01*
X13440000Y4437927D01*
X13552843Y4226813D01*
X13725919Y4015920D01*
X13936812Y3842843D01*
X14177419Y3714236D01*
X14438493Y3635040D01*
X14710000Y3608299D01*
X14981506Y3635040D01*
X15242580Y3714236D01*
X15483187Y3842843D01*
X15694080Y4015919D01*
X15864527Y4223608D01*
X15874188Y4125518D01*
X15910498Y4005820D01*
X15969463Y3895506D01*
X16048815Y3798815D01*
X16145506Y3719463D01*
X16255820Y3660498D01*
X16375518Y3624188D01*
X16500000Y3611928D01*
X16718250Y3615000D01*
X16877000Y3773750D01*
X16877000Y5377000D01*
X17623000Y5377000D01*
X17623000Y3773750D01*
X17781750Y3615000D01*
X18000000Y3611928D01*
X18124482Y3624188D01*
X18244180Y3660498D01*
X18354494Y3719463D01*
X18451185Y3798815D01*
X18530537Y3895506D01*
X18589502Y4005820D01*
X18625812Y4125518D01*
X18638072Y4250000D01*
X18635000Y5218250D01*
X18476250Y5377000D01*
X17623000Y5377000D01*
X16877000Y5377000D01*
X16857000Y5377000D01*
X16857000Y6123000D01*
X16877000Y6123000D01*
X16877000Y7726250D01*
X17623000Y7726250D01*
X17623000Y6123000D01*
X18476250Y6123000D01*
X18635000Y6281750D01*
X18638072Y7250000D01*
X18625812Y7374482D01*
X18589502Y7494180D01*
X18530537Y7604494D01*
X18451185Y7701185D01*
X18354494Y7780537D01*
X18244180Y7839502D01*
X18124482Y7875812D01*
X18000000Y7888072D01*
X17781750Y7885000D01*
X17623000Y7726250D01*
X16877000Y7726250D01*
X16718250Y7885000D01*
X16500000Y7888072D01*
X16375518Y7875812D01*
X16255820Y7839502D01*
X16145506Y7780537D01*
X16048815Y7701185D01*
X15969463Y7604494D01*
X15910498Y7494180D01*
X15874188Y7374482D01*
X15864527Y7276392D01*
X15845000Y7300186D01*
X15845000Y8739869D01*
X16970132Y9865000D01*
X17420998Y9865000D01*
X17498899Y9801068D01*
X17748192Y9667818D01*
X18018691Y9585764D01*
X18229508Y9565000D01*
X19770492Y9565000D01*
X19981309Y9585764D01*
X20251808Y9667818D01*
X20501101Y9801068D01*
X20719608Y9980392D01*
X20898932Y10198899D01*
X21032182Y10448192D01*
X21114236Y10718691D01*
X21141943Y11000000D01*
X21114236Y11281309D01*
X21032182Y11551808D01*
X20898932Y11801101D01*
X20719608Y12019608D01*
X20621651Y12100000D01*
X21461928Y12100000D01*
X21474188Y11975518D01*
X21510498Y11855820D01*
X21569463Y11745506D01*
X21648815Y11648815D01*
X21745506Y11569463D01*
X21855820Y11510498D01*
X21975518Y11474188D01*
X22100000Y11461928D01*
X22968250Y11465000D01*
X23127000Y11623750D01*
X23127000Y12627000D01*
X21623750Y12627000D01*
X21465000Y12468250D01*
X21461928Y12100000D01*
X20621651Y12100000D01*
X20501101Y12198932D01*
X20405560Y12250000D01*
X20501101Y12301068D01*
X20719608Y12480392D01*
X20898932Y12698899D01*
X21032182Y12948192D01*
X21114236Y13218691D01*
X21141943Y13500000D01*
X21114236Y13781309D01*
X21078232Y13900000D01*
X21461928Y13900000D01*
X21465000Y13531750D01*
X21623750Y13373000D01*
X23127000Y13373000D01*
X23127000Y14376250D01*
X23873000Y14376250D01*
X23873000Y13373000D01*
X23893000Y13373000D01*
X23893000Y12627000D01*
X23873000Y12627000D01*
X23873000Y11623750D01*
X24031750Y11465000D01*
X24900000Y11461928D01*
X25024482Y11474188D01*
X25144180Y11510498D01*
X25254494Y11569463D01*
X25351185Y11648815D01*
X25430537Y11745506D01*
X25489502Y11855820D01*
X25517504Y11948130D01*
X25549339Y11909339D01*
X25783073Y11717519D01*
X26049739Y11574983D01*
X26339087Y11487210D01*
X26564592Y11465000D01*
X27715408Y11465000D01*
X27940913Y11487210D01*
X28230261Y11574983D01*
X28496927Y11717519D01*
X28730661Y11909339D01*
X28922481Y12143073D01*
X29065017Y12409739D01*
X29152790Y12699087D01*
X29182427Y13000000D01*
X29152790Y13300913D01*
X29065017Y13590261D01*
X28950200Y13805068D01*
X29010132Y13865000D01*
X29632385Y13865000D01*
X29667818Y13748193D01*
X29801068Y13498900D01*
X29980392Y13280393D01*
X30198899Y13101068D01*
X30448192Y12967818D01*
X30718691Y12885764D01*
X31000000Y12858057D01*
X31000030Y12858060D01*
X33240154Y12858060D01*
X33431875Y12623000D01*
X34377000Y12623000D01*
X34377000Y14170527D01*
X34164825Y14260265D01*
X33834730Y14154312D01*
X33617367Y13952611D01*
X33443531Y13712380D01*
X33319901Y13442852D01*
X33251229Y13154383D01*
X33240154Y12858060D01*
X31000030Y12858060D01*
X31281308Y12885764D01*
X31551807Y12967818D01*
X31801100Y13101068D01*
X32019607Y13280392D01*
X32198932Y13498899D01*
X32332182Y13748192D01*
X32414236Y14018691D01*
X32435000Y14229508D01*
X32435000Y15770492D01*
X32414236Y15981309D01*
X32332182Y16251808D01*
X32198932Y16501101D01*
X32019608Y16719608D01*
X31801101Y16898932D01*
X31551808Y17032182D01*
X31281309Y17114236D01*
X31000000Y17141943D01*
X30718692Y17114236D01*
X30448193Y17032182D01*
X30198900Y16898932D01*
X29980393Y16719608D01*
X29801069Y16501101D01*
X29667819Y16251808D01*
X29632386Y16135000D01*
X28595751Y16135000D01*
X28539999Y16140491D01*
X28317500Y16118577D01*
X28277521Y16106449D01*
X28103553Y16053676D01*
X27906377Y15948284D01*
X27733551Y15806449D01*
X27698009Y15763141D01*
X26459520Y14524651D01*
X26339087Y14512790D01*
X26049739Y14425017D01*
X25783073Y14282481D01*
X25549339Y14090661D01*
X25517504Y14051870D01*
X25489502Y14144180D01*
X25430537Y14254494D01*
X25351185Y14351185D01*
X25254494Y14430537D01*
X25144180Y14489502D01*
X25024482Y14525812D01*
X24900000Y14538072D01*
X24031750Y14535000D01*
X23873000Y14376250D01*
X23127000Y14376250D01*
X22968250Y14535000D01*
X22100000Y14538072D01*
X21975518Y14525812D01*
X21855820Y14489502D01*
X21745506Y14430537D01*
X21648815Y14351185D01*
X21569463Y14254494D01*
X21510498Y14144180D01*
X21474188Y14024482D01*
X21461928Y13900000D01*
X21078232Y13900000D01*
X21032182Y14051808D01*
X20898932Y14301101D01*
X20719608Y14519608D01*
X20501101Y14698932D01*
X20251808Y14832182D01*
X19981309Y14914236D01*
X19770492Y14935000D01*
X18229508Y14935000D01*
X18018691Y14914236D01*
X17748192Y14832182D01*
X17498899Y14698932D01*
X17280392Y14519608D01*
X17101068Y14301101D01*
X16967818Y14051808D01*
X16885764Y13781309D01*
X16858057Y13500000D01*
X16885764Y13218691D01*
X16967818Y12948192D01*
X17101068Y12698899D01*
X17280392Y12480392D01*
X17498899Y12301068D01*
X17594440Y12250000D01*
X17498899Y12198932D01*
X17420998Y12135000D01*
X16555741Y12135000D01*
X16499999Y12140490D01*
X16444257Y12135000D01*
X16444248Y12135000D01*
X16277501Y12118577D01*
X16063553Y12053676D01*
X15866377Y11948284D01*
X15693551Y11806449D01*
X15658009Y11763140D01*
X13946865Y10051996D01*
X13903551Y10016449D01*
X13761716Y9843623D01*
X13656325Y9646447D01*
X13656324Y9646446D01*
X13591423Y9432498D01*
X13569509Y9210000D01*
X13575000Y9154249D01*
X13575000Y7300186D01*
X13552844Y7273188D01*
X13440001Y7062072D01*
X13327157Y7273188D01*
X13154081Y7484081D01*
X12943188Y7657157D01*
X12702581Y7785764D01*
X12441507Y7864960D01*
X12170000Y7891701D01*
X11898494Y7864960D01*
X11637420Y7785764D01*
X11396813Y7657157D01*
X11185920Y7484081D01*
X11012844Y7273188D01*
X10884237Y7032581D01*
X10805040Y6771507D01*
X10785000Y6568037D01*
X10785000Y5970132D01*
X9949869Y5135000D01*
X7988072Y5135000D01*
X7988072Y5500000D01*
X7975812Y5624482D01*
X7939502Y5744180D01*
X7880537Y5854494D01*
X7801185Y5951185D01*
X7704494Y6030537D01*
X7594180Y6089502D01*
X7474482Y6125812D01*
X7350000Y6138072D01*
X5650000Y6138072D01*
X5525518Y6125812D01*
X5405820Y6089502D01*
X5295506Y6030537D01*
X5198815Y5951185D01*
X5119463Y5854494D01*
X5060498Y5744180D01*
X5039607Y5675313D01*
X5015134Y5705134D01*
X4789014Y5890706D01*
X4531034Y6028599D01*
X4251111Y6113513D01*
X3960000Y6142185D01*
X3668890Y6113513D01*
X3388967Y6028599D01*
X3194990Y5924916D01*
X3194990Y7389226D01*
X3352307Y7309784D01*
X3643995Y7228657D01*
X3945906Y7205994D01*
X4187000Y7389370D01*
X4187000Y8377000D01*
X4933000Y8377000D01*
X4933000Y7389370D01*
X5174094Y7205994D01*
X5476005Y7228657D01*
X5596772Y7262246D01*
X5600000Y7261928D01*
X6568250Y7265000D01*
X6727000Y7423750D01*
X6727000Y8377000D01*
X7473000Y8377000D01*
X7473000Y7423750D01*
X7631750Y7265000D01*
X8600000Y7261928D01*
X8724482Y7274188D01*
X8844180Y7310498D01*
X8954494Y7369463D01*
X9051185Y7448815D01*
X9130537Y7545506D01*
X9189502Y7655820D01*
X9225812Y7775518D01*
X9238072Y7900000D01*
X9235000Y8218250D01*
X9076250Y8377000D01*
X7473000Y8377000D01*
X6727000Y8377000D01*
X4933000Y8377000D01*
X4187000Y8377000D01*
X4167000Y8377000D01*
X4167000Y9123000D01*
X4187000Y9123000D01*
X4187000Y9143000D01*
X4933000Y9143000D01*
X4933000Y9123000D01*
X6727000Y9123000D01*
X6727000Y9143000D01*
X7473000Y9143000D01*
X7473000Y9123000D01*
X9076250Y9123000D01*
X9235000Y9281750D01*
X9238072Y9600000D01*
X9225812Y9724482D01*
X9189502Y9844180D01*
X9130537Y9954494D01*
X9051185Y10051185D01*
X8954494Y10130537D01*
X8844180Y10189502D01*
X8775313Y10210393D01*
X8805134Y10234866D01*
X8952822Y10414825D01*
X9369735Y10414825D01*
X9475688Y10084730D01*
X9677389Y9867367D01*
X9917620Y9693531D01*
X10187148Y9569901D01*
X10475617Y9501229D01*
X10771940Y9490154D01*
X11007000Y9681875D01*
X11007000Y10627000D01*
X11753000Y10627000D01*
X11753000Y9681875D01*
X11988060Y9490154D01*
X12284383Y9501229D01*
X12572852Y9569901D01*
X12842380Y9693531D01*
X13082611Y9867367D01*
X13284312Y10084730D01*
X13390265Y10414825D01*
X13300527Y10627000D01*
X11753000Y10627000D01*
X11007000Y10627000D01*
X9459473Y10627000D01*
X9369735Y10414825D01*
X8952822Y10414825D01*
X8990706Y10460986D01*
X9128599Y10718966D01*
X9213513Y10998889D01*
X9242185Y11290000D01*
X9213513Y11581111D01*
X9128599Y11861034D01*
X8990706Y12119014D01*
X8805134Y12345134D01*
X8579014Y12530706D01*
X8524209Y12560000D01*
X8579014Y12589294D01*
X8805134Y12774866D01*
X8990706Y13000986D01*
X9128599Y13258966D01*
X9213513Y13538889D01*
X9242185Y13830000D01*
X9213513Y14121111D01*
X9128599Y14401034D01*
X8990706Y14659014D01*
X8805134Y14885134D01*
X8632194Y15027062D01*
X11620557Y18015425D01*
X11804504Y17892516D01*
X12202520Y17727652D01*
X10616860Y16141991D01*
X10573552Y16106449D01*
X10431717Y15933623D01*
X10406980Y15887343D01*
X10326324Y15736446D01*
X10261423Y15522498D01*
X10239509Y15300000D01*
X10245000Y15244249D01*
X10245000Y14867615D01*
X10128192Y14832182D01*
X9878899Y14698932D01*
X9660392Y14519608D01*
X9481068Y14301101D01*
X9347818Y14051808D01*
X9265764Y13781309D01*
X9238057Y13500000D01*
X9265764Y13218691D01*
X9347818Y12948192D01*
X9481068Y12698899D01*
X9660392Y12480392D01*
X9878899Y12301068D01*
X9896877Y12291459D01*
X9677389Y12132633D01*
X9475688Y11915270D01*
X9369735Y11585175D01*
X9459473Y11373000D01*
X11007000Y11373000D01*
X11007000Y11393000D01*
X11753000Y11393000D01*
X11753000Y11373000D01*
X13300527Y11373000D01*
X13390265Y11585175D01*
X13284312Y11915270D01*
X13082611Y12132633D01*
X12863123Y12291459D01*
X12881101Y12301068D01*
X13099608Y12480392D01*
X13278932Y12698899D01*
X13412182Y12948192D01*
X13494236Y13218691D01*
X13521943Y13500000D01*
X13494236Y13781309D01*
X13412182Y14051808D01*
X13278932Y14301101D01*
X13099608Y14519608D01*
X12881101Y14698932D01*
X12631808Y14832182D01*
X12543961Y14858830D01*
X13550132Y15864999D01*
X16444248Y15864999D01*
X16499999Y15859508D01*
X16555750Y15864999D01*
X16555751Y15864999D01*
X16722498Y15881422D01*
X16936446Y15946323D01*
X17133622Y16051715D01*
X17306448Y16193550D01*
X17341995Y16236863D01*
X17970133Y16865001D01*
X21444250Y16865001D01*
X21500001Y16859510D01*
X21555752Y16865001D01*
X21555753Y16865001D01*
X21722500Y16881424D01*
X21936448Y16946325D01*
X22133624Y17051717D01*
X22306450Y17193552D01*
X22341997Y17236866D01*
X23120557Y18015426D01*
X23304504Y17892516D01*
X24148020Y17543120D01*
X25043492Y17365000D01*
X25956508Y17365000D01*
X26851980Y17543120D01*
X27695496Y17892516D01*
X28454640Y18399760D01*
X29100240Y19045360D01*
X29607484Y19804504D01*
X29956880Y20648020D01*
X30135000Y21543492D01*
X30135000Y22456508D01*
X29956880Y23351980D01*
X29607484Y24195496D01*
X29100240Y24954640D01*
X28454640Y25600240D01*
X27695496Y26107484D01*
X26851980Y26456880D01*
X25956508Y26635000D01*
X25043492Y26635000D01*
X24148020Y26456880D01*
X23304504Y26107484D01*
X22545360Y25600240D01*
X21899760Y24954640D01*
X21392516Y24195496D01*
X21043120Y23351980D01*
X20865000Y22456508D01*
X20865000Y21543492D01*
X21043120Y20648020D01*
X21392516Y19804504D01*
X21515426Y19620557D01*
X21029870Y19135001D01*
X17660136Y19135001D01*
X18107484Y19804504D01*
X18456880Y20648020D01*
X18635000Y21543492D01*
X18635000Y22456508D01*
X18456880Y23351980D01*
X18107484Y24195496D01*
X17600240Y24954640D01*
X16954640Y25600240D01*
X16195496Y26107484D01*
X15351980Y26456880D01*
X14456508Y26635000D01*
X13543492Y26635000D01*
X12648020Y26456880D01*
X11804504Y26107484D01*
X11045360Y25600240D01*
X10399760Y24954640D01*
X9892516Y24195496D01*
X9543120Y23351980D01*
X9365000Y22456508D01*
X9365000Y21543492D01*
X9543120Y20648020D01*
X9892516Y19804504D01*
X10015425Y19620557D01*
X5736865Y15341996D01*
X5693551Y15306449D01*
X5551716Y15133623D01*
X5446325Y14936447D01*
X5446324Y14936446D01*
X5442656Y14924354D01*
X5394866Y14885134D01*
X5230000Y14684244D01*
X5135000Y14800002D01*
X5135000Y17499960D01*
X5351980Y17543120D01*
X6195496Y17892516D01*
X6954640Y18399760D01*
X7600240Y19045360D01*
X8107484Y19804504D01*
X8456880Y20648020D01*
X8635000Y21543492D01*
X8635000Y22456508D01*
X8456880Y23351980D01*
X8107484Y24195496D01*
X7600240Y24954640D01*
X6954640Y25600240D01*
X6195496Y26107484D01*
X5351980Y26456880D01*
X4456508Y26635000D01*
X3543492Y26635000D01*
X2648020Y26456880D01*
X1804504Y26107484D01*
X1045360Y25600240D01*
X660000Y25214880D01*
X660000Y27340000D01*
X50340001Y27340000D01*
X50340001Y24812499D01*
M02*
