G04 #@! TF.GenerationSoftware,KiCad,Pcbnew,5.1.5-1.fc31*
G04 #@! TF.CreationDate,2020-04-30T10:40:34+02:00*
G04 #@! TF.ProjectId,catbit,63617462-6974-42e6-9b69-6361645f7063,rev?*
G04 #@! TF.SameCoordinates,PX78ed080PY90dcf60*
G04 #@! TF.FileFunction,Legend,Top*
G04 #@! TF.FilePolarity,Positive*
%FSLAX46Y46*%
G04 Gerber Fmt 4.6, Leading zero omitted, Abs format (unit mm)*
G04 Created by KiCad (PCBNEW 5.1.5-1.fc31) date 2020-04-30 10:40:34*
%MOMM*%
%LPD*%
G04 APERTURE LIST*
%ADD10C,0.150000*%
%ADD11C,0.120000*%
%ADD12C,0.200000*%
%ADD13C,0.300000*%
G04 APERTURE END LIST*
D10*
X25190876Y7439352D02*
X25140175Y7532985D01*
X25155794Y7638313D01*
X25647431Y8340443D01*
X25502934Y7220846D02*
X25885318Y7766948D01*
X26076510Y8039998D02*
X26010190Y8028304D01*
X26021884Y7961984D01*
X26088204Y7973678D01*
X26076510Y8039998D01*
X26021884Y7961984D01*
X26275391Y7493816D02*
X25893006Y6947715D01*
X26220764Y7415802D02*
X26287085Y7427496D01*
X26392412Y7411876D01*
X26509434Y7329937D01*
X26560135Y7236303D01*
X26544516Y7130976D01*
X26244072Y6701896D01*
X26634144Y6428765D02*
X27207720Y7247917D01*
X26930664Y6686196D02*
X26946202Y6210259D01*
X27328586Y6756361D02*
X26798023Y6662808D01*
D11*
X29750000Y4000000D02*
X23000000Y8750000D01*
D12*
X9000000Y14035715D02*
X9000000Y13321429D01*
X8500000Y14821429D02*
X9000000Y14035715D01*
X9500000Y14821429D01*
X1000000Y14821429D02*
X2000000Y13321429D01*
X2000000Y14821429D02*
X1000000Y13321429D01*
X2464285Y15892858D02*
X2678571Y15821429D01*
X3035714Y15821429D01*
X3178571Y15892858D01*
X3250000Y15964286D01*
X3321428Y16107143D01*
X3321428Y16250000D01*
X3250000Y16392858D01*
X3178571Y16464286D01*
X3035714Y16535715D01*
X2750000Y16607143D01*
X2607142Y16678572D01*
X2535714Y16750000D01*
X2464285Y16892858D01*
X2464285Y17035715D01*
X2535714Y17178572D01*
X2607142Y17250000D01*
X2750000Y17321429D01*
X3107142Y17321429D01*
X3321428Y17250000D01*
X4535714Y15892858D02*
X4392857Y15821429D01*
X4107142Y15821429D01*
X3964285Y15892858D01*
X3892857Y16035715D01*
X3892857Y16607143D01*
X3964285Y16750000D01*
X4107142Y16821429D01*
X4392857Y16821429D01*
X4535714Y16750000D01*
X4607142Y16607143D01*
X4607142Y16464286D01*
X3892857Y16321429D01*
X5250000Y15821429D02*
X5250000Y16821429D01*
X5250000Y16535715D02*
X5321428Y16678572D01*
X5392857Y16750000D01*
X5535714Y16821429D01*
X5678571Y16821429D01*
X6035714Y16821429D02*
X6392857Y15821429D01*
X6750000Y16821429D01*
X7535714Y15821429D02*
X7392857Y15892858D01*
X7321428Y15964286D01*
X7250000Y16107143D01*
X7250000Y16535715D01*
X7321428Y16678572D01*
X7392857Y16750000D01*
X7535714Y16821429D01*
X7750000Y16821429D01*
X7892857Y16750000D01*
X7964285Y16678572D01*
X8035714Y16535715D01*
X8035714Y16107143D01*
X7964285Y15964286D01*
X7892857Y15892858D01*
X7750000Y15821429D01*
X7535714Y15821429D01*
X928571Y8642858D02*
X2071428Y8642858D01*
X28678571Y1642858D02*
X29821428Y1642858D01*
X47742857Y2821429D02*
X48542857Y3059524D01*
X47742857Y3297620D01*
X47457142Y3630953D02*
X47400000Y3678572D01*
X47342857Y3773810D01*
X47342857Y4011905D01*
X47400000Y4107143D01*
X47457142Y4154762D01*
X47571428Y4202381D01*
X47685714Y4202381D01*
X47857142Y4154762D01*
X48542857Y3583334D01*
X48542857Y4202381D01*
X48428571Y4630953D02*
X48485714Y4678572D01*
X48542857Y4630953D01*
X48485714Y4583334D01*
X48428571Y4630953D01*
X48542857Y4630953D01*
X47342857Y5297620D02*
X47342857Y5392858D01*
X47400000Y5488096D01*
X47457142Y5535715D01*
X47571428Y5583334D01*
X47800000Y5630953D01*
X48085714Y5630953D01*
X48314285Y5583334D01*
X48428571Y5535715D01*
X48485714Y5488096D01*
X48542857Y5392858D01*
X48542857Y5297620D01*
X48485714Y5202381D01*
X48428571Y5154762D01*
X48314285Y5107143D01*
X48085714Y5059524D01*
X47800000Y5059524D01*
X47571428Y5107143D01*
X47457142Y5154762D01*
X47400000Y5202381D01*
X47342857Y5297620D01*
D13*
X41892857Y4464286D02*
X42321428Y4321429D01*
X42464285Y4178572D01*
X42607142Y3892858D01*
X42607142Y3464286D01*
X42464285Y3178572D01*
X42321428Y3035715D01*
X42035714Y2892858D01*
X40892857Y2892858D01*
X40892857Y5892858D01*
X41892857Y5892858D01*
X42178571Y5750000D01*
X42321428Y5607143D01*
X42464285Y5321429D01*
X42464285Y5035715D01*
X42321428Y4750000D01*
X42178571Y4607143D01*
X41892857Y4464286D01*
X40892857Y4464286D01*
X43892857Y2892858D02*
X43892857Y4892858D01*
X43892857Y5892858D02*
X43750000Y5750000D01*
X43892857Y5607143D01*
X44035714Y5750000D01*
X43892857Y5892858D01*
X43892857Y5607143D01*
X44892857Y4892858D02*
X46035714Y4892858D01*
X45321428Y5892858D02*
X45321428Y3321429D01*
X45464285Y3035715D01*
X45750000Y2892858D01*
X46035714Y2892858D01*
X41214285Y7178572D02*
X41071428Y7035715D01*
X40642857Y6892858D01*
X40357142Y6892858D01*
X39928571Y7035715D01*
X39642857Y7321429D01*
X39500000Y7607143D01*
X39357142Y8178572D01*
X39357142Y8607143D01*
X39500000Y9178572D01*
X39642857Y9464286D01*
X39928571Y9750000D01*
X40357142Y9892858D01*
X40642857Y9892858D01*
X41071428Y9750000D01*
X41214285Y9607143D01*
X43785714Y6892858D02*
X43785714Y8464286D01*
X43642857Y8750000D01*
X43357142Y8892858D01*
X42785714Y8892858D01*
X42500000Y8750000D01*
X43785714Y7035715D02*
X43500000Y6892858D01*
X42785714Y6892858D01*
X42500000Y7035715D01*
X42357142Y7321429D01*
X42357142Y7607143D01*
X42500000Y7892858D01*
X42785714Y8035715D01*
X43500000Y8035715D01*
X43785714Y8178572D01*
X44785714Y8892858D02*
X45928571Y8892858D01*
X45214285Y9892858D02*
X45214285Y7321429D01*
X45357142Y7035715D01*
X45642857Y6892858D01*
X45928571Y6892858D01*
D10*
X20928571Y17071429D02*
X21071428Y17023810D01*
X21119047Y16976191D01*
X21166666Y16880953D01*
X21166666Y16738096D01*
X21119047Y16642858D01*
X21071428Y16595239D01*
X20976190Y16547620D01*
X20595238Y16547620D01*
X20595238Y17547620D01*
X20928571Y17547620D01*
X21023809Y17500000D01*
X21071428Y17452381D01*
X21119047Y17357143D01*
X21119047Y17261905D01*
X21071428Y17166667D01*
X21023809Y17119048D01*
X20928571Y17071429D01*
X20595238Y17071429D01*
X21928571Y17071429D02*
X22071428Y17023810D01*
X22119047Y16976191D01*
X22166666Y16880953D01*
X22166666Y16738096D01*
X22119047Y16642858D01*
X22071428Y16595239D01*
X21976190Y16547620D01*
X21595238Y16547620D01*
X21595238Y17547620D01*
X21928571Y17547620D01*
X22023809Y17500000D01*
X22071428Y17452381D01*
X22119047Y17357143D01*
X22119047Y17261905D01*
X22071428Y17166667D01*
X22023809Y17119048D01*
X21928571Y17071429D01*
X21595238Y17071429D01*
X23166666Y16642858D02*
X23119047Y16595239D01*
X22976190Y16547620D01*
X22880952Y16547620D01*
X22738095Y16595239D01*
X22642857Y16690477D01*
X22595238Y16785715D01*
X22547619Y16976191D01*
X22547619Y17119048D01*
X22595238Y17309524D01*
X22642857Y17404762D01*
X22738095Y17500000D01*
X22880952Y17547620D01*
X22976190Y17547620D01*
X23119047Y17500000D01*
X23166666Y17452381D01*
X24357142Y16547620D02*
X24357142Y17547620D01*
X24690476Y16833334D01*
X25023809Y17547620D01*
X25023809Y16547620D01*
X25500000Y16547620D02*
X25500000Y17214286D01*
X25500000Y17547620D02*
X25452380Y17500000D01*
X25500000Y17452381D01*
X25547619Y17500000D01*
X25500000Y17547620D01*
X25500000Y17452381D01*
X26404761Y16595239D02*
X26309523Y16547620D01*
X26119047Y16547620D01*
X26023809Y16595239D01*
X25976190Y16642858D01*
X25928571Y16738096D01*
X25928571Y17023810D01*
X25976190Y17119048D01*
X26023809Y17166667D01*
X26119047Y17214286D01*
X26309523Y17214286D01*
X26404761Y17166667D01*
X26833333Y16547620D02*
X26833333Y17214286D01*
X26833333Y17023810D02*
X26880952Y17119048D01*
X26928571Y17166667D01*
X27023809Y17214286D01*
X27119047Y17214286D01*
X27595238Y16547620D02*
X27500000Y16595239D01*
X27452380Y16642858D01*
X27404761Y16738096D01*
X27404761Y17023810D01*
X27452380Y17119048D01*
X27500000Y17166667D01*
X27595238Y17214286D01*
X27738095Y17214286D01*
X27833333Y17166667D01*
X27880952Y17119048D01*
X27928571Y17023810D01*
X27928571Y16738096D01*
X27880952Y16642858D01*
X27833333Y16595239D01*
X27738095Y16547620D01*
X27595238Y16547620D01*
X28357142Y16642858D02*
X28404761Y16595239D01*
X28357142Y16547620D01*
X28309523Y16595239D01*
X28357142Y16642858D01*
X28357142Y16547620D01*
X28357142Y17166667D02*
X28404761Y17119048D01*
X28357142Y17071429D01*
X28309523Y17119048D01*
X28357142Y17166667D01*
X28357142Y17071429D01*
X29166666Y17071429D02*
X29309523Y17023810D01*
X29357142Y16976191D01*
X29404761Y16880953D01*
X29404761Y16738096D01*
X29357142Y16642858D01*
X29309523Y16595239D01*
X29214285Y16547620D01*
X28833333Y16547620D01*
X28833333Y17547620D01*
X29166666Y17547620D01*
X29261904Y17500000D01*
X29309523Y17452381D01*
X29357142Y17357143D01*
X29357142Y17261905D01*
X29309523Y17166667D01*
X29261904Y17119048D01*
X29166666Y17071429D01*
X28833333Y17071429D01*
X29833333Y16547620D02*
X29833333Y17214286D01*
X29833333Y17547620D02*
X29785714Y17500000D01*
X29833333Y17452381D01*
X29880952Y17500000D01*
X29833333Y17547620D01*
X29833333Y17452381D01*
X30166666Y17214286D02*
X30547619Y17214286D01*
X30309523Y17547620D02*
X30309523Y16690477D01*
X30357142Y16595239D01*
X30452380Y16547620D01*
X30547619Y16547620D01*
D12*
X20714285Y4571429D02*
X20000000Y4571429D01*
X19928571Y3857143D01*
X20000000Y3928572D01*
X20142857Y4000000D01*
X20500000Y4000000D01*
X20642857Y3928572D01*
X20714285Y3857143D01*
X20785714Y3714286D01*
X20785714Y3357143D01*
X20714285Y3214286D01*
X20642857Y3142858D01*
X20500000Y3071429D01*
X20142857Y3071429D01*
X20000000Y3142858D01*
X19928571Y3214286D01*
X21214285Y4571429D02*
X21714285Y3071429D01*
X22214285Y4571429D01*
D10*
X3964285Y1047620D02*
X3488095Y1047620D01*
X3488095Y2047620D01*
X4726190Y1047620D02*
X4726190Y1571429D01*
X4678571Y1666667D01*
X4583333Y1714286D01*
X4392857Y1714286D01*
X4297619Y1666667D01*
X4726190Y1095239D02*
X4630952Y1047620D01*
X4392857Y1047620D01*
X4297619Y1095239D01*
X4250000Y1190477D01*
X4250000Y1285715D01*
X4297619Y1380953D01*
X4392857Y1428572D01*
X4630952Y1428572D01*
X4726190Y1476191D01*
X5154761Y1095239D02*
X5250000Y1047620D01*
X5440476Y1047620D01*
X5535714Y1095239D01*
X5583333Y1190477D01*
X5583333Y1238096D01*
X5535714Y1333334D01*
X5440476Y1380953D01*
X5297619Y1380953D01*
X5202380Y1428572D01*
X5154761Y1523810D01*
X5154761Y1571429D01*
X5202380Y1666667D01*
X5297619Y1714286D01*
X5440476Y1714286D01*
X5535714Y1666667D01*
X6392857Y1095239D02*
X6297619Y1047620D01*
X6107142Y1047620D01*
X6011904Y1095239D01*
X5964285Y1190477D01*
X5964285Y1571429D01*
X6011904Y1666667D01*
X6107142Y1714286D01*
X6297619Y1714286D01*
X6392857Y1666667D01*
X6440476Y1571429D01*
X6440476Y1476191D01*
X5964285Y1380953D01*
X6869047Y1047620D02*
X6869047Y1714286D01*
X6869047Y1523810D02*
X6916666Y1619048D01*
X6964285Y1666667D01*
X7059523Y1714286D01*
X7154761Y1714286D01*
D12*
X20928571Y1642858D02*
X22071428Y1642858D01*
X21500000Y1071429D02*
X21500000Y2214286D01*
X6428571Y8392858D02*
X7571428Y8392858D01*
X7000000Y7821429D02*
X7000000Y8964286D01*
X1178571Y4142858D02*
X2321428Y4142858D01*
X1750000Y3571429D02*
X1750000Y4714286D01*
X928571Y11142858D02*
X2071428Y11142858D01*
X1500000Y10571429D02*
X1500000Y11714286D01*
D11*
X29630000Y7920000D02*
X29960000Y7920000D01*
X29630000Y14460000D02*
X29630000Y7920000D01*
X29960000Y14460000D02*
X29630000Y14460000D01*
X32370000Y7920000D02*
X32040000Y7920000D01*
X32370000Y14460000D02*
X32370000Y7920000D01*
X32040000Y14460000D02*
X32370000Y14460000D01*
X7830000Y7420000D02*
X6500000Y7420000D01*
X7830000Y8750000D02*
X7830000Y7420000D01*
X5230000Y7420000D02*
X2630000Y7420000D01*
X5230000Y10020000D02*
X5230000Y7420000D01*
X7830000Y10020000D02*
X5230000Y10020000D01*
X2630000Y7420000D02*
X2630000Y15160000D01*
X7830000Y10020000D02*
X7830000Y15160000D01*
X7830000Y15160000D02*
X2630000Y15160000D01*
X23710000Y11920000D02*
X23710000Y11764000D01*
X23710000Y14236000D02*
X23710000Y14080000D01*
X26311130Y11920163D02*
G75*
G02X24229039Y11920000I-1041130J1079837D01*
G01*
X26311130Y14079837D02*
G75*
G03X24229039Y14080000I-1041130J-1079837D01*
G01*
X26942335Y11921392D02*
G75*
G02X23710000Y11764484I-1672335J1078608D01*
G01*
X26942335Y14078608D02*
G75*
G03X23710000Y14235516I-1672335J-1078608D01*
G01*
D10*
X51000000Y18000000D02*
X0Y18000000D01*
X51000000Y28000000D02*
X51000000Y18000000D01*
X0Y28000000D02*
X51000000Y28000000D01*
X0Y18000000D02*
X0Y28000000D01*
D11*
X42609000Y10730000D02*
X42609000Y12240000D01*
X46310000Y10730000D02*
X46310000Y12240000D01*
X49580000Y12240000D02*
X39340000Y12240000D01*
X39340000Y10730000D02*
X39340000Y15371000D01*
X49580000Y10730000D02*
X49580000Y15371000D01*
X49580000Y15371000D02*
X39340000Y15371000D01*
X49580000Y10730000D02*
X39340000Y10730000D01*
X38435241Y2846000D02*
X38435241Y3476000D01*
X38750241Y3161000D02*
X38120241Y3161000D01*
X32009000Y4598000D02*
X32009000Y5402000D01*
X32049000Y4367000D02*
X32049000Y5633000D01*
X32089000Y4198000D02*
X32089000Y5802000D01*
X32129000Y4060000D02*
X32129000Y5940000D01*
X32169000Y3941000D02*
X32169000Y6059000D01*
X32209000Y3835000D02*
X32209000Y6165000D01*
X32249000Y3738000D02*
X32249000Y6262000D01*
X32289000Y3650000D02*
X32289000Y6350000D01*
X32329000Y3568000D02*
X32329000Y6432000D01*
X32369000Y3491000D02*
X32369000Y6509000D01*
X32409000Y3419000D02*
X32409000Y6581000D01*
X32449000Y3350000D02*
X32449000Y6650000D01*
X32489000Y3286000D02*
X32489000Y6714000D01*
X32529000Y3224000D02*
X32529000Y6776000D01*
X32569000Y3166000D02*
X32569000Y6834000D01*
X32609000Y3110000D02*
X32609000Y6890000D01*
X32649000Y3056000D02*
X32649000Y6944000D01*
X32689000Y3005000D02*
X32689000Y6995000D01*
X32729000Y2956000D02*
X32729000Y7044000D01*
X32769000Y2908000D02*
X32769000Y7092000D01*
X32809000Y2863000D02*
X32809000Y7137000D01*
X32849000Y2818000D02*
X32849000Y7182000D01*
X32889000Y2776000D02*
X32889000Y7224000D01*
X32929000Y2735000D02*
X32929000Y7265000D01*
X32969000Y6040000D02*
X32969000Y7305000D01*
X32969000Y2695000D02*
X32969000Y3960000D01*
X33009000Y6040000D02*
X33009000Y7343000D01*
X33009000Y2657000D02*
X33009000Y3960000D01*
X33049000Y6040000D02*
X33049000Y7380000D01*
X33049000Y2620000D02*
X33049000Y3960000D01*
X33089000Y6040000D02*
X33089000Y7416000D01*
X33089000Y2584000D02*
X33089000Y3960000D01*
X33129000Y6040000D02*
X33129000Y7450000D01*
X33129000Y2550000D02*
X33129000Y3960000D01*
X33169000Y6040000D02*
X33169000Y7484000D01*
X33169000Y2516000D02*
X33169000Y3960000D01*
X33209000Y6040000D02*
X33209000Y7516000D01*
X33209000Y2484000D02*
X33209000Y3960000D01*
X33249000Y6040000D02*
X33249000Y7548000D01*
X33249000Y2452000D02*
X33249000Y3960000D01*
X33289000Y6040000D02*
X33289000Y7578000D01*
X33289000Y2422000D02*
X33289000Y3960000D01*
X33329000Y6040000D02*
X33329000Y7607000D01*
X33329000Y2393000D02*
X33329000Y3960000D01*
X33369000Y6040000D02*
X33369000Y7636000D01*
X33369000Y2364000D02*
X33369000Y3960000D01*
X33409000Y6040000D02*
X33409000Y7664000D01*
X33409000Y2336000D02*
X33409000Y3960000D01*
X33449000Y6040000D02*
X33449000Y7690000D01*
X33449000Y2310000D02*
X33449000Y3960000D01*
X33489000Y6040000D02*
X33489000Y7716000D01*
X33489000Y2284000D02*
X33489000Y3960000D01*
X33529000Y6040000D02*
X33529000Y7742000D01*
X33529000Y2258000D02*
X33529000Y3960000D01*
X33569000Y6040000D02*
X33569000Y7766000D01*
X33569000Y2234000D02*
X33569000Y3960000D01*
X33609000Y6040000D02*
X33609000Y7790000D01*
X33609000Y2210000D02*
X33609000Y3960000D01*
X33649000Y6040000D02*
X33649000Y7812000D01*
X33649000Y2188000D02*
X33649000Y3960000D01*
X33689000Y6040000D02*
X33689000Y7834000D01*
X33689000Y2166000D02*
X33689000Y3960000D01*
X33729000Y6040000D02*
X33729000Y7856000D01*
X33729000Y2144000D02*
X33729000Y3960000D01*
X33769000Y6040000D02*
X33769000Y7876000D01*
X33769000Y2124000D02*
X33769000Y3960000D01*
X33809000Y6040000D02*
X33809000Y7896000D01*
X33809000Y2104000D02*
X33809000Y3960000D01*
X33849000Y6040000D02*
X33849000Y7916000D01*
X33849000Y2084000D02*
X33849000Y3960000D01*
X33889000Y6040000D02*
X33889000Y7934000D01*
X33889000Y2066000D02*
X33889000Y3960000D01*
X33929000Y6040000D02*
X33929000Y7952000D01*
X33929000Y2048000D02*
X33929000Y3960000D01*
X33969000Y6040000D02*
X33969000Y7970000D01*
X33969000Y2030000D02*
X33969000Y3960000D01*
X34009000Y6040000D02*
X34009000Y7986000D01*
X34009000Y2014000D02*
X34009000Y3960000D01*
X34049000Y6040000D02*
X34049000Y8002000D01*
X34049000Y1998000D02*
X34049000Y3960000D01*
X34089000Y6040000D02*
X34089000Y8018000D01*
X34089000Y1982000D02*
X34089000Y3960000D01*
X34129000Y6040000D02*
X34129000Y8033000D01*
X34129000Y1967000D02*
X34129000Y3960000D01*
X34169000Y6040000D02*
X34169000Y8047000D01*
X34169000Y1953000D02*
X34169000Y3960000D01*
X34209000Y6040000D02*
X34209000Y8061000D01*
X34209000Y1939000D02*
X34209000Y3960000D01*
X34249000Y6040000D02*
X34249000Y8074000D01*
X34249000Y1926000D02*
X34249000Y3960000D01*
X34289000Y6040000D02*
X34289000Y8086000D01*
X34289000Y1914000D02*
X34289000Y3960000D01*
X34329000Y6040000D02*
X34329000Y8098000D01*
X34329000Y1902000D02*
X34329000Y3960000D01*
X34369000Y6040000D02*
X34369000Y8110000D01*
X34369000Y1890000D02*
X34369000Y3960000D01*
X34409000Y6040000D02*
X34409000Y8121000D01*
X34409000Y1879000D02*
X34409000Y3960000D01*
X34449000Y6040000D02*
X34449000Y8131000D01*
X34449000Y1869000D02*
X34449000Y3960000D01*
X34489000Y6040000D02*
X34489000Y8141000D01*
X34489000Y1859000D02*
X34489000Y3960000D01*
X34529000Y6040000D02*
X34529000Y8150000D01*
X34529000Y1850000D02*
X34529000Y3960000D01*
X34570000Y6040000D02*
X34570000Y8159000D01*
X34570000Y1841000D02*
X34570000Y3960000D01*
X34610000Y6040000D02*
X34610000Y8167000D01*
X34610000Y1833000D02*
X34610000Y3960000D01*
X34650000Y6040000D02*
X34650000Y8175000D01*
X34650000Y1825000D02*
X34650000Y3960000D01*
X34690000Y6040000D02*
X34690000Y8182000D01*
X34690000Y1818000D02*
X34690000Y3960000D01*
X34730000Y6040000D02*
X34730000Y8189000D01*
X34730000Y1811000D02*
X34730000Y3960000D01*
X34770000Y6040000D02*
X34770000Y8195000D01*
X34770000Y1805000D02*
X34770000Y3960000D01*
X34810000Y6040000D02*
X34810000Y8201000D01*
X34810000Y1799000D02*
X34810000Y3960000D01*
X34850000Y6040000D02*
X34850000Y8206000D01*
X34850000Y1794000D02*
X34850000Y3960000D01*
X34890000Y6040000D02*
X34890000Y8211000D01*
X34890000Y1789000D02*
X34890000Y3960000D01*
X34930000Y6040000D02*
X34930000Y8215000D01*
X34930000Y1785000D02*
X34930000Y3960000D01*
X34970000Y6040000D02*
X34970000Y8218000D01*
X34970000Y1782000D02*
X34970000Y3960000D01*
X35010000Y6040000D02*
X35010000Y8222000D01*
X35010000Y1778000D02*
X35010000Y3960000D01*
X35050000Y1776000D02*
X35050000Y8224000D01*
X35090000Y1773000D02*
X35090000Y8227000D01*
X35130000Y1772000D02*
X35130000Y8228000D01*
X35170000Y1770000D02*
X35170000Y8230000D01*
X35210000Y1770000D02*
X35210000Y8230000D01*
X35250000Y1770000D02*
X35250000Y8230000D01*
X38520000Y5000000D02*
G75*
G03X38520000Y5000000I-3270000J0D01*
G01*
X12385816Y6872795D02*
G75*
G02X12910000Y7600000I2324184J-1122795D01*
G01*
X12353600Y4651193D02*
G75*
G03X14710000Y3150000I2356400J1098807D01*
G01*
X17066400Y4651193D02*
G75*
G02X14710000Y3150000I-2356400J1098807D01*
G01*
X17034184Y6872795D02*
G75*
G03X16510000Y7600000I-2324184J-1122795D01*
G01*
X16510000Y7600000D02*
X12910000Y7600000D01*
X18460000Y9630000D02*
X18460000Y9960000D01*
X11920000Y9630000D02*
X18460000Y9630000D01*
X11920000Y9960000D02*
X11920000Y9630000D01*
X18460000Y12370000D02*
X18460000Y12040000D01*
X11920000Y12370000D02*
X18460000Y12370000D01*
X11920000Y12040000D02*
X11920000Y12370000D01*
X11920000Y14870000D02*
X11920000Y14540000D01*
X18460000Y14870000D02*
X11920000Y14870000D01*
X18460000Y14540000D02*
X18460000Y14870000D01*
X11920000Y12130000D02*
X11920000Y12460000D01*
X18460000Y12130000D02*
X11920000Y12130000D01*
X18460000Y12460000D02*
X18460000Y12130000D01*
X28080000Y3830000D02*
X28080000Y2500000D01*
X26750000Y3830000D02*
X28080000Y3830000D01*
X25480000Y3830000D02*
X25480000Y1170000D01*
X25480000Y1170000D02*
X22880000Y1170000D01*
X25480000Y3830000D02*
X22880000Y3830000D01*
X22880000Y3830000D02*
X22880000Y1170000D01*
X7830000Y5330000D02*
X7830000Y4000000D01*
X6500000Y5330000D02*
X7830000Y5330000D01*
X5230000Y5330000D02*
X5230000Y2670000D01*
X5230000Y2670000D02*
X2630000Y2670000D01*
X5230000Y5330000D02*
X2630000Y5330000D01*
X2630000Y5330000D02*
X2630000Y2670000D01*
X38554775Y10525000D02*
X38554775Y11025000D01*
X38804775Y10775000D02*
X38304775Y10775000D01*
X33399000Y11966000D02*
X33399000Y12534000D01*
X33439000Y11732000D02*
X33439000Y12768000D01*
X33479000Y11573000D02*
X33479000Y12927000D01*
X33519000Y11445000D02*
X33519000Y13055000D01*
X33559000Y11335000D02*
X33559000Y13165000D01*
X33599000Y11239000D02*
X33599000Y13261000D01*
X33639000Y11152000D02*
X33639000Y13348000D01*
X33679000Y11072000D02*
X33679000Y13428000D01*
X33719000Y13290000D02*
X33719000Y13501000D01*
X33719000Y10999000D02*
X33719000Y11210000D01*
X33759000Y13290000D02*
X33759000Y13569000D01*
X33759000Y10931000D02*
X33759000Y11210000D01*
X33799000Y13290000D02*
X33799000Y13633000D01*
X33799000Y10867000D02*
X33799000Y11210000D01*
X33839000Y13290000D02*
X33839000Y13693000D01*
X33839000Y10807000D02*
X33839000Y11210000D01*
X33879000Y13290000D02*
X33879000Y13750000D01*
X33879000Y10750000D02*
X33879000Y11210000D01*
X33919000Y13290000D02*
X33919000Y13804000D01*
X33919000Y10696000D02*
X33919000Y11210000D01*
X33959000Y13290000D02*
X33959000Y13855000D01*
X33959000Y10645000D02*
X33959000Y11210000D01*
X33999000Y13290000D02*
X33999000Y13903000D01*
X33999000Y10597000D02*
X33999000Y11210000D01*
X34039000Y13290000D02*
X34039000Y13949000D01*
X34039000Y10551000D02*
X34039000Y11210000D01*
X34079000Y13290000D02*
X34079000Y13993000D01*
X34079000Y10507000D02*
X34079000Y11210000D01*
X34119000Y13290000D02*
X34119000Y14035000D01*
X34119000Y10465000D02*
X34119000Y11210000D01*
X34159000Y13290000D02*
X34159000Y14076000D01*
X34159000Y10424000D02*
X34159000Y11210000D01*
X34199000Y13290000D02*
X34199000Y14114000D01*
X34199000Y10386000D02*
X34199000Y11210000D01*
X34239000Y13290000D02*
X34239000Y14151000D01*
X34239000Y10349000D02*
X34239000Y11210000D01*
X34279000Y13290000D02*
X34279000Y14187000D01*
X34279000Y10313000D02*
X34279000Y11210000D01*
X34319000Y13290000D02*
X34319000Y14221000D01*
X34319000Y10279000D02*
X34319000Y11210000D01*
X34359000Y13290000D02*
X34359000Y14254000D01*
X34359000Y10246000D02*
X34359000Y11210000D01*
X34399000Y13290000D02*
X34399000Y14285000D01*
X34399000Y10215000D02*
X34399000Y11210000D01*
X34439000Y13290000D02*
X34439000Y14315000D01*
X34439000Y10185000D02*
X34439000Y11210000D01*
X34479000Y13290000D02*
X34479000Y14345000D01*
X34479000Y10155000D02*
X34479000Y11210000D01*
X34519000Y13290000D02*
X34519000Y14372000D01*
X34519000Y10128000D02*
X34519000Y11210000D01*
X34559000Y13290000D02*
X34559000Y14399000D01*
X34559000Y10101000D02*
X34559000Y11210000D01*
X34599000Y13290000D02*
X34599000Y14425000D01*
X34599000Y10075000D02*
X34599000Y11210000D01*
X34639000Y13290000D02*
X34639000Y14450000D01*
X34639000Y10050000D02*
X34639000Y11210000D01*
X34679000Y13290000D02*
X34679000Y14474000D01*
X34679000Y10026000D02*
X34679000Y11210000D01*
X34719000Y13290000D02*
X34719000Y14497000D01*
X34719000Y10003000D02*
X34719000Y11210000D01*
X34759000Y13290000D02*
X34759000Y14518000D01*
X34759000Y9982000D02*
X34759000Y11210000D01*
X34799000Y13290000D02*
X34799000Y14540000D01*
X34799000Y9960000D02*
X34799000Y11210000D01*
X34839000Y13290000D02*
X34839000Y14560000D01*
X34839000Y9940000D02*
X34839000Y11210000D01*
X34879000Y13290000D02*
X34879000Y14579000D01*
X34879000Y9921000D02*
X34879000Y11210000D01*
X34919000Y13290000D02*
X34919000Y14598000D01*
X34919000Y9902000D02*
X34919000Y11210000D01*
X34959000Y13290000D02*
X34959000Y14615000D01*
X34959000Y9885000D02*
X34959000Y11210000D01*
X34999000Y13290000D02*
X34999000Y14632000D01*
X34999000Y9868000D02*
X34999000Y11210000D01*
X35039000Y13290000D02*
X35039000Y14648000D01*
X35039000Y9852000D02*
X35039000Y11210000D01*
X35079000Y13290000D02*
X35079000Y14664000D01*
X35079000Y9836000D02*
X35079000Y11210000D01*
X35119000Y13290000D02*
X35119000Y14678000D01*
X35119000Y9822000D02*
X35119000Y11210000D01*
X35159000Y13290000D02*
X35159000Y14692000D01*
X35159000Y9808000D02*
X35159000Y11210000D01*
X35199000Y13290000D02*
X35199000Y14705000D01*
X35199000Y9795000D02*
X35199000Y11210000D01*
X35239000Y13290000D02*
X35239000Y14718000D01*
X35239000Y9782000D02*
X35239000Y11210000D01*
X35279000Y13290000D02*
X35279000Y14730000D01*
X35279000Y9770000D02*
X35279000Y11210000D01*
X35320000Y13290000D02*
X35320000Y14741000D01*
X35320000Y9759000D02*
X35320000Y11210000D01*
X35360000Y13290000D02*
X35360000Y14751000D01*
X35360000Y9749000D02*
X35360000Y11210000D01*
X35400000Y13290000D02*
X35400000Y14761000D01*
X35400000Y9739000D02*
X35400000Y11210000D01*
X35440000Y13290000D02*
X35440000Y14770000D01*
X35440000Y9730000D02*
X35440000Y11210000D01*
X35480000Y13290000D02*
X35480000Y14778000D01*
X35480000Y9722000D02*
X35480000Y11210000D01*
X35520000Y13290000D02*
X35520000Y14786000D01*
X35520000Y9714000D02*
X35520000Y11210000D01*
X35560000Y13290000D02*
X35560000Y14793000D01*
X35560000Y9707000D02*
X35560000Y11210000D01*
X35600000Y13290000D02*
X35600000Y14800000D01*
X35600000Y9700000D02*
X35600000Y11210000D01*
X35640000Y13290000D02*
X35640000Y14806000D01*
X35640000Y9694000D02*
X35640000Y11210000D01*
X35680000Y13290000D02*
X35680000Y14811000D01*
X35680000Y9689000D02*
X35680000Y11210000D01*
X35720000Y13290000D02*
X35720000Y14815000D01*
X35720000Y9685000D02*
X35720000Y11210000D01*
X35760000Y13290000D02*
X35760000Y14819000D01*
X35760000Y9681000D02*
X35760000Y11210000D01*
X35800000Y9677000D02*
X35800000Y14823000D01*
X35840000Y9674000D02*
X35840000Y14826000D01*
X35880000Y9672000D02*
X35880000Y14828000D01*
X35920000Y9671000D02*
X35920000Y14829000D01*
X35960000Y9670000D02*
X35960000Y14830000D01*
X36000000Y9670000D02*
X36000000Y14830000D01*
X38620000Y12250000D02*
G75*
G03X38620000Y12250000I-2620000J0D01*
G01*
D10*
X29202380Y9583334D02*
X28726190Y9250000D01*
X29202380Y9011905D02*
X28202380Y9011905D01*
X28202380Y9392858D01*
X28250000Y9488096D01*
X28297619Y9535715D01*
X28392857Y9583334D01*
X28535714Y9583334D01*
X28630952Y9535715D01*
X28678571Y9488096D01*
X28726190Y9392858D01*
X28726190Y9011905D01*
X28202380Y9916667D02*
X28202380Y10535715D01*
X28583333Y10202381D01*
X28583333Y10345239D01*
X28630952Y10440477D01*
X28678571Y10488096D01*
X28773809Y10535715D01*
X29011904Y10535715D01*
X29107142Y10488096D01*
X29154761Y10440477D01*
X29202380Y10345239D01*
X29202380Y10059524D01*
X29154761Y9964286D01*
X29107142Y9916667D01*
X8416666Y8047620D02*
X8416666Y7333334D01*
X8369047Y7190477D01*
X8273809Y7095239D01*
X8130952Y7047620D01*
X8035714Y7047620D01*
X8845238Y7952381D02*
X8892857Y8000000D01*
X8988095Y8047620D01*
X9226190Y8047620D01*
X9321428Y8000000D01*
X9369047Y7952381D01*
X9416666Y7857143D01*
X9416666Y7761905D01*
X9369047Y7619048D01*
X8797619Y7047620D01*
X9416666Y7047620D01*
X27511904Y13547620D02*
X27511904Y14547620D01*
X27750000Y14547620D01*
X27892857Y14500000D01*
X27988095Y14404762D01*
X28035714Y14309524D01*
X28083333Y14119048D01*
X28083333Y13976191D01*
X28035714Y13785715D01*
X27988095Y13690477D01*
X27892857Y13595239D01*
X27750000Y13547620D01*
X27511904Y13547620D01*
X29035714Y13547620D02*
X28464285Y13547620D01*
X28750000Y13547620D02*
X28750000Y14547620D01*
X28654761Y14404762D01*
X28559523Y14309524D01*
X28464285Y14261905D01*
X24226190Y19321429D02*
X24369047Y19273810D01*
X24416666Y19226191D01*
X24464285Y19130953D01*
X24464285Y18988096D01*
X24416666Y18892858D01*
X24369047Y18845239D01*
X24273809Y18797620D01*
X23892857Y18797620D01*
X23892857Y19797620D01*
X24226190Y19797620D01*
X24321428Y19750000D01*
X24369047Y19702381D01*
X24416666Y19607143D01*
X24416666Y19511905D01*
X24369047Y19416667D01*
X24321428Y19369048D01*
X24226190Y19321429D01*
X23892857Y19321429D01*
X24892857Y18797620D02*
X24892857Y19797620D01*
X25226190Y19797620D02*
X25797619Y19797620D01*
X25511904Y18797620D02*
X25511904Y19797620D01*
X26654761Y18797620D02*
X26083333Y18797620D01*
X26369047Y18797620D02*
X26369047Y19797620D01*
X26273809Y19654762D01*
X26178571Y19559524D01*
X26083333Y19511905D01*
X45476190Y27500000D02*
X45285714Y27595239D01*
X45000000Y27595239D01*
X44714285Y27500000D01*
X44523809Y27309524D01*
X44428571Y27119048D01*
X44333333Y26738096D01*
X44333333Y26452381D01*
X44428571Y26071429D01*
X44523809Y25880953D01*
X44714285Y25690477D01*
X45000000Y25595239D01*
X45190476Y25595239D01*
X45476190Y25690477D01*
X45571428Y25785715D01*
X45571428Y26452381D01*
X45190476Y26452381D01*
X46428571Y25595239D02*
X46428571Y27595239D01*
X47571428Y25595239D01*
X47571428Y27595239D01*
X48523809Y25595239D02*
X48523809Y27595239D01*
X49000000Y27595239D01*
X49285714Y27500000D01*
X49476190Y27309524D01*
X49571428Y27119048D01*
X49666666Y26738096D01*
X49666666Y26452381D01*
X49571428Y26071429D01*
X49476190Y25880953D01*
X49285714Y25690477D01*
X49000000Y25595239D01*
X48523809Y25595239D01*
X35476190Y27595239D02*
X36714285Y27595239D01*
X36047619Y26833334D01*
X36333333Y26833334D01*
X36523809Y26738096D01*
X36619047Y26642858D01*
X36714285Y26452381D01*
X36714285Y25976191D01*
X36619047Y25785715D01*
X36523809Y25690477D01*
X36333333Y25595239D01*
X35761904Y25595239D01*
X35571428Y25690477D01*
X35476190Y25785715D01*
X37285714Y27595239D02*
X37952380Y25595239D01*
X38619047Y27595239D01*
X22642857Y25595239D02*
X22642857Y27595239D01*
X23404761Y27595239D01*
X23595238Y27500000D01*
X23690476Y27404762D01*
X23785714Y27214286D01*
X23785714Y26928572D01*
X23690476Y26738096D01*
X23595238Y26642858D01*
X23404761Y26547620D01*
X22642857Y26547620D01*
X24642857Y25595239D02*
X24642857Y26928572D01*
X24642857Y27595239D02*
X24547619Y27500000D01*
X24642857Y27404762D01*
X24738095Y27500000D01*
X24642857Y27595239D01*
X24642857Y27404762D01*
X25595238Y26928572D02*
X25595238Y25595239D01*
X25595238Y26738096D02*
X25690476Y26833334D01*
X25880952Y26928572D01*
X26166666Y26928572D01*
X26357142Y26833334D01*
X26452380Y26642858D01*
X26452380Y25595239D01*
X27309523Y27404762D02*
X27404761Y27500000D01*
X27595238Y27595239D01*
X28071428Y27595239D01*
X28261904Y27500000D01*
X28357142Y27404762D01*
X28452380Y27214286D01*
X28452380Y27023810D01*
X28357142Y26738096D01*
X27214285Y25595239D01*
X28452380Y25595239D01*
X11142857Y25595239D02*
X11142857Y27595239D01*
X11904761Y27595239D01*
X12095238Y27500000D01*
X12190476Y27404762D01*
X12285714Y27214286D01*
X12285714Y26928572D01*
X12190476Y26738096D01*
X12095238Y26642858D01*
X11904761Y26547620D01*
X11142857Y26547620D01*
X13142857Y25595239D02*
X13142857Y26928572D01*
X13142857Y27595239D02*
X13047619Y27500000D01*
X13142857Y27404762D01*
X13238095Y27500000D01*
X13142857Y27595239D01*
X13142857Y27404762D01*
X14095238Y26928572D02*
X14095238Y25595239D01*
X14095238Y26738096D02*
X14190476Y26833334D01*
X14380952Y26928572D01*
X14666666Y26928572D01*
X14857142Y26833334D01*
X14952380Y26642858D01*
X14952380Y25595239D01*
X16952380Y25595239D02*
X15809523Y25595239D01*
X16380952Y25595239D02*
X16380952Y27595239D01*
X16190476Y27309524D01*
X16000000Y27119048D01*
X15809523Y27023810D01*
X642857Y25595239D02*
X642857Y27595239D01*
X1404761Y27595239D01*
X1595238Y27500000D01*
X1690476Y27404762D01*
X1785714Y27214286D01*
X1785714Y26928572D01*
X1690476Y26738096D01*
X1595238Y26642858D01*
X1404761Y26547620D01*
X642857Y26547620D01*
X2642857Y25595239D02*
X2642857Y26928572D01*
X2642857Y27595239D02*
X2547619Y27500000D01*
X2642857Y27404762D01*
X2738095Y27500000D01*
X2642857Y27595239D01*
X2642857Y27404762D01*
X3595238Y26928572D02*
X3595238Y25595239D01*
X3595238Y26738096D02*
X3690476Y26833334D01*
X3880952Y26928572D01*
X4166666Y26928572D01*
X4357142Y26833334D01*
X4452380Y26642858D01*
X4452380Y25595239D01*
X5785714Y27595239D02*
X5976190Y27595239D01*
X6166666Y27500000D01*
X6261904Y27404762D01*
X6357142Y27214286D01*
X6452380Y26833334D01*
X6452380Y26357143D01*
X6357142Y25976191D01*
X6261904Y25785715D01*
X6166666Y25690477D01*
X5976190Y25595239D01*
X5785714Y25595239D01*
X5595238Y25690477D01*
X5500000Y25785715D01*
X5404761Y25976191D01*
X5309523Y26357143D01*
X5309523Y26833334D01*
X5404761Y27214286D01*
X5500000Y27404762D01*
X5595238Y27500000D01*
X5785714Y27595239D01*
X39488095Y17047620D02*
X39488095Y16238096D01*
X39535714Y16142858D01*
X39583333Y16095239D01*
X39678571Y16047620D01*
X39869047Y16047620D01*
X39964285Y16095239D01*
X40011904Y16142858D01*
X40059523Y16238096D01*
X40059523Y17047620D01*
X41059523Y16047620D02*
X40488095Y16047620D01*
X40773809Y16047620D02*
X40773809Y17047620D01*
X40678571Y16904762D01*
X40583333Y16809524D01*
X40488095Y16761905D01*
X30833333Y6642858D02*
X30785714Y6595239D01*
X30642857Y6547620D01*
X30547619Y6547620D01*
X30404761Y6595239D01*
X30309523Y6690477D01*
X30261904Y6785715D01*
X30214285Y6976191D01*
X30214285Y7119048D01*
X30261904Y7309524D01*
X30309523Y7404762D01*
X30404761Y7500000D01*
X30547619Y7547620D01*
X30642857Y7547620D01*
X30785714Y7500000D01*
X30833333Y7452381D01*
X31214285Y7452381D02*
X31261904Y7500000D01*
X31357142Y7547620D01*
X31595238Y7547620D01*
X31690476Y7500000D01*
X31738095Y7452381D01*
X31785714Y7357143D01*
X31785714Y7261905D01*
X31738095Y7119048D01*
X31166666Y6547620D01*
X31785714Y6547620D01*
X17904761Y7202381D02*
X17809523Y7250000D01*
X17714285Y7345239D01*
X17571428Y7488096D01*
X17476190Y7535715D01*
X17380952Y7535715D01*
X17428571Y7297620D02*
X17333333Y7345239D01*
X17238095Y7440477D01*
X17190476Y7630953D01*
X17190476Y7964286D01*
X17238095Y8154762D01*
X17333333Y8250000D01*
X17428571Y8297620D01*
X17619047Y8297620D01*
X17714285Y8250000D01*
X17809523Y8154762D01*
X17857142Y7964286D01*
X17857142Y7630953D01*
X17809523Y7440477D01*
X17714285Y7345239D01*
X17619047Y7297620D01*
X17428571Y7297620D01*
X18809523Y7297620D02*
X18238095Y7297620D01*
X18523809Y7297620D02*
X18523809Y8297620D01*
X18428571Y8154762D01*
X18333333Y8059524D01*
X18238095Y8011905D01*
X11333333Y8297620D02*
X11000000Y8773810D01*
X10761904Y8297620D02*
X10761904Y9297620D01*
X11142857Y9297620D01*
X11238095Y9250000D01*
X11285714Y9202381D01*
X11333333Y9107143D01*
X11333333Y8964286D01*
X11285714Y8869048D01*
X11238095Y8821429D01*
X11142857Y8773810D01*
X10761904Y8773810D01*
X11714285Y9202381D02*
X11761904Y9250000D01*
X11857142Y9297620D01*
X12095238Y9297620D01*
X12190476Y9250000D01*
X12238095Y9202381D01*
X12285714Y9107143D01*
X12285714Y9011905D01*
X12238095Y8869048D01*
X11666666Y8297620D01*
X12285714Y8297620D01*
X11833333Y15047620D02*
X11500000Y15523810D01*
X11261904Y15047620D02*
X11261904Y16047620D01*
X11642857Y16047620D01*
X11738095Y16000000D01*
X11785714Y15952381D01*
X11833333Y15857143D01*
X11833333Y15714286D01*
X11785714Y15619048D01*
X11738095Y15571429D01*
X11642857Y15523810D01*
X11261904Y15523810D01*
X12785714Y15047620D02*
X12214285Y15047620D01*
X12500000Y15047620D02*
X12500000Y16047620D01*
X12404761Y15904762D01*
X12309523Y15809524D01*
X12214285Y15761905D01*
X28666666Y3797620D02*
X28666666Y3083334D01*
X28619047Y2940477D01*
X28523809Y2845239D01*
X28380952Y2797620D01*
X28285714Y2797620D01*
X29571428Y3464286D02*
X29571428Y2797620D01*
X29333333Y3845239D02*
X29095238Y3130953D01*
X29714285Y3130953D01*
X8416666Y6047620D02*
X8416666Y5333334D01*
X8369047Y5190477D01*
X8273809Y5095239D01*
X8130952Y5047620D01*
X8035714Y5047620D01*
X9416666Y5047620D02*
X8845238Y5047620D01*
X9130952Y5047620D02*
X9130952Y6047620D01*
X9035714Y5904762D01*
X8940476Y5809524D01*
X8845238Y5761905D01*
X33583333Y15142858D02*
X33535714Y15095239D01*
X33392857Y15047620D01*
X33297619Y15047620D01*
X33154761Y15095239D01*
X33059523Y15190477D01*
X33011904Y15285715D01*
X32964285Y15476191D01*
X32964285Y15619048D01*
X33011904Y15809524D01*
X33059523Y15904762D01*
X33154761Y16000000D01*
X33297619Y16047620D01*
X33392857Y16047620D01*
X33535714Y16000000D01*
X33583333Y15952381D01*
X34535714Y15047620D02*
X33964285Y15047620D01*
X34250000Y15047620D02*
X34250000Y16047620D01*
X34154761Y15904762D01*
X34059523Y15809524D01*
X33964285Y15761905D01*
M02*
