<?xml version="1.0" standalone="no"?>
 <!DOCTYPE svg PUBLIC "-//W3C//DTD SVG 1.1//EN" 
 "http://www.w3.org/Graphics/SVG/1.1/DTD/svg11.dtd"> 
<svg xmlns="http://www.w3.org/2000/svg" version="1.1" 
    width="29.7002cm" height="21.0007cm" viewBox="0 0 116930 82680 ">
<title>SVG Picture created as catbit-F_SilkS.svg date 2020/04/30 10:40:08 </title>
  <desc>Picture generated by PCBNEW </desc>
<g style="fill:#000000; fill-opacity:1;stroke:#000000; stroke-opacity:1;
stroke-linecap:round; stroke-linejoin:round; "
 transform="translate(0 0) scale(1 1)">
</g>
<g style="fill:#000000; fill-opacity:0.0; 
stroke:#000000; stroke-width:-0.000393701; stroke-opacity:1; 
stroke-linecap:round; stroke-linejoin:round;">
</g>
<g style="fill:#000000; fill-opacity:0.0; 
stroke:#000000; stroke-width:59.0551; stroke-opacity:1; 
stroke-linecap:round; stroke-linejoin:round;">
<g transform="rotate(35 60255.9 56948.8)">
<text x="60255.9" y="57145.7"
textLength="1068.62" font-size="524.934" lengthAdjust="spacingAndGlyphs"
text-anchor="middle" opacity="0">link</text>
</g>
<path d="M59838 56874
L59818 56837
L59825 56795
L60018 56519
" />
<path d="M59961 56960
L60112 56745
" />
<path d="M60187 56637
L60161 56642
L60166 56668
L60192 56663
L60187 56637
L60166 56668
" />
<path d="M60265 56852
L60115 57067
" />
<path d="M60244 56883
L60270 56878
L60311 56885
L60358 56917
L60378 56954
L60371 56995
L60253 57164
" />
<path d="M60407 57272
L60632 56949
" />
<path d="M60523 57170
L60530 57358
" />
<path d="M60680 57143
L60471 57179
" />
</g>
<g style="fill:#000000; fill-opacity:0.0; 
stroke:#000000; stroke-width:47.2441; stroke-opacity:1; 
stroke-linecap:round; stroke-linejoin:round;">
<path d="M61633 58228
L58976 56358
" />
</g>
<g style="fill:#000000; fill-opacity:0.0; 
stroke:#000000; stroke-width:78.7402; stroke-opacity:1; 
stroke-linecap:round; stroke-linejoin:round;">
<text x="53464.6" y="54586.6"
textLength="582.958" font-size="787.402" lengthAdjust="spacingAndGlyphs"
text-anchor="middle" opacity="0">Y</text>
<path d="M53464 54277
L53464 54558
" />
<path d="M53267 53967
L53464 54277
L53661 53967
" />
<text x="50511.8" y="54586.6"
textLength="664.792" font-size="787.402" lengthAdjust="spacingAndGlyphs"
text-anchor="middle" opacity="0">X</text>
<path d="M50314 53967
L50708 54558
" />
<path d="M50708 53967
L50314 54558
" />
<text x="51988.2" y="53602.4"
textLength="2520.81" font-size="787.402" lengthAdjust="spacingAndGlyphs"
text-anchor="middle" opacity="0">Servo</text>
<path d="M50891 53546
L50975 53574
L51116 53574
L51172 53546
L51200 53517
L51228 53461
L51228 53405
L51200 53349
L51172 53321
L51116 53293
L51003 53264
L50947 53236
L50919 53208
L50891 53152
L50891 53096
L50919 53039
L50947 53011
L51003 52983
L51144 52983
L51228 53011
" />
<path d="M51706 53546
L51650 53574
L51538 53574
L51482 53546
L51453 53489
L51453 53264
L51482 53208
L51538 53180
L51650 53180
L51706 53208
L51735 53264
L51735 53321
L51453 53377
" />
<path d="M51988 53574
L51988 53180
" />
<path d="M51988 53293
L52016 53236
L52044 53208
L52100 53180
L52156 53180
" />
<path d="M52297 53180
L52438 53574
L52578 53180
" />
<path d="M52888 53574
L52831 53546
L52803 53517
L52775 53461
L52775 53293
L52803 53236
L52831 53208
L52888 53180
L52972 53180
L53028 53208
L53056 53236
L53084 53293
L53084 53461
L53056 53517
L53028 53546
L52972 53574
L52888 53574
" />
<text x="50511.8" y="56653.5"
textLength="833.521" font-size="787.402" lengthAdjust="spacingAndGlyphs"
text-anchor="middle" opacity="0">-</text>
<path d="M50286 56400
L50736 56400
" />
<text x="61437" y="59409.4"
textLength="833.521" font-size="787.402" lengthAdjust="spacingAndGlyphs"
text-anchor="middle" opacity="0">-</text>
<path d="M61212 59156
L61661 59156
" />
<g transform="rotate(-90 68818.9 58129.9)">
<text x="68818.9" y="58366.1"
textLength="1339.71" font-size="524.934" lengthAdjust="spacingAndGlyphs"
text-anchor="middle" opacity="0">v2.0</text>
</g>
<path d="M68717 58692
L69032 58598
L68717 58504
" />
<path d="M68605 58373
L68582 58354
L68560 58317
L68560 58223
L68582 58186
L68605 58167
L68650 58148
L68695 58148
L68762 58167
L69032 58392
L69032 58148
" />
<path d="M68987 57979
L69010 57961
L69032 57979
L69010 57998
L68987 57979
L69032 57979
" />
<path d="M68560 57717
L68560 57679
L68582 57642
L68605 57623
L68650 57604
L68740 57586
L68852 57586
L68942 57604
L68987 57623
L69010 57642
L69032 57679
L69032 57717
L69010 57754
L68987 57773
L68942 57792
L68852 57811
L68740 57811
L68650 57792
L68605 57773
L68582 57754
L68560 57717
" />
</g>
<g style="fill:#000000; fill-opacity:0.0; 
stroke:#000000; stroke-width:118.11; stroke-opacity:1; 
stroke-linecap:round; stroke-linejoin:round;">
<text x="66948.8" y="58720.5"
textLength="2520.81" font-size="1574.8" lengthAdjust="spacingAndGlyphs"
text-anchor="middle" opacity="0">Bit</text>
<path d="M66414 58045
L66583 58101
L66639 58158
L66695 58270
L66695 58439
L66639 58551
L66583 58607
L66470 58664
L66020 58664
L66020 57483
L66414 57483
L66526 57539
L66583 57595
L66639 57708
L66639 57820
L66583 57933
L66526 57989
L66414 58045
L66020 58045
" />
<path d="M67201 58664
L67201 57876
" />
<path d="M67201 57483
L67145 57539
L67201 57595
L67258 57539
L67201 57483
L67201 57595
" />
<path d="M67595 57876
L68045 57876
" />
<path d="M67764 57483
L67764 58495
L67820 58607
L67933 58664
L68045 58664
" />
<text x="66653.5" y="57145.7"
textLength="3078.18" font-size="1574.8" lengthAdjust="spacingAndGlyphs"
text-anchor="middle" opacity="0">Cat</text>
<path d="M66147 56976
L66091 57033
L65922 57089
L65809 57089
L65641 57033
L65528 56920
L65472 56808
L65416 56583
L65416 56414
L65472 56189
L65528 56077
L65641 55964
L65809 55908
L65922 55908
L66091 55964
L66147 56020
" />
<path d="M67159 57089
L67159 56470
L67103 56358
L66991 56302
L66766 56302
L66653 56358
" />
<path d="M67159 57033
L67047 57089
L66766 57089
L66653 57033
L66597 56920
L66597 56808
L66653 56695
L66766 56639
L67047 56639
L67159 56583
" />
<path d="M67553 56302
L68003 56302
" />
<path d="M67722 55908
L67722 56920
L67778 57033
L67890 57089
L68003 57089
" />
</g>
<g style="fill:#000000; fill-opacity:0.0; 
stroke:#000000; stroke-width:59.0551; stroke-opacity:1; 
stroke-linecap:round; stroke-linejoin:round;">
<text x="59960.6" y="53307.1"
textLength="4203.04" font-size="524.934" lengthAdjust="spacingAndGlyphs"
text-anchor="middle" opacity="0">BBC Micro:Bit</text>
<path d="M58160 53082
L58217 53100
L58235 53119
L58254 53157
L58254 53213
L58235 53250
L58217 53269
L58179 53288
L58029 53288
L58029 52894
L58160 52894
L58198 52913
L58217 52932
L58235 52969
L58235 53007
L58217 53044
L58198 53063
L58160 53082
L58029 53082
" />
<path d="M58554 53082
L58610 53100
L58629 53119
L58648 53157
L58648 53213
L58629 53250
L58610 53269
L58573 53288
L58423 53288
L58423 52894
L58554 52894
L58592 52913
L58610 52932
L58629 52969
L58629 53007
L58610 53044
L58592 53063
L58554 53082
L58423 53082
" />
<path d="M59041 53250
L59023 53269
L58967 53288
L58929 53288
L58873 53269
L58835 53232
L58817 53194
L58798 53119
L58798 53063
L58817 52988
L58835 52950
L58873 52913
L58929 52894
L58967 52894
L59023 52913
L59041 52932
" />
<path d="M59510 53288
L59510 52894
L59641 53175
L59773 52894
L59773 53288
" />
<path d="M59960 53288
L59960 53025
" />
<path d="M59960 52894
L59941 52913
L59960 52932
L59979 52913
L59960 52894
L59960 52932
" />
<path d="M60316 53269
L60279 53288
L60204 53288
L60166 53269
L60148 53250
L60129 53213
L60129 53100
L60148 53063
L60166 53044
L60204 53025
L60279 53025
L60316 53044
" />
<path d="M60485 53288
L60485 53025
" />
<path d="M60485 53100
L60504 53063
L60523 53044
L60560 53025
L60598 53025
" />
<path d="M60785 53288
L60748 53269
L60729 53250
L60710 53213
L60710 53100
L60729 53063
L60748 53044
L60785 53025
L60841 53025
L60879 53044
L60898 53063
L60916 53100
L60916 53213
L60898 53250
L60879 53269
L60841 53288
L60785 53288
" />
<path d="M61085 53250
L61104 53269
L61085 53288
L61066 53269
L61085 53250
L61085 53288
" />
<path d="M61085 53044
L61104 53063
L61085 53082
L61066 53063
L61085 53044
L61085 53082
" />
<path d="M61404 53082
L61460 53100
L61479 53119
L61497 53157
L61497 53213
L61479 53250
L61460 53269
L61422 53288
L61272 53288
L61272 52894
L61404 52894
L61441 52913
L61460 52932
L61479 52969
L61479 53007
L61460 53044
L61441 53063
L61404 53082
L61272 53082
" />
<path d="M61666 53288
L61666 53025
" />
<path d="M61666 52894
L61647 52913
L61666 52932
L61685 52913
L61666 52894
L61666 52932
" />
<path d="M61797 53025
L61947 53025
" />
<path d="M61854 52894
L61854 53232
L61872 53269
L61910 53288
L61947 53288
" />
</g>
<g style="fill:#000000; fill-opacity:0.0; 
stroke:#000000; stroke-width:78.7402; stroke-opacity:1; 
stroke-linecap:round; stroke-linejoin:round;">
<text x="58189" y="58622"
textLength="1145.39" font-size="787.402" lengthAdjust="spacingAndGlyphs"
text-anchor="middle" opacity="0">5V</text>
<path d="M58076 58003
L57795 58003
L57767 58284
L57795 58256
L57851 58228
L57992 58228
L58048 58256
L58076 58284
L58104 58340
L58104 58481
L58076 58537
L58048 58565
L57992 58593
L57851 58593
L57795 58565
L57767 58537
" />
<path d="M58273 58003
L58470 58593
L58667 58003
" />
</g>
<g style="fill:#000000; fill-opacity:0.0; 
stroke:#000000; stroke-width:59.0551; stroke-opacity:1; 
stroke-linecap:round; stroke-linejoin:round;">
<text x="51988.2" y="59409.4"
textLength="1677.17" font-size="524.934" lengthAdjust="spacingAndGlyphs"
text-anchor="middle" opacity="0">Laser</text>
<path d="M51482 59390
L51294 59390
L51294 58997
" />
<path d="M51781 59390
L51781 59184
L51763 59146
L51725 59128
L51650 59128
L51613 59146
" />
<path d="M51781 59371
L51744 59390
L51650 59390
L51613 59371
L51594 59334
L51594 59296
L51613 59259
L51650 59240
L51744 59240
L51781 59221
" />
<path d="M51950 59371
L51988 59390
L52063 59390
L52100 59371
L52119 59334
L52119 59315
L52100 59278
L52063 59259
L52006 59259
L51969 59240
L51950 59203
L51950 59184
L51969 59146
L52006 59128
L52063 59128
L52100 59146
" />
<path d="M52438 59371
L52400 59390
L52325 59390
L52288 59371
L52269 59334
L52269 59184
L52288 59146
L52325 59128
L52400 59128
L52438 59146
L52456 59184
L52456 59221
L52269 59259
" />
<path d="M52625 59390
L52625 59128
" />
<path d="M52625 59203
L52644 59165
L52663 59146
L52700 59128
L52738 59128
" />
</g>
<g style="fill:#000000; fill-opacity:0.0; 
stroke:#000000; stroke-width:78.7402; stroke-opacity:1; 
stroke-linecap:round; stroke-linejoin:round;">
<text x="58385.8" y="59409.4"
textLength="807.93" font-size="787.402" lengthAdjust="spacingAndGlyphs"
text-anchor="middle" opacity="0">+</text>
<path d="M58160 59156
L58610 59156
" />
<path d="M58385 59381
L58385 58931
" />
<text x="52677.2" y="56752"
textLength="833.521" font-size="787.402" lengthAdjust="spacingAndGlyphs"
text-anchor="middle" opacity="0">+</text>
<path d="M52452 56498
L52902 56498
" />
<path d="M52677 56723
L52677 56273
" />
<text x="50610.2" y="58425.2"
textLength="833.521" font-size="787.402" lengthAdjust="spacingAndGlyphs"
text-anchor="middle" opacity="0">+</text>
<path d="M50385 58172
L50835 58172
" />
<path d="M50610 58397
L50610 57947
" />
<text x="50511.8" y="55669.3"
textLength="833.521" font-size="787.402" lengthAdjust="spacingAndGlyphs"
text-anchor="middle" opacity="0">+</text>
<path d="M50286 55416
L50736 55416
" />
<path d="M50511 55641
L50511 55191
" />
</g>
<g style="fill:#000000; fill-opacity:0.0; 
stroke:#000000; stroke-width:47.2441; stroke-opacity:1; 
stroke-linecap:round; stroke-linejoin:round;">
<path d="M61586 56685
L61716 56685
" />
<path d="M61586 54110
L61586 56685
" />
<path d="M61716 54110
L61586 54110
" />
<path d="M62665 56685
L62535 56685
" />
<path d="M62665 54110
L62665 56685
" />
<path d="M62535 54110
L62665 54110
" />
<path d="M53003 56881
L52480 56881
" />
<path d="M53003 56358
L53003 56881
" />
<path d="M51980 56881
L50956 56881
" />
<path d="M51980 55858
L51980 56881
" />
<path d="M53003 55858
L51980 55858
" />
<path d="M50956 56881
L50956 53834
" />
<path d="M53003 55858
L53003 53834
" />
<path d="M53003 53834
L50956 53834
" />
<path d="M59255 55110
L59255 55171
" />
<path d="M59255 54198
L59255 54259
" />
<path d="M59460.3 55110.2 A590.551 590.551 0.0 0 0 60280 55110.2 " />
<path d="M60280 54259.9 A590.551 590.551 0.0 0 0 59460.3 54259.8 " />
<path d="M59255.9 55171.5 A783.465 783.465 0.0 0 0 60528.5 55109.7 " />
<path d="M60528.5 54260.4 A783.465 783.465 0.0 0 0 59255.9 54198.6 " />
</g>
<g style="fill:#000000; fill-opacity:0.0; 
stroke:#000000; stroke-width:59.0551; stroke-opacity:1; 
stroke-linecap:round; stroke-linejoin:round;">
<path d="M70000 52716
L49921 52716
" />
<path d="M70000 48779
L70000 52716
" />
<path d="M49921 48779
L70000 48779
" />
<path d="M49921 52716
L49921 48779
" />
</g>
<g style="fill:#000000; fill-opacity:0.0; 
stroke:#000000; stroke-width:47.2441; stroke-opacity:1; 
stroke-linecap:round; stroke-linejoin:round;">
<path d="M66696 55578
L66696 54984
" />
<path d="M68153 55578
L68153 54984
" />
<path d="M69440 54984
L65409 54984
" />
<path d="M65409 55578
L65409 53751
" />
<path d="M69440 55578
L69440 53751
" />
<path d="M69440 53751
L65409 53751
" />
<path d="M69440 55578
L65409 55578
" />
<path d="M65053 58682
L65053 58434
" />
<path d="M65177 58558
L64929 58558
" />
<path d="M62523 57992
L62523 57676
" />
<path d="M62538 58083
L62538 57585
" />
<path d="M62554 58150
L62554 57518
" />
<path d="M62570 58204
L62570 57464
" />
<path d="M62586 58251
L62586 57417
" />
<path d="M62601 58293
L62601 57375
" />
<path d="M62617 58331
L62617 57337
" />
<path d="M62633 58366
L62633 57303
" />
<path d="M62649 58398
L62649 57270
" />
<path d="M62664 58428
L62664 57240
" />
<path d="M62680 58457
L62680 57212
" />
<path d="M62696 58484
L62696 57185
" />
<path d="M62712 58509
L62712 57159
" />
<path d="M62727 58533
L62727 57135
" />
<path d="M62743 58556
L62743 57112
" />
<path d="M62759 58578
L62759 57090
" />
<path d="M62775 58600
L62775 57069
" />
<path d="M62790 58620
L62790 57049
" />
<path d="M62806 58639
L62806 57029
" />
<path d="M62822 58658
L62822 57011
" />
<path d="M62838 58675
L62838 56993
" />
<path d="M62853 58693
L62853 56975
" />
<path d="M62869 58710
L62869 56959
" />
<path d="M62885 58726
L62885 56942
" />
<path d="M62901 57425
L62901 56927
" />
<path d="M62901 58742
L62901 58244
" />
<path d="M62916 57425
L62916 56912
" />
<path d="M62916 58757
L62916 58244
" />
<path d="M62932 57425
L62932 56897
" />
<path d="M62932 58771
L62932 58244
" />
<path d="M62948 57425
L62948 56883
" />
<path d="M62948 58785
L62948 58244
" />
<path d="M62964 57425
L62964 56870
" />
<path d="M62964 58799
L62964 58244
" />
<path d="M62979 57425
L62979 56856
" />
<path d="M62979 58812
L62979 58244
" />
<path d="M62995 57425
L62995 56844
" />
<path d="M62995 58825
L62995 58244
" />
<path d="M63011 57425
L63011 56831
" />
<path d="M63011 58837
L63011 58244
" />
<path d="M63027 57425
L63027 56819
" />
<path d="M63027 58849
L63027 58244
" />
<path d="M63042 57425
L63042 56808
" />
<path d="M63042 58861
L63042 58244
" />
<path d="M63058 57425
L63058 56796
" />
<path d="M63058 58872
L63058 58244
" />
<path d="M63074 57425
L63074 56785
" />
<path d="M63074 58883
L63074 58244
" />
<path d="M63090 57425
L63090 56775
" />
<path d="M63090 58893
L63090 58244
" />
<path d="M63105 57425
L63105 56765
" />
<path d="M63105 58903
L63105 58244
" />
<path d="M63121 57425
L63121 56755
" />
<path d="M63121 58914
L63121 58244
" />
<path d="M63137 57425
L63137 56745
" />
<path d="M63137 58923
L63137 58244
" />
<path d="M63153 57425
L63153 56736
" />
<path d="M63153 58933
L63153 58244
" />
<path d="M63168 57425
L63168 56727
" />
<path d="M63168 58941
L63168 58244
" />
<path d="M63184 57425
L63184 56718
" />
<path d="M63184 58950
L63184 58244
" />
<path d="M63200 57425
L63200 56710
" />
<path d="M63200 58959
L63200 58244
" />
<path d="M63216 57425
L63216 56702
" />
<path d="M63216 58966
L63216 58244
" />
<path d="M63231 57425
L63231 56694
" />
<path d="M63231 58974
L63231 58244
" />
<path d="M63247 57425
L63247 56686
" />
<path d="M63247 58982
L63247 58244
" />
<path d="M63263 57425
L63263 56679
" />
<path d="M63263 58989
L63263 58244
" />
<path d="M63279 57425
L63279 56672
" />
<path d="M63279 58996
L63279 58244
" />
<path d="M63294 57425
L63294 56665
" />
<path d="M63294 59003
L63294 58244
" />
<path d="M63310 57425
L63310 56659
" />
<path d="M63310 59010
L63310 58244
" />
<path d="M63326 57425
L63326 56652
" />
<path d="M63326 59016
L63326 58244
" />
<path d="M63342 57425
L63342 56646
" />
<path d="M63342 59022
L63342 58244
" />
<path d="M63357 57425
L63357 56640
" />
<path d="M63357 59028
L63357 58244
" />
<path d="M63373 57425
L63373 56635
" />
<path d="M63373 59034
L63373 58244
" />
<path d="M63389 57425
L63389 56629
" />
<path d="M63389 59039
L63389 58244
" />
<path d="M63405 57425
L63405 56624
" />
<path d="M63405 59044
L63405 58244
" />
<path d="M63420 57425
L63420 56619
" />
<path d="M63420 59049
L63420 58244
" />
<path d="M63436 57425
L63436 56614
" />
<path d="M63436 59054
L63436 58244
" />
<path d="M63452 57425
L63452 56610
" />
<path d="M63452 59059
L63452 58244
" />
<path d="M63468 57425
L63468 56605
" />
<path d="M63468 59063
L63468 58244
" />
<path d="M63483 57425
L63483 56601
" />
<path d="M63483 59067
L63483 58244
" />
<path d="M63499 57425
L63499 56598
" />
<path d="M63499 59071
L63499 58244
" />
<path d="M63515 57425
L63515 56594
" />
<path d="M63515 59074
L63515 58244
" />
<path d="M63531 57425
L63531 56590
" />
<path d="M63531 59078
L63531 58244
" />
<path d="M63547 57425
L63547 56587
" />
<path d="M63547 59081
L63547 58244
" />
<path d="M63562 57425
L63562 56584
" />
<path d="M63562 59084
L63562 58244
" />
<path d="M63578 57425
L63578 56581
" />
<path d="M63578 59087
L63578 58244
" />
<path d="M63594 57425
L63594 56579
" />
<path d="M63594 59090
L63594 58244
" />
<path d="M63610 57425
L63610 56576
" />
<path d="M63610 59092
L63610 58244
" />
<path d="M63625 57425
L63625 56574
" />
<path d="M63625 59094
L63625 58244
" />
<path d="M63641 57425
L63641 56572
" />
<path d="M63641 59096
L63641 58244
" />
<path d="M63657 57425
L63657 56570
" />
<path d="M63657 59098
L63657 58244
" />
<path d="M63673 57425
L63673 56568
" />
<path d="M63673 59100
L63673 58244
" />
<path d="M63688 57425
L63688 56567
" />
<path d="M63688 59101
L63688 58244
" />
<path d="M63704 57425
L63704 56566
" />
<path d="M63704 59103
L63704 58244
" />
<path d="M63720 59103
L63720 56565
" />
<path d="M63736 59105
L63736 56564
" />
<path d="M63751 59105
L63751 56563
" />
<path d="M63767 59106
L63767 56562
" />
<path d="M63783 59106
L63783 56562
" />
<path d="M63799 59106
L63799 56562
" />
<circle cx="63799.2" cy="57834.6" r="1287.4" /> 
<path d="M55003.9 56811 A1016.21 1016.21 0.0 0 0 54797.6 57097.3 " />
<path d="M54784.9 57972 A1023.62 1023.62 0.0 0 0 55712.6 58563 " />
<path d="M55712.6 58563 A1023.62 1023.62 0.0 0 0 56640.3 57972 " />
<path d="M56627.6 57097.3 A1016.21 1016.21 0.0 0 0 56421.3 56811 " />
<path d="M56421 56811
L55003 56811
" />
<path d="M57188 56011
L57188 55881
" />
<path d="M54614 56011
L57188 56011
" />
<path d="M54614 55881
L54614 56011
" />
<path d="M57188 54933
L57188 55062
" />
<path d="M54614 54933
L57188 54933
" />
<path d="M54614 55062
L54614 54933
" />
<path d="M54614 53948
L54614 54078
" />
<path d="M57188 53948
L54614 53948
" />
<path d="M57188 54078
L57188 53948
" />
<path d="M54614 55027
L54614 54897
" />
<path d="M57188 55027
L54614 55027
" />
<path d="M57188 54897
L57188 55027
" />
<path d="M60976 58295
L60976 58818
" />
<path d="M60452 58295
L60976 58295
" />
<path d="M59952 58295
L59952 59342
" />
<path d="M59952 59342
L58929 59342
" />
<path d="M59952 58295
L58929 58295
" />
<path d="M58929 58295
L58929 59342
" />
<path d="M53003 57704
L53003 58228
" />
<path d="M52480 57704
L53003 57704
" />
<path d="M51980 57704
L51980 58751
" />
<path d="M51980 58751
L50956 58751
" />
<path d="M51980 57704
L50956 57704
" />
<path d="M50956 57704
L50956 58751
" />
<path d="M65100 55659
L65100 55462
" />
<path d="M65198 55561
L65001 55561
" />
<path d="M63070 55092
L63070 54868
" />
<path d="M63086 55184
L63086 54776
" />
<path d="M63101 55246
L63101 54713
" />
<path d="M63117 55297
L63117 54663
" />
<path d="M63133 55340
L63133 54620
" />
<path d="M63149 55378
L63149 54582
" />
<path d="M63164 55412
L63164 54548
" />
<path d="M63180 55444
L63180 54516
" />
<path d="M63196 54570
L63196 54487
" />
<path d="M63196 55472
L63196 55389
" />
<path d="M63212 54570
L63212 54461
" />
<path d="M63212 55499
L63212 55389
" />
<path d="M63227 54570
L63227 54435
" />
<path d="M63227 55524
L63227 55389
" />
<path d="M63243 54570
L63243 54412
" />
<path d="M63243 55548
L63243 55389
" />
<path d="M63259 54570
L63259 54389
" />
<path d="M63259 55570
L63259 55389
" />
<path d="M63275 54570
L63275 54368
" />
<path d="M63275 55592
L63275 55389
" />
<path d="M63290 54570
L63290 54348
" />
<path d="M63290 55612
L63290 55389
" />
<path d="M63306 54570
L63306 54329
" />
<path d="M63306 55631
L63306 55389
" />
<path d="M63322 54570
L63322 54311
" />
<path d="M63322 55649
L63322 55389
" />
<path d="M63338 54570
L63338 54294
" />
<path d="M63338 55666
L63338 55389
" />
<path d="M63353 54570
L63353 54277
" />
<path d="M63353 55683
L63353 55389
" />
<path d="M63369 54570
L63369 54261
" />
<path d="M63369 55699
L63369 55389
" />
<path d="M63385 54570
L63385 54246
" />
<path d="M63385 55714
L63385 55389
" />
<path d="M63401 54570
L63401 54231
" />
<path d="M63401 55728
L63401 55389
" />
<path d="M63416 54570
L63416 54217
" />
<path d="M63416 55742
L63416 55389
" />
<path d="M63432 54570
L63432 54204
" />
<path d="M63432 55756
L63432 55389
" />
<path d="M63448 54570
L63448 54191
" />
<path d="M63448 55769
L63448 55389
" />
<path d="M63464 54570
L63464 54179
" />
<path d="M63464 55781
L63464 55389
" />
<path d="M63479 54570
L63479 54167
" />
<path d="M63479 55793
L63479 55389
" />
<path d="M63495 54570
L63495 54155
" />
<path d="M63495 55805
L63495 55389
" />
<path d="M63511 54570
L63511 54144
" />
<path d="M63511 55815
L63511 55389
" />
<path d="M63527 54570
L63527 54134
" />
<path d="M63527 55826
L63527 55389
" />
<path d="M63542 54570
L63542 54124
" />
<path d="M63542 55836
L63542 55389
" />
<path d="M63558 54570
L63558 54114
" />
<path d="M63558 55846
L63558 55389
" />
<path d="M63574 54570
L63574 54104
" />
<path d="M63574 55855
L63574 55389
" />
<path d="M63590 54570
L63590 54095
" />
<path d="M63590 55864
L63590 55389
" />
<path d="M63605 54570
L63605 54087
" />
<path d="M63605 55873
L63605 55389
" />
<path d="M63621 54570
L63621 54078
" />
<path d="M63621 55881
L63621 55389
" />
<path d="M63637 54570
L63637 54070
" />
<path d="M63637 55889
L63637 55389
" />
<path d="M63653 54570
L63653 54063
" />
<path d="M63653 55897
L63653 55389
" />
<path d="M63668 54570
L63668 54055
" />
<path d="M63668 55904
L63668 55389
" />
<path d="M63684 54570
L63684 54049
" />
<path d="M63684 55911
L63684 55389
" />
<path d="M63700 54570
L63700 54042
" />
<path d="M63700 55918
L63700 55389
" />
<path d="M63716 54570
L63716 54036
" />
<path d="M63716 55924
L63716 55389
" />
<path d="M63731 54570
L63731 54029
" />
<path d="M63731 55930
L63731 55389
" />
<path d="M63747 54570
L63747 54024
" />
<path d="M63747 55936
L63747 55389
" />
<path d="M63763 54570
L63763 54018
" />
<path d="M63763 55941
L63763 55389
" />
<path d="M63779 54570
L63779 54013
" />
<path d="M63779 55946
L63779 55389
" />
<path d="M63794 54570
L63794 54008
" />
<path d="M63794 55951
L63794 55389
" />
<path d="M63810 54570
L63810 54003
" />
<path d="M63810 55956
L63810 55389
" />
<path d="M63826 54570
L63826 53999
" />
<path d="M63826 55961
L63826 55389
" />
<path d="M63842 54570
L63842 53995
" />
<path d="M63842 55964
L63842 55389
" />
<path d="M63858 54570
L63858 53991
" />
<path d="M63858 55968
L63858 55389
" />
<path d="M63874 54570
L63874 53988
" />
<path d="M63874 55972
L63874 55389
" />
<path d="M63889 54570
L63889 53985
" />
<path d="M63889 55975
L63889 55389
" />
<path d="M63905 54570
L63905 53981
" />
<path d="M63905 55978
L63905 55389
" />
<path d="M63921 54570
L63921 53979
" />
<path d="M63921 55981
L63921 55389
" />
<path d="M63937 54570
L63937 53976
" />
<path d="M63937 55984
L63937 55389
" />
<path d="M63952 54570
L63952 53974
" />
<path d="M63952 55986
L63952 55389
" />
<path d="M63968 54570
L63968 53972
" />
<path d="M63968 55988
L63968 55389
" />
<path d="M63984 54570
L63984 53970
" />
<path d="M63984 55990
L63984 55389
" />
<path d="M64000 54570
L64000 53968
" />
<path d="M64000 55991
L64000 55389
" />
<path d="M64015 55993
L64015 53967
" />
<path d="M64031 55994
L64031 53966
" />
<path d="M64047 55995
L64047 53965
" />
<path d="M64062 55995
L64062 53964
" />
<path d="M64078 55996
L64078 53964
" />
<path d="M64094 55996
L64094 53964
" />
<circle cx="64094.5" cy="54980.3" r="1031.5" /> 
</g>
<g style="fill:#000000; fill-opacity:0.0; 
stroke:#000000; stroke-width:59.0551; stroke-opacity:1; 
stroke-linecap:round; stroke-linejoin:round;">
<g transform="rotate(-90 61240.2 55964.6)">
<text x="61240.2" y="56161.4"
textLength="871.016" font-size="524.934" lengthAdjust="spacingAndGlyphs"
text-anchor="middle" opacity="0">R3</text>
</g>
<path d="M61418 56030
L61230 56161
" />
<path d="M61418 56255
L61024 56255
L61024 56105
L61043 56067
L61062 56048
L61099 56030
L61155 56030
L61193 56048
L61212 56067
L61230 56105
L61230 56255
" />
<path d="M61024 55898
L61024 55655
L61174 55786
L61174 55730
L61193 55692
L61212 55673
L61249 55655
L61343 55655
L61380 55673
L61399 55692
L61418 55730
L61418 55842
L61399 55880
L61380 55898
" />
<text x="53366.1" y="57047.2"
textLength="751.687" font-size="524.934" lengthAdjust="spacingAndGlyphs"
text-anchor="middle" opacity="0">J2</text>
<path d="M53234 56634
L53234 56916
L53216 56972
L53178 57009
L53122 57028
L53084 57028
" />
<path d="M53403 56672
L53422 56653
L53459 56634
L53553 56634
L53591 56653
L53609 56672
L53628 56709
L53628 56747
L53609 56803
L53384 57028
L53628 57028
" />
<text x="61043.3" y="54488.2"
textLength="845.426" font-size="524.934" lengthAdjust="spacingAndGlyphs"
text-anchor="middle" opacity="0">D1</text>
<path d="M60752 54469
L60752 54075
L60846 54075
L60902 54094
L60940 54131
L60958 54169
L60977 54244
L60977 54300
L60958 54375
L60940 54413
L60902 54450
L60846 54469
L60752 54469
" />
<path d="M61352 54469
L61127 54469
" />
<path d="M61240 54469
L61240 54075
L61202 54131
L61165 54169
L61127 54188
" />
<text x="59862.2" y="52421.3"
textLength="1332.86" font-size="524.934" lengthAdjust="spacingAndGlyphs"
text-anchor="middle" opacity="0">BIT1</text>
<path d="M59459 52196
L59515 52215
L59534 52233
L59552 52271
L59552 52327
L59534 52365
L59515 52383
L59477 52402
L59327 52402
L59327 52008
L59459 52008
L59496 52027
L59515 52046
L59534 52083
L59534 52121
L59515 52158
L59496 52177
L59459 52196
L59327 52196
" />
<path d="M59721 52402
L59721 52008
" />
<path d="M59852 52008
L60077 52008
" />
<path d="M59965 52402
L59965 52008
" />
<path d="M60415 52402
L60190 52402
" />
<path d="M60302 52402
L60302 52008
L60265 52065
L60227 52102
L60190 52121
" />
<text x="68425.2" y="49763.8"
textLength="2476.47" font-size="1049.87" lengthAdjust="spacingAndGlyphs"
text-anchor="middle" opacity="0">GND</text>
<path d="M67825 48976
L67750 48938
L67637 48938
L67525 48976
L67450 49051
L67412 49126
L67375 49276
L67375 49388
L67412 49538
L67450 49613
L67525 49688
L67637 49726
L67712 49726
L67825 49688
L67862 49651
L67862 49388
L67712 49388
" />
<path d="M68200 49726
L68200 48938
L68650 49726
L68650 48938
" />
<path d="M69025 49726
L69025 48938
L69212 48938
L69325 48976
L69400 49051
L69437 49126
L69475 49276
L69475 49388
L69437 49538
L69400 49613
L69325 49688
L69212 49726
L69025 49726
" />
<text x="64488.2" y="49763.8"
textLength="1501.59" font-size="1049.87" lengthAdjust="spacingAndGlyphs"
text-anchor="middle" opacity="0">3V</text>
<path d="M63888 48938
L64375 48938
L64113 49238
L64225 49238
L64300 49276
L64338 49313
L64375 49388
L64375 49576
L64338 49651
L64300 49688
L64225 49726
L64000 49726
L63925 49688
L63888 49651
" />
<path d="M64600 48938
L64863 49726
L65125 48938
" />
<text x="59960.6" y="49763.8"
textLength="2701.44" font-size="1049.87" lengthAdjust="spacingAndGlyphs"
text-anchor="middle" opacity="0">Pin2</text>
<path d="M58835 49726
L58835 48938
L59135 48938
L59210 48976
L59248 49013
L59285 49088
L59285 49201
L59248 49276
L59210 49313
L59135 49351
L58835 49351
" />
<path d="M59623 49726
L59623 49201
" />
<path d="M59623 48938
L59585 48976
L59623 49013
L59660 48976
L59623 48938
L59623 49013
" />
<path d="M59998 49201
L59998 49726
" />
<path d="M59998 49276
L60035 49238
L60110 49201
L60223 49201
L60298 49238
L60335 49313
L60335 49726
" />
<path d="M60673 49013
L60710 48976
L60785 48938
L60973 48938
L61047 48976
L61085 49013
L61122 49088
L61122 49163
L61085 49276
L60635 49726
L61122 49726
" />
<text x="55433.1" y="49763.8"
textLength="2701.44" font-size="1049.87" lengthAdjust="spacingAndGlyphs"
text-anchor="middle" opacity="0">Pin1</text>
<path d="M54308 49726
L54308 48938
L54608 48938
L54683 48976
L54720 49013
L54758 49088
L54758 49201
L54720 49276
L54683 49313
L54608 49351
L54308 49351
" />
<path d="M55095 49726
L55095 49201
" />
<path d="M55095 48938
L55058 48976
L55095 49013
L55133 48976
L55095 48938
L55095 49013
" />
<path d="M55470 49201
L55470 49726
" />
<path d="M55470 49276
L55508 49238
L55583 49201
L55695 49201
L55770 49238
L55808 49313
L55808 49726
" />
<path d="M56595 49726
L56145 49726
" />
<path d="M56370 49726
L56370 48938
L56295 49051
L56220 49126
L56145 49163
" />
<text x="51299.2" y="49763.8"
textLength="2701.44" font-size="1049.87" lengthAdjust="spacingAndGlyphs"
text-anchor="middle" opacity="0">Pin0</text>
<path d="M50174 49726
L50174 48938
L50474 48938
L50549 48976
L50586 49013
L50624 49088
L50624 49201
L50586 49276
L50549 49313
L50474 49351
L50174 49351
" />
<path d="M50961 49726
L50961 49201
" />
<path d="M50961 48938
L50924 48976
L50961 49013
L50999 48976
L50961 48938
L50961 49013
" />
<path d="M51336 49201
L51336 49726
" />
<path d="M51336 49276
L51374 49238
L51449 49201
L51561 49201
L51636 49238
L51674 49313
L51674 49726
" />
<path d="M52199 48938
L52274 48938
L52349 48976
L52386 49013
L52424 49088
L52461 49238
L52461 49426
L52424 49576
L52386 49651
L52349 49688
L52274 49726
L52199 49726
L52124 49688
L52086 49651
L52049 49576
L52011 49426
L52011 49238
L52049 49088
L52086 49013
L52124 48976
L52199 48938
" />
<text x="65767.7" y="53503.9"
textLength="864.173" font-size="524.934" lengthAdjust="spacingAndGlyphs"
text-anchor="middle" opacity="0">U1</text>
<path d="M65467 53091
L65467 53410
L65486 53447
L65505 53466
L65542 53485
L65617 53485
L65655 53466
L65673 53447
L65692 53410
L65692 53091
" />
<path d="M66086 53485
L65861 53485
" />
<path d="M65973 53485
L65973 53091
L65936 53147
L65898 53185
L65861 53203
" />
<text x="62126" y="57244.1"
textLength="845.426" font-size="524.934" lengthAdjust="spacingAndGlyphs"
text-anchor="middle" opacity="0">C2</text>
<path d="M62060 57187
L62041 57206
L61985 57225
L61947 57225
L61891 57206
L61854 57169
L61835 57131
L61816 57056
L61816 57000
L61835 56925
L61854 56887
L61891 56850
L61947 56831
L61985 56831
L62041 56850
L62060 56869
" />
<path d="M62210 56869
L62229 56850
L62266 56831
L62360 56831
L62397 56850
L62416 56869
L62435 56906
L62435 56944
L62416 57000
L62191 57225
L62435 57225
" />
<text x="57007.9" y="56948.8"
textLength="864.173" font-size="524.934" lengthAdjust="spacingAndGlyphs"
text-anchor="middle" opacity="0">Q1</text>
<path d="M56970 56967
L56932 56948
L56895 56911
L56839 56855
L56801 56836
L56764 56836
" />
<path d="M56782 56930
L56745 56911
L56707 56873
L56689 56798
L56689 56667
L56707 56592
L56745 56555
L56782 56536
L56857 56536
L56895 56555
L56932 56592
L56951 56667
L56951 56798
L56932 56873
L56895 56911
L56857 56930
L56782 56930
" />
<path d="M57326 56930
L57101 56930
" />
<path d="M57214 56930
L57214 56536
L57176 56592
L57139 56630
L57101 56648
" />
<text x="54448.8" y="56555.1"
textLength="845.426" font-size="524.934" lengthAdjust="spacingAndGlyphs"
text-anchor="middle" opacity="0">R2</text>
<path d="M54383 56536
L54251 56348
" />
<path d="M54158 56536
L54158 56142
L54308 56142
L54345 56161
L54364 56180
L54383 56217
L54383 56273
L54364 56311
L54345 56330
L54308 56348
L54158 56348
" />
<path d="M54533 56180
L54551 56161
L54589 56142
L54683 56142
L54720 56161
L54739 56180
L54758 56217
L54758 56255
L54739 56311
L54514 56536
L54758 56536
" />
<text x="54645.7" y="53897.6"
textLength="845.426" font-size="524.934" lengthAdjust="spacingAndGlyphs"
text-anchor="middle" opacity="0">R1</text>
<path d="M54580 53878
L54448 53691
" />
<path d="M54355 53878
L54355 53485
L54505 53485
L54542 53503
L54561 53522
L54580 53560
L54580 53616
L54561 53653
L54542 53672
L54505 53691
L54355 53691
" />
<path d="M54955 53878
L54730 53878
" />
<path d="M54842 53878
L54842 53485
L54805 53541
L54767 53578
L54730 53597
" />
<text x="61338.6" y="58720.5"
textLength="751.687" font-size="524.934" lengthAdjust="spacingAndGlyphs"
text-anchor="middle" opacity="0">J4</text>
<path d="M61207 58308
L61207 58589
L61188 58645
L61151 58682
L61094 58701
L61057 58701
" />
<path d="M61563 58439
L61563 58701
" />
<path d="M61469 58289
L61376 58570
L61619 58570
" />
<text x="53366.1" y="57834.6"
textLength="751.687" font-size="524.934" lengthAdjust="spacingAndGlyphs"
text-anchor="middle" opacity="0">J1</text>
<path d="M53234 57422
L53234 57703
L53216 57759
L53178 57797
L53122 57815
L53084 57815
" />
<path d="M53628 57815
L53403 57815
" />
<path d="M53516 57815
L53516 57422
L53478 57478
L53441 57515
L53403 57534
" />
<text x="63208.7" y="53897.6"
textLength="845.426" font-size="524.934" lengthAdjust="spacingAndGlyphs"
text-anchor="middle" opacity="0">C1</text>
<path d="M63143 53841
L63124 53860
L63068 53878
L63030 53878
L62974 53860
L62936 53822
L62918 53785
L62899 53710
L62899 53653
L62918 53578
L62936 53541
L62974 53503
L63030 53485
L63068 53485
L63124 53503
L63143 53522
" />
<path d="M63517 53878
L63293 53878
" />
<path d="M63405 53878
L63405 53485
L63368 53541
L63330 53578
L63293 53597
" />
<g >
</g>
</g> 
</svg>
